<svg width="220" height="74" viewBox="0 0 220 74" fill="none" xmlns="http://www.w3.org/2000/svg">
<rect x="0.916667" y="0.916667" width="218.167" height="71.5" rx="10.0833" fill="#143465"/>
<rect x="0.916667" y="0.916667" width="218.167" height="71.5" rx="10.0833" stroke="#00C0A1" stroke-width="1.83333"/>
<path d="M51.6321 43.4824C52.1485 43.4824 52.6438 43.6876 53.0089 44.0527C53.3742 44.418 53.5794 44.9133 53.5794 45.4297V49.3245C53.5794 50.8739 52.9638 52.3598 51.8682 53.4555C50.7726 54.5511 49.2867 55.1666 47.7373 55.1666H24.3687C22.8194 55.1666 21.3334 54.5511 20.2378 53.4555C19.1422 52.3598 18.5267 50.8739 18.5267 49.3245V45.4297C18.5267 44.9133 18.7318 44.418 19.0971 44.0527C19.4622 43.6876 19.9575 43.4824 20.474 43.4824C20.9906 43.4824 21.4858 43.6876 21.851 44.0527C22.2163 44.418 22.4214 44.9133 22.4214 45.4297V49.3245C22.4214 49.841 22.6266 50.3362 22.9917 50.7015C23.357 51.0667 23.8523 51.2718 24.3687 51.2718H47.7373C48.2538 51.2718 48.749 51.0667 49.1143 50.7015C49.4795 50.3362 49.6846 49.841 49.6846 49.3245V45.4297C49.6846 44.9133 49.8898 44.418 50.255 44.0527C50.6202 43.6876 51.1155 43.4824 51.6321 43.4824ZM36.053 18.1666C36.5695 18.1666 37.0648 18.3717 37.43 18.7369C37.7952 19.1021 38.0003 19.5974 38.0003 20.1139V38.7794L44.4131 32.3687C44.7804 32.014 45.2723 31.8177 45.7829 31.8221C46.2934 31.8266 46.7819 32.0314 47.1429 32.3924C47.504 32.7535 47.7088 33.242 47.7132 33.7525C47.7178 34.2631 47.5214 34.7551 47.1666 35.1224L37.4298 44.8592C37.3746 44.9145 37.3161 44.9666 37.2545 45.0149L37.4298 44.8592C37.0803 45.2083 36.6111 45.4116 36.1173 45.4278L36.053 45.4297H35.9907L35.8856 45.4219L36.053 45.4297C35.6174 45.4297 35.1944 45.2837 34.8515 45.0149C34.79 44.9666 34.7315 44.9145 34.6763 44.8592L24.9394 35.1224C24.5846 34.7551 24.3884 34.2631 24.3928 33.7525C24.3972 33.242 24.602 32.7535 24.9631 32.3924C25.3241 32.0314 25.8126 31.8266 26.3231 31.8221C26.8338 31.8177 27.3257 32.014 27.693 32.3687L34.1057 38.7794V20.1139C34.1057 19.5974 34.3108 19.1021 34.676 18.7369C35.0413 18.3717 35.5366 18.1666 36.053 18.1666Z" fill="white"/>
<path d="M68.0238 29.3555C67.3572 29.3555 66.7646 29.2147 66.246 28.9332C65.7275 28.6443 65.3201 28.2443 65.0238 27.7332C64.7275 27.2147 64.5794 26.6073 64.5794 25.911V19.1666H66.246V25.8332C66.246 26.4332 66.4164 26.9147 66.7572 27.2777C67.0979 27.6332 67.5312 27.811 68.0572 27.811C68.5683 27.811 68.9942 27.6369 69.3349 27.2888C69.6831 26.9332 69.8572 26.4666 69.8572 25.8888V19.1666H71.4683V25.8666C71.4683 26.5703 71.3201 27.1851 71.0238 27.711C70.7349 28.2369 70.3312 28.6443 69.8127 28.9332C69.3016 29.2147 68.7053 29.3555 68.0238 29.3555ZM76.07 29.3443C75.47 29.3443 74.9107 29.2295 74.3922 28.9999C73.8811 28.7703 73.4737 28.4888 73.17 28.1555L73.6256 26.2777C73.8626 26.7073 74.2033 27.0814 74.6478 27.3999C75.0922 27.7184 75.5848 27.8777 76.1256 27.8777C76.5848 27.8777 76.9589 27.7406 77.2478 27.4666C77.5367 27.1851 77.6811 26.8443 77.6811 26.4443C77.6811 26.1332 77.607 25.8777 77.4589 25.6777C77.3181 25.4777 77.1515 25.3184 76.9589 25.1999C76.7663 25.074 76.607 24.9814 76.4811 24.9221L75.2811 24.3221C75.0144 24.1814 74.733 24.0073 74.4367 23.7999C74.1404 23.5925 73.8885 23.3221 73.6811 22.9888C73.4737 22.648 73.37 22.2184 73.37 21.6999C73.37 21.1666 73.4922 20.6962 73.7367 20.2888C73.9811 19.8814 74.3256 19.5629 74.77 19.3332C75.2144 19.1036 75.7293 18.9888 76.3144 18.9888C76.8774 18.9888 77.3774 19.0851 77.8144 19.2777C78.2515 19.4629 78.5996 19.6592 78.8589 19.8666L78.4144 21.7221C78.1774 21.374 77.8626 21.074 77.47 20.8221C77.0848 20.5629 76.6737 20.4332 76.2367 20.4332C75.8367 20.4332 75.5219 20.548 75.2922 20.7777C75.0626 20.9999 74.9478 21.274 74.9478 21.5999C74.9478 21.8295 74.9996 22.0258 75.1033 22.1888C75.2144 22.3517 75.3478 22.4888 75.5033 22.5999C75.6663 22.7036 75.8256 22.7962 75.9811 22.8777L77.2033 23.4888C77.3737 23.5703 77.5737 23.6851 77.8033 23.8332C78.0404 23.974 78.27 24.1555 78.4922 24.3777C78.7144 24.5999 78.8959 24.8703 79.0367 25.1888C79.1848 25.5073 79.2589 25.8888 79.2589 26.3332C79.2589 26.911 79.1219 27.4295 78.8478 27.8888C78.5811 28.3406 78.2107 28.6962 77.7367 28.9555C77.2626 29.2147 76.707 29.3443 76.07 29.3443ZM81.0315 29.1666V19.1666H86.1648V20.5999H82.6315V22.4332H85.387V23.8332H82.6315V27.6999H86.1648V29.1666H81.0315ZM90.6263 20.6332V19.1666H97.404V20.6332H94.8485V29.1666H93.1818V20.6332H90.6263ZM99.1408 29.1666V19.1666H100.741V22.3999H103.963V19.1666H105.563V29.1666H103.963V23.8666H100.741V29.1666H99.1408ZM108.031 29.1666V19.1666H113.165V20.5999H109.631V22.4332H112.387V23.8332H109.631V27.6999H113.165V29.1666H108.031Z" fill="white"/>
<path d="M66.046 56.1666V36.1666H72.7127C74.4164 36.1666 75.9275 36.448 77.246 37.011C78.5794 37.5592 79.7053 38.3073 80.6238 39.2555C81.5423 40.1888 82.2386 41.2555 82.7127 42.4555C83.1868 43.6555 83.4238 44.8925 83.4238 46.1666C83.4238 47.4406 83.1868 48.6777 82.7127 49.8777C82.2386 51.0777 81.5423 52.1517 80.6238 53.0999C79.7053 54.0332 78.5794 54.7814 77.246 55.3443C75.9275 55.8925 74.4164 56.1666 72.7127 56.1666H66.046ZM69.246 53.2332H72.4016C73.7349 53.2332 74.8757 53.0332 75.8238 52.6332C76.7868 52.2184 77.5794 51.6703 78.2016 50.9888C78.8238 50.3073 79.2831 49.5517 79.5794 48.7221C79.8757 47.8777 80.0238 47.0258 80.0238 46.1666C80.0238 45.3073 79.8757 44.4629 79.5794 43.6332C79.2831 42.7888 78.8238 42.0258 78.2016 41.3443C77.5794 40.6629 76.7868 40.1221 75.8238 39.7221C74.8757 39.3073 73.7349 39.0999 72.4016 39.0999H69.246V53.2332ZM85.6649 56.1666V42.8332H88.7983V56.1666H85.6649ZM87.2427 40.6777C86.7242 40.6777 86.2872 40.4999 85.9316 40.1443C85.576 39.774 85.3983 39.3369 85.3983 38.8332C85.3983 38.2999 85.576 37.8629 85.9316 37.5221C86.302 37.1666 86.739 36.9888 87.2427 36.9888C87.776 36.9888 88.2131 37.1666 88.5538 37.5221C88.9094 37.8777 89.0872 38.3147 89.0872 38.8332C89.0872 39.3518 88.9094 39.7888 88.5538 40.1443C88.1983 40.4999 87.7612 40.6777 87.2427 40.6777ZM91.5623 56.1666V42.8332H94.4067V45.1888C94.8808 44.4184 95.4882 43.811 96.229 43.3666C96.9697 42.9221 97.8512 42.6999 98.8734 42.6999L99.5845 45.611C99.303 45.5221 98.9845 45.4777 98.629 45.4777C97.4438 45.4777 96.4882 45.8555 95.7623 46.611C95.0512 47.3666 94.6956 48.448 94.6956 49.8555V56.1666H91.5623ZM107.01 56.5221C105.573 56.5221 104.292 56.211 103.166 55.5888C102.04 54.9666 101.158 54.1147 100.521 53.0332C99.8992 51.9518 99.5881 50.7295 99.5881 49.3666C99.5881 48.0629 99.8918 46.8925 100.499 45.8555C101.121 44.8184 101.951 43.9962 102.988 43.3888C104.04 42.7814 105.196 42.4777 106.455 42.4777C107.729 42.4777 108.877 42.774 109.899 43.3666C110.936 43.9592 111.758 44.7666 112.366 45.7888C112.973 46.7962 113.277 47.9443 113.277 49.2332V50.411H104.855C104.484 50.411 104.114 50.3962 103.744 50.3666C103.373 50.3221 103.003 50.2703 102.633 50.211C102.81 51.2332 103.299 52.0851 104.099 52.7666C104.914 53.448 105.907 53.7888 107.077 53.7888C107.921 53.7888 108.692 53.611 109.388 53.2555C110.084 52.8851 110.655 52.411 111.099 51.8332L111.855 54.9443C111.203 55.4629 110.462 55.8555 109.633 56.1221C108.803 56.3888 107.929 56.5221 107.01 56.5221ZM102.566 48.211C103.336 48.0629 104.099 47.9888 104.855 47.9888H108.233C108.603 47.9888 108.958 48.0036 109.299 48.0332C109.655 48.0629 109.996 48.0999 110.321 48.1443C110.099 47.2406 109.633 46.5073 108.921 45.9443C108.225 45.3666 107.396 45.0777 106.433 45.0777C105.499 45.0777 104.677 45.374 103.966 45.9666C103.255 46.5592 102.788 47.3073 102.566 48.211ZM121.422 56.5221C120.104 56.5221 118.904 56.211 117.822 55.5888C116.741 54.9518 115.882 54.0999 115.245 53.0332C114.607 51.9666 114.289 50.7888 114.289 49.4999C114.289 48.1962 114.607 47.0184 115.245 45.9666C115.882 44.8999 116.741 44.0555 117.822 43.4332C118.904 42.7962 120.104 42.4777 121.422 42.4777C122.356 42.4777 123.237 42.6406 124.067 42.9666C124.911 43.2777 125.652 43.7221 126.289 44.2999L125.422 47.7888C125.052 47.1221 124.526 46.5517 123.845 46.0777C123.163 45.5888 122.378 45.3443 121.489 45.3443C120.719 45.3443 120.015 45.5369 119.378 45.9221C118.756 46.2925 118.259 46.7888 117.889 47.411C117.533 48.0332 117.356 48.7295 117.356 49.4999C117.356 50.2555 117.533 50.9518 117.889 51.5888C118.259 52.211 118.756 52.7147 119.378 53.0999C120.015 53.4703 120.719 53.6555 121.489 53.6555C122.378 53.6555 123.163 53.4184 123.845 52.9443C124.526 52.4703 125.052 51.8925 125.422 51.211L126.289 54.6999C125.652 55.2777 124.911 55.7295 124.067 56.0555C123.237 56.3666 122.356 56.5221 121.422 56.5221ZM129.439 56.1666V45.3666H126.684V42.8332H129.506V38.3888H132.506V42.8332H135.484V45.3666H132.572V56.1666H129.439ZM143.483 56.1666V36.1666H146.816V53.2332H153.283V56.1666H143.483ZM155.321 56.1666V42.8332H158.454V56.1666H155.321ZM156.899 40.6777C156.38 40.6777 155.943 40.4999 155.587 40.1443C155.232 39.774 155.054 39.3369 155.054 38.8332C155.054 38.2999 155.232 37.8629 155.587 37.5221C155.958 37.1666 156.395 36.9888 156.899 36.9888C157.432 36.9888 157.869 37.1666 158.21 37.5221C158.565 37.8777 158.743 38.3147 158.743 38.8332C158.743 39.3518 158.565 39.7888 158.21 40.1443C157.854 40.4999 157.417 40.6777 156.899 40.6777ZM161.218 56.1666V42.8332H164.063V44.6332C164.551 43.9369 165.159 43.4036 165.885 43.0332C166.626 42.6629 167.426 42.4777 168.285 42.4777C169.233 42.4777 170.114 42.7073 170.929 43.1666C171.744 43.6258 172.403 44.2925 172.907 45.1666C173.411 46.0406 173.663 47.0999 173.663 48.3443V56.1666H170.529V48.7666C170.529 47.8777 170.255 47.0851 169.707 46.3888C169.174 45.6925 168.418 45.3443 167.44 45.3443C166.64 45.3443 165.922 45.6258 165.285 46.1888C164.663 46.7517 164.351 47.5888 164.351 48.6999V56.1666H161.218ZM184.915 56.1666L179.249 48.8332L183.915 42.8332H187.382L182.804 48.5666L188.715 56.1666H184.915ZM176.138 56.1666V34.8332H179.271V56.1666H176.138Z" fill="white"/>
</svg>
