<svg width="220" height="66" viewBox="0 0 220 66" fill="none" xmlns="http://www.w3.org/2000/svg">
<path d="M192.245 65.3361L27.6754 65.1084C12.3698 65.0849 -0.0215595 51.5357 2.8164e-05 34.8386L0.00723108 30.1913C0.0288187 13.4943 12.4489 -0.0235195 27.7546 3.07245e-05L192.325 0.227665C207.63 0.251215 220.022 13.8004 220 30.4975L219.993 35.1447C219.978 51.8418 207.551 65.3596 192.245 65.3361Z" fill="#DFF800"/>
<rect width="163" height="29" transform="translate(28.5 18.168)" fill="#DFF800"/>
<path d="M33.66 41.216C32.812 41.216 32.044 41.072 31.356 40.784C30.684 40.48 30.148 40.024 29.748 39.416C29.364 38.808 29.172 38.048 29.172 37.136C29.172 36.288 29.468 35.312 30.06 34.208C30.668 33.088 31.684 31.944 33.108 30.776L33.132 32.648L31.188 31.064L33.06 28.784C34.132 29.6 35.068 30.424 35.868 31.256C36.684 32.072 37.316 32.928 37.764 33.824C38.212 34.704 38.436 35.648 38.436 36.656C38.436 37.104 38.364 37.592 38.22 38.12C38.076 38.648 37.828 39.144 37.476 39.608C37.124 40.072 36.636 40.456 36.012 40.76C35.388 41.064 34.604 41.216 33.66 41.216ZM33.828 38.408C34.276 38.408 34.644 38.328 34.932 38.168C35.236 37.992 35.46 37.76 35.604 37.472C35.748 37.184 35.82 36.864 35.82 36.512C35.82 36.192 35.756 35.848 35.628 35.48C35.5 35.096 35.244 34.68 34.86 34.232C34.476 33.768 33.9 33.24 33.132 32.648L34.668 32.48C34.044 32.96 33.524 33.456 33.108 33.968C32.692 34.464 32.388 34.944 32.196 35.408C32.02 35.872 31.932 36.296 31.932 36.68C31.932 37.256 32.116 37.688 32.484 37.976C32.852 38.264 33.3 38.408 33.828 38.408ZM35.748 26.84C35.332 26.84 34.98 26.696 34.692 26.408C34.404 26.104 34.26 25.752 34.26 25.352C34.26 24.952 34.404 24.6 34.692 24.296C34.98 23.992 35.332 23.84 35.748 23.84C36.148 23.84 36.492 23.992 36.78 24.296C37.068 24.6 37.212 24.952 37.212 25.352C37.212 25.752 37.068 26.104 36.78 26.408C36.492 26.696 36.148 26.84 35.748 26.84ZM31.932 26.816C31.516 26.816 31.156 26.672 30.852 26.384C30.564 26.096 30.42 25.752 30.42 25.352C30.42 24.952 30.564 24.6 30.852 24.296C31.14 23.992 31.5 23.84 31.932 23.84C32.332 23.84 32.676 23.992 32.964 24.296C33.252 24.6 33.396 24.952 33.396 25.352C33.396 25.752 33.252 26.096 32.964 26.384C32.676 26.672 32.332 26.816 31.932 26.816ZM38.514 46.712L37.506 44.168C38.466 43.848 39.314 43.472 40.05 43.04C40.786 42.624 41.402 42.16 41.898 41.648C42.41 41.152 42.786 40.624 43.026 40.064C43.282 39.504 43.41 38.92 43.41 38.312C43.41 37.608 43.25 36.856 42.93 36.056C42.626 35.24 42.258 34.44 41.826 33.656L44.442 32.384C44.73 32.896 44.986 33.432 45.21 33.992C45.434 34.552 45.626 35.064 45.786 35.528C45.946 35.976 46.066 36.328 46.146 36.584C46.37 37.32 46.666 37.816 47.034 38.072C47.418 38.328 48.002 38.456 48.786 38.456C49.298 38.456 49.658 38.592 49.866 38.864C50.09 39.12 50.202 39.44 50.202 39.824C50.202 40.224 50.058 40.568 49.77 40.856C49.482 41.144 49.074 41.288 48.546 41.288C47.874 41.288 47.298 41.184 46.818 40.976C46.354 40.752 45.986 40.448 45.714 40.064C45.442 39.68 45.266 39.256 45.186 38.792L46.026 39.248C45.962 40.176 45.698 41.04 45.234 41.84C44.786 42.656 44.194 43.384 43.458 44.024C42.738 44.664 41.946 45.208 41.082 45.656C40.218 46.12 39.362 46.472 38.514 46.712ZM48.5625 41.288L48.8025 38.456C49.3305 38.456 49.7545 38.416 50.0745 38.336C50.4105 38.256 50.6825 38.064 50.8905 37.76C51.1145 37.44 51.3145 36.968 51.4905 36.344C51.6665 35.704 51.8665 34.824 52.0905 33.704L54.7065 34.256C54.6585 34.512 54.5945 34.808 54.5145 35.144C54.4505 35.464 54.3945 35.8 54.3465 36.152C54.2985 36.488 54.2745 36.792 54.2745 37.064C54.2745 37.496 54.4185 37.84 54.7065 38.096C54.9945 38.336 55.5385 38.456 56.3385 38.456C56.7705 38.456 57.1385 38.416 57.4425 38.336C57.7465 38.24 58.0025 38.04 58.2105 37.736C58.4185 37.432 58.6025 36.944 58.7625 36.272C58.9225 35.6 59.0905 34.688 59.2665 33.536L61.9305 33.992C61.8665 34.328 61.8025 34.704 61.7385 35.12C61.6745 35.536 61.6185 35.936 61.5705 36.32C61.5225 36.688 61.4985 36.992 61.4985 37.232C61.4985 37.44 61.5545 37.64 61.6665 37.832C61.7785 38.024 61.9945 38.176 62.3145 38.288C62.6345 38.4 63.1065 38.456 63.7305 38.456C64.1625 38.456 64.5385 38.4 64.8585 38.288C65.1945 38.176 65.4505 37.984 65.6265 37.712C65.8025 37.44 65.8905 37.072 65.8905 36.608C65.8905 36 65.7465 35.224 65.4585 34.28C65.1865 33.336 64.8745 32.36 64.5225 31.352L67.3545 30.464C67.5945 31.088 67.8105 31.768 68.0025 32.504C68.1945 33.224 68.3465 33.936 68.4585 34.64C68.5865 35.328 68.6505 35.936 68.6505 36.464C68.6505 37.248 68.5305 37.944 68.2905 38.552C68.0665 39.144 67.7465 39.648 67.3305 40.064C66.9145 40.464 66.4105 40.768 65.8185 40.976C65.2265 41.184 64.5705 41.288 63.8505 41.288C62.9865 41.288 62.2745 41.2 61.7145 41.024C61.1705 40.832 60.7545 40.536 60.4665 40.136C60.1785 39.72 59.9865 39.168 59.8905 38.48H60.7065C60.3865 39.328 60.0345 39.952 59.6505 40.352C59.2665 40.752 58.8025 41.008 58.2585 41.12C57.7145 41.232 57.0265 41.288 56.1945 41.288C55.7145 41.288 55.2105 41.232 54.6825 41.12C54.1705 40.992 53.7145 40.72 53.3145 40.304C52.9305 39.872 52.6585 39.224 52.4985 38.36L53.5785 38.264C53.2745 39.16 52.8825 39.824 52.4025 40.256C51.9225 40.672 51.3625 40.952 50.7225 41.096C50.0825 41.224 49.3625 41.288 48.5625 41.288ZM60.2745 27.056C59.9065 27.056 59.5865 26.92 59.3145 26.648C59.0425 26.36 58.9065 26.032 58.9065 25.664C58.9065 25.28 59.0425 24.952 59.3145 24.68C59.5865 24.408 59.9065 24.272 60.2745 24.272C60.6585 24.272 60.9785 24.408 61.2345 24.68C61.5065 24.952 61.6425 25.28 61.6425 25.664C61.6425 26.032 61.5065 26.36 61.2345 26.648C60.9785 26.92 60.6585 27.056 60.2745 27.056ZM58.4745 30.032C58.0905 30.032 57.7625 29.896 57.4905 29.624C57.2185 29.336 57.0825 29 57.0825 28.616C57.0825 28.248 57.2185 27.928 57.4905 27.656C57.7625 27.384 58.0905 27.248 58.4745 27.248C58.8425 27.248 59.1625 27.384 59.4345 27.656C59.7065 27.928 59.8425 28.248 59.8425 28.616C59.8425 29 59.7065 29.336 59.4345 29.624C59.1625 29.896 58.8425 30.032 58.4745 30.032ZM62.0025 30.032C61.6345 30.032 61.3145 29.896 61.0425 29.624C60.7705 29.336 60.6345 29 60.6345 28.616C60.6345 28.248 60.7705 27.928 61.0425 27.656C61.3145 27.384 61.6345 27.248 62.0025 27.248C62.3865 27.248 62.7145 27.384 62.9865 27.656C63.2585 27.928 63.3945 28.248 63.3945 28.616C63.3945 29 63.2585 29.336 62.9865 29.624C62.7145 29.896 62.3865 30.032 62.0025 30.032ZM77.2118 41.288C75.8038 41.288 74.7158 41.144 73.9478 40.856C73.1958 40.552 72.6678 40.088 72.3638 39.464C72.0758 38.824 71.9158 38.008 71.8838 37.016L71.3798 23.768H74.2118L74.7158 35.744C74.7478 36.496 74.8198 37.064 74.9318 37.448C75.0598 37.832 75.3158 38.096 75.6998 38.24C76.0838 38.384 76.6678 38.456 77.4518 38.456C77.9638 38.456 78.3318 38.592 78.5558 38.864C78.7798 39.12 78.8918 39.44 78.8918 39.824C78.8918 40.224 78.7398 40.568 78.4358 40.856C78.1478 41.144 77.7398 41.288 77.2118 41.288ZM77.2266 41.288L77.4666 38.456C78.1066 38.456 78.6106 38.4 78.9786 38.288C79.3466 38.16 79.6346 37.928 79.8426 37.592C80.0506 37.24 80.2266 36.736 80.3706 36.08C80.5306 35.408 80.6986 34.528 80.8746 33.44L83.5386 33.896C83.4906 34.152 83.4346 34.448 83.3706 34.784C83.3066 35.12 83.2506 35.456 83.2026 35.792C83.1546 36.128 83.1306 36.432 83.1306 36.704C83.1306 37.056 83.2106 37.368 83.3706 37.64C83.5306 37.896 83.8346 38.096 84.2826 38.24C84.7466 38.384 85.4266 38.456 86.3226 38.456C86.8186 38.456 87.1706 38.592 87.3786 38.864C87.6026 39.12 87.7146 39.44 87.7146 39.824C87.7146 40.224 87.5706 40.568 87.2826 40.856C86.9946 41.144 86.5946 41.288 86.0826 41.288C84.9946 41.288 84.1226 41.192 83.4666 41C82.8266 40.792 82.3466 40.464 82.0266 40.016C81.7226 39.568 81.5226 38.968 81.4266 38.216L82.4106 38.24C82.1386 38.912 81.8266 39.456 81.4746 39.872C81.1226 40.272 80.7306 40.576 80.2986 40.784C79.8666 40.976 79.3946 41.104 78.8826 41.168C78.3706 41.248 77.8186 41.288 77.2266 41.288ZM81.4266 46.4C81.0106 46.4 80.6586 46.256 80.3706 45.968C80.0826 45.68 79.9386 45.336 79.9386 44.936C79.9386 44.52 80.0826 44.16 80.3706 43.856C80.6586 43.552 81.0106 43.4 81.4266 43.4C81.8426 43.4 82.1946 43.552 82.4826 43.856C82.7866 44.16 82.9386 44.52 82.9386 44.936C82.9386 45.336 82.7866 45.68 82.4826 45.968C82.1946 46.256 81.8426 46.4 81.4266 46.4ZM86.0859 41.288L86.3259 38.456C86.7259 38.456 87.0619 38.36 87.3339 38.168C87.6219 37.976 87.9099 37.664 88.1979 37.232C88.4859 36.784 88.8139 36.184 89.1819 35.432C89.6459 34.456 90.1259 33.696 90.6219 33.152C91.1179 32.608 91.6219 32.232 92.1339 32.024C92.6619 31.8 93.1819 31.688 93.6939 31.688C94.3339 31.688 94.9339 31.84 95.4939 32.144C96.0539 32.432 96.5339 32.824 96.9339 33.32C97.3499 33.816 97.6699 34.376 97.8939 35C98.1339 35.624 98.2539 36.256 98.2539 36.896C98.2539 37.792 98.0779 38.56 97.7259 39.2C97.3739 39.84 96.9019 40.328 96.3099 40.664C95.7179 41 95.0619 41.168 94.3419 41.168C93.7339 41.168 92.9979 41.056 92.1339 40.832C91.2699 40.608 90.3019 40.112 89.2299 39.344L90.3339 36.968C91.0859 37.464 91.7739 37.816 92.3979 38.024C93.0379 38.232 93.5659 38.336 93.9819 38.336C94.3499 38.336 94.6459 38.288 94.8699 38.192C95.1099 38.096 95.2859 37.96 95.3979 37.784C95.5099 37.592 95.5659 37.36 95.5659 37.088C95.5659 36.704 95.4699 36.32 95.2779 35.936C95.1019 35.536 94.8619 35.2 94.5579 34.928C94.2699 34.656 93.9419 34.52 93.5739 34.52C93.2539 34.52 92.9739 34.632 92.7339 34.856C92.4939 35.064 92.2459 35.392 91.9899 35.84C91.7499 36.288 91.4699 36.856 91.1499 37.544C90.7659 38.328 90.3979 38.968 90.0459 39.464C89.7099 39.96 89.3499 40.344 88.9659 40.616C88.5979 40.872 88.1739 41.048 87.6939 41.144C87.2299 41.24 86.6939 41.288 86.0859 41.288ZM118.212 41.288C117.172 41.288 116.268 41.152 115.5 40.88C114.748 40.592 114.156 40.128 113.724 39.488C113.292 38.848 113.052 37.976 113.004 36.872L112.572 27.704H115.428L115.812 35.984C115.86 36.672 115.98 37.2 116.172 37.568C116.38 37.92 116.668 38.16 117.036 38.288C117.404 38.4 117.876 38.456 118.452 38.456C118.948 38.456 119.3 38.592 119.508 38.864C119.732 39.12 119.844 39.44 119.844 39.824C119.844 40.224 119.7 40.568 119.412 40.856C119.124 41.144 118.724 41.288 118.212 41.288ZM114.108 38.912C113.084 39.168 112.1 39.288 111.156 39.272C110.212 39.256 109.364 39.096 108.612 38.792C107.86 38.488 107.26 38.056 106.812 37.496C106.38 36.92 106.164 36.2 106.164 35.336C106.164 34.552 106.348 33.832 106.716 33.176C107.084 32.52 107.588 31.944 108.228 31.448C108.884 30.936 109.644 30.512 110.508 30.176C111.372 29.824 112.308 29.568 113.316 29.408L113.652 32.288C112.916 32.32 112.26 32.416 111.684 32.576C111.108 32.736 110.62 32.952 110.22 33.224C109.82 33.48 109.508 33.76 109.284 34.064C109.076 34.368 108.972 34.688 108.972 35.024C108.972 35.328 109.076 35.576 109.284 35.768C109.508 35.96 109.796 36.112 110.148 36.224C110.5 36.336 110.892 36.4 111.324 36.416C111.772 36.432 112.212 36.416 112.644 36.368C113.092 36.304 113.516 36.2 113.916 36.056L114.108 38.912ZM118.219 41.288L118.459 38.456C119.259 38.456 119.827 38.376 120.163 38.216C120.499 38.056 120.699 37.76 120.763 37.328C120.827 36.896 120.843 36.272 120.811 35.456L120.403 23.768H123.283L123.691 35.432C123.723 36.232 123.827 36.856 124.003 37.304C124.195 37.736 124.483 38.04 124.867 38.216C125.251 38.376 125.731 38.456 126.307 38.456C126.819 38.456 127.179 38.592 127.387 38.864C127.611 39.12 127.723 39.44 127.723 39.824C127.723 40.224 127.571 40.568 127.267 40.856C126.979 41.144 126.579 41.288 126.067 41.288C125.379 41.288 124.763 41.2 124.219 41.024C123.675 40.832 123.227 40.536 122.875 40.136C122.539 39.72 122.315 39.176 122.203 38.504L123.067 38.552C122.827 39.24 122.507 39.784 122.107 40.184C121.707 40.584 121.187 40.872 120.547 41.048C119.923 41.208 119.147 41.288 118.219 41.288ZM126.07 41.288L126.31 38.456C126.726 38.456 127.046 38.368 127.27 38.192C127.51 38.016 127.742 37.72 127.966 37.304C128.19 36.888 128.486 36.328 128.854 35.624C129.254 34.856 129.662 34.216 130.078 33.704C130.494 33.192 130.91 32.792 131.326 32.504C131.742 32.2 132.15 31.984 132.55 31.856C132.95 31.728 133.334 31.664 133.702 31.664C134.278 31.664 134.806 31.784 135.286 32.024C135.766 32.264 136.222 32.68 136.654 33.272C137.102 33.848 137.534 34.64 137.95 35.648C138.27 36.432 138.582 37.024 138.886 37.424C139.19 37.824 139.502 38.096 139.822 38.24C140.158 38.384 140.51 38.456 140.878 38.456C141.374 38.456 141.726 38.592 141.934 38.864C142.158 39.12 142.27 39.44 142.27 39.824C142.27 40.224 142.126 40.568 141.838 40.856C141.55 41.144 141.15 41.288 140.638 41.288C139.902 41.288 139.238 41.168 138.646 40.928C138.054 40.688 137.574 40.328 137.206 39.848L137.782 39.32C137.622 39.72 137.398 40.096 137.11 40.448C136.822 40.784 136.47 41.056 136.054 41.264C135.654 41.488 135.182 41.6 134.638 41.6C134.19 41.6 133.694 41.512 133.15 41.336C132.606 41.16 132.062 40.88 131.518 40.496C130.974 40.112 130.478 39.624 130.03 39.032C129.694 39.656 129.334 40.136 128.95 40.472C128.582 40.792 128.166 41.008 127.702 41.12C127.254 41.232 126.71 41.288 126.07 41.288ZM131.254 36.584C131.446 36.904 131.67 37.2 131.926 37.472C132.198 37.744 132.478 37.984 132.766 38.192C133.054 38.384 133.35 38.536 133.654 38.648C133.974 38.744 134.278 38.792 134.566 38.792C134.966 38.792 135.278 38.64 135.502 38.336C135.742 38.032 135.75 37.592 135.526 37.016C135.414 36.744 135.286 36.464 135.142 36.176C134.998 35.872 134.838 35.592 134.662 35.336C134.502 35.064 134.318 34.848 134.11 34.688C133.902 34.528 133.678 34.448 133.438 34.448C133.23 34.448 133.006 34.52 132.766 34.664C132.526 34.792 132.278 35.016 132.022 35.336C131.766 35.64 131.51 36.056 131.254 36.584ZM140.648 41.288L140.888 38.456C141.736 38.456 142.576 38.4 143.408 38.288C144.24 38.176 145.048 38.016 145.832 37.808C146.616 37.6 147.368 37.336 148.088 37.016C148.808 36.696 149.488 36.32 150.128 35.888C149.68 35.568 149.176 35.296 148.616 35.072C148.072 34.832 147.48 34.656 146.84 34.544C146.2 34.416 145.52 34.352 144.8 34.352C144.544 34.352 144.288 34.36 144.032 34.376C143.776 34.392 143.512 34.424 143.24 34.472C142.984 34.504 142.712 34.552 142.424 34.616L141.992 31.88C142.44 31.752 142.904 31.656 143.384 31.592C143.88 31.528 144.328 31.496 144.728 31.496C145.576 31.496 146.352 31.592 147.056 31.784C147.76 31.976 148.408 32.216 149 32.504C149.592 32.792 150.144 33.08 150.656 33.368C151.184 33.656 151.688 33.904 152.168 34.112C152.648 34.304 153.128 34.4 153.608 34.4H154.352L154.64 37.04C153.952 37.056 153.312 37.176 152.72 37.4C152.128 37.608 151.544 37.88 150.968 38.216C150.408 38.536 149.808 38.872 149.168 39.224C148.528 39.576 147.808 39.912 147.008 40.232C146.208 40.536 145.288 40.792 144.248 41C143.208 41.192 142.008 41.288 140.648 41.288Z" fill="#143465"/>
<path d="M190.167 37.3343C190.52 37.3343 190.859 37.4748 191.109 37.7248C191.36 37.9749 191.5 38.314 191.5 38.6676V41.3343C191.5 42.3951 191.079 43.4125 190.328 44.1628C189.578 44.9129 188.561 45.3343 187.5 45.3343H171.5C170.439 45.3343 169.422 44.9129 168.672 44.1628C167.921 43.4125 167.5 42.3951 167.5 41.3343V38.6676C167.5 38.314 167.64 37.9749 167.891 37.7248C168.141 37.4748 168.48 37.3343 168.833 37.3343C169.187 37.3343 169.526 37.4748 169.776 37.7248C170.026 37.9749 170.167 38.314 170.167 38.6676V41.3343C170.167 41.6879 170.307 42.027 170.557 42.2771C170.807 42.5271 171.146 42.6676 171.5 42.6676H187.5C187.854 42.6676 188.193 42.5271 188.443 42.2771C188.693 42.027 188.833 41.6879 188.833 41.3343V38.6676C188.833 38.314 188.974 37.9749 189.224 37.7248C189.474 37.4748 189.813 37.3343 190.167 37.3343ZM179.5 20.001C179.854 20.001 180.193 20.1414 180.443 20.3914C180.693 20.6416 180.833 20.9807 180.833 21.3343V34.1143L185.224 29.7249C185.475 29.4821 185.812 29.3477 186.162 29.3507C186.511 29.3538 186.846 29.494 187.093 29.7412C187.34 29.9884 187.481 30.3229 187.484 30.6724C187.487 31.022 187.352 31.3588 187.109 31.6103L180.443 38.277C180.405 38.3149 180.365 38.3505 180.323 38.3836L180.443 38.277C180.203 38.516 179.882 38.6552 179.544 38.6663L179.5 38.6676H179.457L179.385 38.6623L179.5 38.6676C179.202 38.6676 178.912 38.5677 178.677 38.3836C178.635 38.3505 178.595 38.3149 178.557 38.277L171.891 31.6103C171.648 31.3588 171.513 31.022 171.516 30.6724C171.519 30.3229 171.66 29.9884 171.907 29.7412C172.154 29.494 172.489 29.3538 172.838 29.3507C173.188 29.3477 173.525 29.4821 173.776 29.7249L178.167 34.1143V21.3343C178.167 20.9807 178.307 20.6416 178.557 20.3914C178.807 20.1414 179.146 20.001 179.5 20.001Z" fill="#143465"/>
</svg>
