<svg width="661" height="633" viewBox="0 0 661 633" fill="none" xmlns="http://www.w3.org/2000/svg">
<path fill-rule="evenodd" clip-rule="evenodd" d="M337.101 1.48659C513.251 18.0966 617.241 134.217 634.761 314.547C651.881 490.657 494.101 621.817 317.161 621.817C140.221 621.817 -39.1193 463.617 7.48074 292.937C57.8107 108.607 161.241 -15.0934 337.101 1.48659Z" fill="#00C0A1"/>
<path fill-rule="evenodd" clip-rule="evenodd" d="M361.681 12.6565C537.831 29.2665 641.821 145.386 659.341 325.716C676.461 501.826 518.681 632.987 341.741 632.987C164.801 632.987 -14.5392 474.786 32.0608 304.106C82.3908 119.776 185.821 -3.92349 361.681 12.6565Z" fill="#143465"/>
<path d="M405.59 207.187C405.71 219.617 405.83 232.047 405.95 244.467C403.18 244.497 398.61 244.537 392.92 244.467C382.34 244.347 380.61 244.027 377.35 245.187C376.08 245.637 369.1 248.287 365.4 255.687C363.58 259.337 363.26 262.747 363.23 264.737C363.23 274.627 363.23 284.527 363.23 294.417C376.86 294.417 390.5 294.417 404.13 294.417C401.96 308.657 399.79 322.897 397.61 337.127C386.03 337.127 374.44 337.127 362.86 337.127C362.86 371.397 362.86 405.657 362.86 439.927C347.29 439.927 331.73 439.927 316.16 439.927C316.28 405.657 316.4 371.397 316.52 337.127C304.21 337.127 291.91 337.127 279.6 337.127C279.48 322.767 279.36 308.407 279.24 294.047C291.91 293.927 304.58 293.807 317.25 293.687C316.89 281.737 316.53 269.797 316.16 257.847C316.26 253.137 316.98 245.947 320.14 237.937C321.86 233.587 327.97 218.727 343.31 210.427C351.3 206.097 358.16 205.527 368.65 204.637C377.61 203.897 390.35 203.837 405.59 207.187Z" fill="white"/>
</svg>
