<svg width="220" height="74" viewBox="0 0 220 74" fill="none" xmlns="http://www.w3.org/2000/svg">
<rect x="0.916667" y="0.916667" width="218.167" height="71.5" rx="10.0833" fill="#143465"/>
<rect x="0.916667" y="0.916667" width="218.167" height="71.5" rx="10.0833" stroke="#00C0A1" stroke-width="1.83333"/>
<path d="M32.6422 35.6797L14.8309 55.0108C14.8326 55.0142 14.8326 55.0194 14.8343 55.0228C15.3813 57.1218 17.2549 58.6666 19.4799 58.6666C20.3699 58.6666 21.2046 58.4203 21.9206 57.9892L21.9775 57.955L42.0254 46.1253L32.6422 35.6797Z" fill="#EA4335"/>
<path d="M50.6607 32.388L50.6439 32.376L41.9884 27.2456L32.2372 36.1191L42.0235 46.1234L50.6322 41.0442C52.1412 40.2094 53.1666 38.5825 53.1666 36.7076C53.1666 34.8429 52.1562 33.2245 50.6607 32.388Z" fill="#FBBC04"/>
<path d="M14.8306 18.321C14.7235 18.7247 14.6667 19.149 14.6667 19.5869V53.7466C14.6667 54.1845 14.7235 54.6088 14.8323 55.0108L33.2541 36.1741L14.8306 18.321Z" fill="#4285F4"/>
<path d="M32.7737 36.6664L41.9913 27.2421L21.9668 15.3697C21.2391 14.9232 20.3893 14.6666 19.4809 14.6666C17.256 14.6666 15.379 16.2148 14.832 18.3156C14.832 18.3173 14.8303 18.319 14.8303 18.3207L32.7737 36.6664Z" fill="#34A853"/>
<path d="M79.9517 20.135C79.9517 21.9683 79.4078 23.4288 78.32 24.5166C77.0978 25.8122 75.4906 26.46 73.4983 26.46C71.5917 26.46 69.9783 25.8 68.6583 24.48C67.3383 23.16 66.6783 21.5344 66.6783 19.6033C66.6783 17.6722 67.3383 16.0466 68.6583 14.7266C69.9783 13.4066 71.5917 12.7466 73.4983 12.7466C74.4639 12.7466 75.3744 12.9177 76.23 13.26C77.0856 13.6022 77.7883 14.085 78.3383 14.7083L77.1283 15.9183C76.725 15.4294 76.1994 15.0505 75.5517 14.7816C74.9161 14.5005 74.2317 14.36 73.4983 14.36C72.0683 14.36 70.8583 14.855 69.8683 15.845C68.8906 16.8472 68.4017 18.1 68.4017 19.6033C68.4017 21.1066 68.8906 22.3594 69.8683 23.3616C70.8583 24.3516 72.0683 24.8466 73.4983 24.8466C74.8061 24.8466 75.8939 24.48 76.7617 23.7466C77.6294 23.0133 78.1306 22.005 78.265 20.7216H73.4983V19.145H79.86C79.9211 19.4872 79.9517 19.8172 79.9517 20.135ZM89.6643 13.04V14.6533H83.6877V18.815H89.0777V20.3916H83.6877V24.5533H89.6643V26.1666H82.001V13.04H89.6643ZM96.4108 14.6533V26.1666H94.7242V14.6533H91.0575V13.04H100.078V14.6533H96.4108ZM107.553 26.1666H105.867V13.04H107.553V26.1666ZM114.673 14.6533V26.1666H112.986V14.6533H109.319V13.04H118.339V14.6533H114.673ZM136.622 19.6033C136.622 21.5466 135.974 23.1722 134.679 24.48C133.371 25.8 131.77 26.46 129.875 26.46C127.969 26.46 126.367 25.8 125.072 24.48C123.776 23.1722 123.129 21.5466 123.129 19.6033C123.129 17.66 123.776 16.0344 125.072 14.7266C126.367 13.4066 127.969 12.7466 129.875 12.7466C131.782 12.7466 133.383 13.4127 134.679 14.745C135.974 16.0527 136.622 17.6722 136.622 19.6033ZM124.852 19.6033C124.852 21.1188 125.329 22.3716 126.282 23.3616C127.247 24.3516 128.445 24.8466 129.875 24.8466C131.305 24.8466 132.497 24.3516 133.45 23.3616C134.416 22.3838 134.899 21.1311 134.899 19.6033C134.899 18.0755 134.416 16.8227 133.45 15.845C132.497 14.855 131.305 14.36 129.875 14.36C128.445 14.36 127.247 14.855 126.282 15.845C125.329 16.835 124.852 18.0877 124.852 19.6033ZM140.299 26.1666H138.612V13.04H140.666L147.046 23.2516H147.119L147.046 20.7216V13.04H148.732V26.1666H146.972L140.299 15.46H140.226L140.299 17.99V26.1666Z" fill="white"/>
<path d="M171.45 57.5843H174.436V37.3966H171.45V57.5843ZM198.346 44.6684L194.923 53.4211H194.821L191.268 44.6684H188.051L193.379 56.9012L190.343 63.7064H193.456L201.667 44.6684H198.346ZM181.412 55.2912C180.432 55.2912 179.069 54.7986 179.069 53.5762C179.069 52.0194 180.767 51.4219 182.234 51.4219C183.547 51.4219 184.166 51.7077 184.963 52.0969C184.731 53.967 183.135 55.2912 181.412 55.2912ZM181.772 44.2276C179.61 44.2276 177.369 45.1884 176.444 47.3185L179.094 48.4343C179.661 47.3185 180.716 46.9535 181.823 46.9535C183.367 46.9535 184.937 47.8885 184.963 49.5518V49.7586C184.422 49.4469 183.265 48.9802 181.849 48.9802C178.992 48.9802 176.083 50.5644 176.083 53.5245C176.083 56.2262 178.426 57.9671 181.05 57.9671C183.058 57.9671 184.166 57.0579 184.86 55.992H184.963V57.5504H187.845V49.8102C187.845 46.2268 185.195 44.2276 181.772 44.2276ZM163.317 47.1263H159.07V40.2065H163.317C165.55 40.2065 166.817 42.0717 166.817 43.6656C166.817 45.2304 165.55 47.1263 163.317 47.1263ZM163.24 37.3966H156.085V57.5843H159.07V49.9362H163.24C166.55 49.9362 169.803 47.5171 169.803 43.6656C169.803 39.814 166.55 37.3966 163.24 37.3966ZM124.224 55.2944C122.161 55.2944 120.434 53.5519 120.434 51.1587C120.434 48.7396 122.161 46.9696 124.224 46.9696C126.261 46.9696 127.858 48.7396 127.858 51.1587C127.858 53.5519 126.261 55.2944 124.224 55.2944ZM127.653 45.7988H127.549C126.878 44.993 125.59 44.2647 123.966 44.2647C120.562 44.2647 117.443 47.2813 117.443 51.1587C117.443 55.0086 120.562 58.001 123.966 58.001C125.59 58.001 126.878 57.2727 127.549 56.4394H127.653V57.4293C127.653 60.0567 126.261 61.4617 124.017 61.4617C122.186 61.4617 121.052 60.1342 120.588 59.0151L117.984 60.1084C118.731 61.93 120.717 64.1666 124.017 64.1666C127.523 64.1666 130.489 62.085 130.489 57.0127V44.6797H127.653V45.7988ZM132.551 57.5843H135.542V37.3949H132.551V57.5843ZM139.95 50.9245C139.873 48.2712 141.987 46.918 143.507 46.918C144.695 46.918 145.7 47.5155 146.034 48.3746L139.95 50.9245ZM149.231 48.6346C148.665 47.1004 146.937 44.2647 143.405 44.2647C139.898 44.2647 136.986 47.0471 136.986 51.1328C136.986 54.9827 139.873 58.001 143.739 58.001C146.86 58.001 148.665 56.076 149.412 54.9569L147.092 53.3953C146.319 54.5403 145.261 55.2944 143.739 55.2944C142.219 55.2944 141.135 54.5919 140.439 53.2144L149.54 49.4146L149.231 48.6346ZM76.7252 46.3721V49.2854H83.6337C83.4272 50.9245 82.8863 52.1211 82.0622 52.9528C81.0556 53.9686 79.4825 55.0877 76.7252 55.0877C72.47 55.0877 69.1446 51.627 69.1446 47.3346C69.1446 43.0406 72.47 39.5815 76.7252 39.5815C79.02 39.5815 80.6955 40.4923 81.9325 41.6631L83.9697 39.6073C82.2414 37.9424 79.9482 36.6666 76.7252 36.6666C70.8985 36.6666 66 41.4548 66 47.3346C66 53.2144 70.8985 58.001 76.7252 58.001C79.8698 58.001 82.2414 56.9594 84.0977 55.0086C86.0069 53.0836 86.599 50.3787 86.599 48.1921C86.599 47.5155 86.5478 46.8921 86.4438 46.3721H76.7252ZM94.4549 55.2944C92.3921 55.2944 90.6125 53.5778 90.6125 51.1328C90.6125 48.6604 92.3921 46.9696 94.4549 46.9696C96.516 46.9696 98.2956 48.6604 98.2956 51.1328C98.2956 53.5778 96.516 55.2944 94.4549 55.2944ZM94.4549 44.2647C90.6894 44.2647 87.6216 47.1521 87.6216 51.1328C87.6216 55.0877 90.6894 58.001 94.4549 58.001C98.2188 58.001 101.287 55.0877 101.287 51.1328C101.287 47.1521 98.2188 44.2647 94.4549 44.2647ZM109.358 55.2944C107.296 55.2944 105.516 53.5778 105.516 51.1328C105.516 48.6604 107.296 46.9696 109.358 46.9696C111.421 46.9696 113.199 48.6604 113.199 51.1328C113.199 53.5778 111.421 55.2944 109.358 55.2944ZM109.358 44.2647C105.595 44.2647 102.527 47.1521 102.527 51.1328C102.527 55.0877 105.595 58.001 109.358 58.001C113.122 58.001 116.19 55.0877 116.19 51.1328C116.19 47.1521 113.122 44.2647 109.358 44.2647Z" fill="white"/>
</svg>
