<svg width="661" height="633" viewBox="0 0 661 633" fill="none" xmlns="http://www.w3.org/2000/svg">
<path fill-rule="evenodd" clip-rule="evenodd" d="M337.101 1.48659C513.251 18.0966 617.241 134.217 634.761 314.547C651.881 490.657 494.101 621.817 317.161 621.817C140.221 621.817 -39.1193 463.617 7.48074 292.937C57.8107 108.607 161.241 -15.0934 337.101 1.48659Z" fill="#00C0A1"/>
<path fill-rule="evenodd" clip-rule="evenodd" d="M361.681 12.6565C537.831 29.2665 641.821 145.386 659.341 325.716C676.461 501.826 518.681 632.987 341.741 632.987C164.801 632.987 -14.5392 474.786 32.0608 304.106C82.3908 119.776 185.821 -3.92349 361.681 12.6565Z" fill="#143465"/>
<path d="M393.721 206.377H291.481C255.811 206.377 226.891 235.297 226.891 270.967V373.207C226.891 408.877 255.811 437.797 291.481 437.797H393.721C429.391 437.797 458.311 408.877 458.311 373.207V270.967C458.311 235.287 429.391 206.377 393.721 206.377ZM438.281 371.327C438.281 397.417 417.131 418.567 391.041 418.567H294.511C268.421 418.567 247.271 397.417 247.271 371.327V274.797C247.271 248.707 268.421 227.557 294.511 227.557H391.051C417.141 227.557 438.291 248.707 438.291 274.797V371.327H438.281Z" fill="white"/>
<path d="M342.701 262.146C309.201 262.146 282.041 289.306 282.041 322.806C282.041 356.306 309.201 383.466 342.701 383.466C376.201 383.466 403.361 356.306 403.361 322.806C403.361 289.306 376.201 262.146 342.701 262.146ZM342.541 360.837C321.331 360.837 304.131 343.636 304.131 322.426C304.131 301.216 321.331 284.016 342.541 284.016C363.751 284.016 380.951 301.216 380.951 322.426C380.941 343.636 363.751 360.837 342.541 360.837Z" fill="white"/>
<path d="M404.401 274.347C412.244 274.347 418.601 267.99 418.601 260.147C418.601 252.305 412.244 245.947 404.401 245.947C396.559 245.947 390.201 252.305 390.201 260.147C390.201 267.99 396.559 274.347 404.401 274.347Z" fill="white"/>
</svg>
