<svg width="430" height="931" viewBox="0 0 430 931" fill="none" xmlns="http://www.w3.org/2000/svg">
<g clip-path="url(#clip0_3367_10593)">
<rect width="430" height="930.564" fill="#143465"/>
<mask id="mask0_3367_10593" style="mask-type:luminance" maskUnits="userSpaceOnUse" x="-320" y="35" width="827" height="1629">
<path d="M413.018 1663.16L-319.628 1619.94L-226.16 35.5112L506.485 78.7309C495.72 261.214 484.956 443.696 474.191 626.18C453.8 971.839 433.409 1317.5 413.018 1663.16Z" fill="white"/>
</mask>
<g mask="url(#mask0_3367_10593)">
<path opacity="0.36" d="M830.762 482.345C775.94 275.413 598.136 11.8255 368.212 15.6978C273.077 17.2971 158.733 64.9358 99.1049 163.116C29.9948 276.919 55.3983 424.047 115.432 518.287C260.033 745.397 651.872 738.613 648.192 762.879C646.903 771.646 593.083 789.034 479.786 765.548C126.533 692.262 -190.038 540.074 -190.038 540.074C-582.237 359.767 -735.506 237.813 -902.781 312.046C-993.038 352.099 -1037.99 427.33 -1050.24 448.615C-1099.47 534.1 -1088.24 1072 -679.553 1377.19C-628.022 1415.67 -546.255 1468.31 -431.417 1509.41C-430.219 1503.45 -428.977 1497.5 -427.681 1491.57C-423.182 1470.98 -417.031 1450.72 -412.989 1430.04C-414.057 1435.52 -415.124 1441 -416.192 1446.48C-413.436 1432.54 -410.541 1418.68 -407.221 1404.85C-405.004 1395.61 -402.699 1386.39 -400.335 1377.19C-391.816 1344.03 -382.53 1311.07 -373.734 1277.98C-366.338 1250.16 -359.297 1222.23 -353.351 1194.06C-348.172 1164.85 -344.487 1135.38 -343.177 1105.73C-343.013 1103.09 -342.764 1100.48 -342.434 1097.89C-383.121 1073.6 -426.098 1043.05 -468.328 1004.69C-644.119 845.088 -763.414 589.818 -708.082 539.151C-657.223 492.537 -505.389 661.064 -202.354 786.132C144.452 929.305 680.247 1022.49 826.164 808.237C891.695 712.08 857.873 584.508 830.762 482.345ZM666.961 542.58C617.64 609.441 382.529 572.512 310.842 439.253C305.309 429.045 261.082 343.799 303.238 273.826C330.654 228.356 385.035 205.475 428.573 205.231C577.409 204.27 723.086 466.565 666.961 542.58Z" fill="#102B51"/>
</g>
<path d="M703.634 281.388C715.764 295.969 758.368 349.118 763.185 425.496C764.657 450.8 761.949 474.196 754.749 496.729C722.191 600.513 599.589 688.322 404.808 882.581C404.808 882.581 286.927 996.395 164.61 1158.13L9.64936 1108.62C71.0727 999.042 151.254 891.386 229.171 807.167C401.877 620.392 565.491 555.41 545.425 505.843C523.287 451.976 305.423 469.834 141.762 554.677C20.8675 617.358 -46.3705 703.909 -63.4654 726.681C-142.909 832.397 -172.731 948.836 -180.885 1047.75L-578.445 920.74L-424.104 437.625C-397.337 425.086 -344.687 400.835 -277.405 372.966C-277.405 372.966 238.586 159.238 585.65 221.54C664.209 235.645 703.634 281.388 703.634 281.388Z" fill="#DEF700"/>
<path d="M733.935 287.984C782.086 342.671 785.982 411.281 786.7 423.63C788.172 448.934 785.463 472.33 778.263 494.863C745.705 598.647 623.104 686.456 428.322 880.715C428.322 880.715 310.441 994.53 188.125 1156.26L33.1639 1106.76C94.5872 997.177 174.769 889.52 252.685 805.302C425.391 618.526 589.005 553.545 568.94 503.979C546.801 450.112 328.937 467.97 165.278 552.814C44.3818 615.494 -22.8545 702.045 -39.9494 724.818C-119.393 830.533 -149.215 946.972 -157.369 1045.89L-554.929 918.876L-400.59 435.763C-319.718 395.214 -207.554 349.598 -48.729 298.628C-22.8962 291.494 417.627 171.904 609.165 219.678C637.181 226.665 691.98 240.334 733.935 287.984Z" fill="#EE599F"/>
</g>
<defs>
<clipPath id="clip0_3367_10593">
<rect width="430" height="930.564" fill="white"/>
</clipPath>
</defs>
</svg>
