<svg width="220" height="74" viewBox="0 0 220 74" fill="none" xmlns="http://www.w3.org/2000/svg">
<rect x="0.916667" y="0.916667" width="218.167" height="71.5" rx="10.0833" fill="#143465"/>
<rect x="0.916667" y="0.916667" width="218.167" height="71.5" rx="10.0833" stroke="#00C0A1" stroke-width="1.83333"/>
<path d="M45.2916 38.0657C45.3138 36.3792 45.7727 34.7256 46.6254 33.2588C47.4782 31.792 48.6971 30.5595 50.1688 29.6762C49.2339 28.3726 48.0005 27.2998 46.5666 26.543C45.1327 25.7862 43.5378 25.3662 41.9086 25.3165C38.4332 24.9603 35.0639 27.3468 33.2929 27.3468C31.4876 27.3468 28.7609 25.3518 25.8246 25.4108C23.9254 25.4707 22.0744 26.0099 20.4521 26.9758C18.8297 27.9418 17.4914 29.3016 16.5673 30.9226C12.5648 37.6884 15.5503 47.6317 19.3845 53.1007C21.3029 55.7786 23.5448 58.77 26.4784 58.6639C29.3491 58.5477 30.4213 56.8768 33.8865 56.8768C37.3195 56.8768 38.3254 58.6639 41.3185 58.5965C44.3989 58.5477 46.3397 55.9066 48.1908 53.2033C49.5691 51.2951 50.6297 49.1862 51.3333 46.9546C49.5437 46.2156 48.0165 44.9787 46.9421 43.398C45.8677 41.8173 45.2937 39.9628 45.2916 38.0657Z" fill="white"/>
<path d="M39.6381 21.7198C41.3177 19.7513 42.1452 17.2212 41.9448 14.6667C39.3788 14.9298 37.0085 16.1271 35.3063 18.02C34.474 18.9448 33.8366 20.0206 33.4304 21.186C33.0243 22.3514 32.8573 23.5836 32.9392 24.812C34.2227 24.8249 35.4924 24.5533 36.6528 24.0177C37.8131 23.482 38.8339 22.6964 39.6381 21.7198Z" fill="white"/>
<path d="M67.4502 16.6694H71.2449C74.5239 16.6694 76.1191 18.6191 76.1191 22.1559C76.1191 25.6928 74.5078 27.6667 71.2449 27.6667H67.4502V16.6694ZM69.2791 18.2082V26.1279H71.0435C73.2188 26.1279 74.2419 24.8146 74.2419 22.1801C74.2419 19.5295 73.2107 18.2082 71.0435 18.2082H69.2791ZM81.9038 19.0058C84.1274 19.0058 85.6824 20.4479 85.6824 22.8408V23.9445C85.6824 26.4179 84.1274 27.8117 81.9038 27.8117C79.6479 27.8117 78.1091 26.434 78.1091 23.9526V22.8488C78.1091 20.5204 79.6721 19.0058 81.9038 19.0058ZM81.9119 20.4479C80.6389 20.4479 79.9138 21.5114 79.9138 22.9374V23.8881C79.9138 25.3141 80.5906 26.3696 81.9119 26.3696C83.217 26.3696 83.8857 25.3222 83.8857 23.8881V22.9374C83.8857 21.5114 83.1848 20.4479 81.9119 20.4479ZM98.8147 19.1508L96.575 27.6667H94.7542L92.9736 21.3825H92.9253L91.177 27.6667H89.3481L87.0117 19.1508H88.9373L90.3069 25.6445H90.3875L92.1035 19.1508H93.7874L95.5518 25.6445H95.6323L97.0261 19.1508H98.8147ZM100.587 27.6667V19.1508H102.344V20.6816H102.432C102.65 20.0129 103.27 19.0219 104.994 19.0219C106.71 19.0219 107.862 19.9726 107.862 21.9142V27.6667H106.074V22.4379C106.074 21.1408 105.397 20.5446 104.39 20.5446C103.069 20.5446 102.376 21.5598 102.376 22.9374V27.6667H100.587ZM110.569 27.6667V16.0893H112.358V27.6667H110.569ZM118.497 19.0058C120.721 19.0058 122.276 20.4479 122.276 22.8408V23.9445C122.276 26.4179 120.721 27.8117 118.497 27.8117C116.241 27.8117 114.702 26.434 114.702 23.9526V22.8488C114.702 20.5204 116.265 19.0058 118.497 19.0058ZM118.505 20.4479C117.232 20.4479 116.507 21.5114 116.507 22.9374V23.8881C116.507 25.3141 117.184 26.3696 118.505 26.3696C119.81 26.3696 120.479 25.3222 120.479 23.8881V22.9374C120.479 21.5114 119.778 20.4479 118.505 20.4479ZM126.908 27.7956C125.257 27.7956 124.121 26.7805 124.121 25.1933C124.121 23.6867 125.168 22.6716 127.134 22.6716H129.285V21.874C129.285 20.8991 128.665 20.4399 127.682 20.4399C126.715 20.4399 126.28 20.8427 126.143 21.4067H124.443C124.548 19.9807 125.619 19.0219 127.738 19.0219C129.559 19.0219 131.065 19.7792 131.065 21.8981V27.6667H129.365V26.5629H129.285C128.906 27.2155 128.165 27.7956 126.908 27.7956ZM127.464 26.4099C128.479 26.4099 129.285 25.717 129.285 24.7905V23.872H127.416C126.376 23.872 125.917 24.3957 125.917 25.1047C125.917 25.9909 126.658 26.4099 127.464 26.4099ZM136.576 19.038C137.777 19.038 138.695 19.5698 139.025 20.4318H139.114V16.0893H140.903V27.6667H139.162V26.3051H139.074C138.816 27.1672 137.793 27.7795 136.552 27.7795C134.594 27.7795 133.321 26.3857 133.321 24.1379V22.6796C133.321 20.4318 134.618 19.038 136.576 19.038ZM137.076 20.5043C135.883 20.5043 135.142 21.3906 135.142 22.9374V23.872C135.142 25.4269 135.891 26.3132 137.116 26.3132C138.324 26.3132 139.114 25.435 139.114 23.9848V22.6957C139.114 21.3825 138.252 20.5043 137.076 20.5043ZM150.724 19.0058C152.947 19.0058 154.502 20.4479 154.502 22.8408V23.9445C154.502 26.4179 152.947 27.8117 150.724 27.8117C148.468 27.8117 146.929 26.434 146.929 23.9526V22.8488C146.929 20.5204 148.492 19.0058 150.724 19.0058ZM150.732 20.4479C149.459 20.4479 148.734 21.5114 148.734 22.9374V23.8881C148.734 25.3141 149.41 26.3696 150.732 26.3696C152.037 26.3696 152.706 25.3222 152.706 23.8881V22.9374C152.706 21.5114 152.005 20.4479 150.732 20.4479ZM156.806 27.6667V19.1508H158.563V20.6816H158.651C158.869 20.0129 159.489 19.0219 161.213 19.0219C162.929 19.0219 164.082 19.9726 164.082 21.9142V27.6667H162.293V22.4379C162.293 21.1408 161.616 20.5446 160.609 20.5446C159.288 20.5446 158.595 21.5598 158.595 22.9374V27.6667H156.806ZM171.002 19.2072V17.0803H172.75V19.2072H174.66V20.6091H172.75V25.1288C172.75 26.0554 173.097 26.3132 174.056 26.3132C174.297 26.3132 174.62 26.2971 174.757 26.2809V27.6506C174.612 27.6747 174.015 27.7231 173.613 27.7231C171.542 27.7231 170.978 26.9819 170.978 25.2739V20.6091H169.681V19.2072H171.002ZM176.916 27.6667V16.0893H178.696V20.6816H178.785C178.97 20.0773 179.663 19.0219 181.371 19.0219C183.031 19.0219 184.215 19.9807 184.215 21.9223V27.6667H182.435V22.446C182.435 21.1489 181.718 20.5446 180.702 20.5446C179.421 20.5446 178.696 21.5517 178.696 22.9374V27.6667H176.916ZM190.217 27.8117C187.897 27.8117 186.455 26.3857 186.455 23.9848V22.8327C186.455 20.4157 188.034 19.0058 190.113 19.0058C192.248 19.0058 193.754 20.4882 193.754 22.8327V23.8317H188.227V24.2507C188.227 25.4753 188.952 26.3776 190.209 26.3776C191.144 26.3776 191.788 25.9345 191.909 25.4028H193.657C193.553 26.3857 192.513 27.8117 190.217 27.8117ZM188.227 22.6635H192.006V22.5507C192.006 21.2697 191.257 20.4157 190.121 20.4157C188.985 20.4157 188.227 21.2697 188.227 22.5507V22.6635Z" fill="white"/>
<path d="M69.7705 54.6667H66.3545L74.0244 32.6721H77.6338L85.3037 54.6667H81.791L79.7285 48.3664H71.833L69.7705 54.6667ZM75.8452 36.2814H75.7324L72.6226 45.7883H78.939L75.8452 36.2814ZM95.3346 54.9245C93.1432 54.9245 91.4674 53.8771 90.549 52.3464H90.4362V60.4997H87.1813V37.6833H90.3395V40.1486H90.4523C91.403 38.5373 93.1432 37.4255 95.4313 37.4255C99.234 37.4255 102.006 40.342 102.006 45.4016V46.9323C102.006 51.9435 99.2824 54.9245 95.3346 54.9245ZM94.7223 52.1852C97.1071 52.1852 98.7184 50.2839 98.7184 46.7228V45.5143C98.7184 42.1144 97.2038 40.1325 94.6579 40.1325C92.0314 40.1325 90.404 42.2595 90.404 45.4982V46.7228C90.404 50.0583 92.0475 52.1852 94.7223 52.1852ZM113.358 54.9245C111.166 54.9245 109.491 53.8771 108.572 52.3464H108.459V60.4997H105.204V37.6833H108.363V40.1486H108.475C109.426 38.5373 111.166 37.4255 113.454 37.4255C117.257 37.4255 120.029 40.342 120.029 45.4016V46.9323C120.029 51.9435 117.305 54.9245 113.358 54.9245ZM112.745 52.1852C115.13 52.1852 116.742 50.2839 116.742 46.7228V45.5143C116.742 42.1144 115.227 40.1325 112.681 40.1325C110.054 40.1325 108.427 42.2595 108.427 45.4982V46.7228C108.427 50.0583 110.071 52.1852 112.745 52.1852ZM127.522 48.6242H130.793C130.986 50.6223 132.711 52.3141 135.933 52.3141C138.866 52.3141 140.671 50.9123 140.671 48.7048C140.671 46.9645 139.543 46.0139 137.142 45.4177L133.436 44.4831C130.696 43.8063 128.151 42.1306 128.151 38.6179C128.151 34.4445 131.824 32.1725 135.965 32.1725C140.026 32.1725 143.668 34.3478 143.748 38.5212H140.542C140.364 36.5554 138.85 34.9601 135.917 34.9601C133.307 34.9601 131.486 36.2009 131.486 38.3762C131.486 39.8586 132.485 40.9382 134.564 41.4377L138.237 42.3723C141.573 43.2101 144.022 44.7731 144.022 48.4308C144.022 52.7492 140.461 55.1179 135.643 55.1179C129.649 55.1179 127.603 51.5568 127.522 48.6242ZM148.494 37.6833V33.4938H151.7V37.6833H155.036V40.3259H151.7V49.736C151.7 51.6696 152.393 52.1852 154.375 52.1852C154.665 52.1852 154.923 52.1691 155.149 52.153V54.6828C154.875 54.7311 154.23 54.7956 153.57 54.7956C149.477 54.7956 148.462 53.2809 148.462 49.8972V40.3259H146.141V37.6833H148.494ZM164.777 37.3932C169.595 37.3932 172.205 40.8254 172.205 45.4177V46.8517C172.205 51.5729 169.611 54.9567 164.777 54.9567C159.927 54.9567 157.3 51.5729 157.3 46.8517V45.4338C157.3 40.8415 159.927 37.3932 164.777 37.3932ZM164.761 40.0681C162.005 40.0681 160.571 42.2595 160.571 45.4982V46.8034C160.571 50.0099 162.005 52.2497 164.761 52.2497C167.532 52.2497 168.934 50.0261 168.934 46.8034V45.4982C168.934 42.2433 167.516 40.0681 164.761 40.0681ZM175.372 54.6667V37.6833H178.627V39.8425H178.739C179.19 38.8112 180.463 37.4255 182.848 37.4255C183.267 37.4255 183.654 37.4577 183.992 37.506V40.4225C183.686 40.3581 183.09 40.3259 182.542 40.3259C179.609 40.3259 178.659 42.1306 178.659 44.4186V54.6667H175.372ZM192.702 54.9567C188.206 54.9567 185.386 51.8952 185.386 46.9484V45.1599C185.386 40.5031 188.093 37.3932 192.573 37.3932C197.069 37.3932 199.727 40.5837 199.727 45.321V46.9323H188.625V47.2868C188.625 50.3 190.204 52.3303 192.766 52.3303C194.635 52.3303 195.892 51.3957 196.376 49.881H199.518C198.954 52.6525 196.73 54.9567 192.702 54.9567ZM188.625 44.5475H196.521V44.4992C196.521 41.9694 194.958 39.9875 192.589 39.9875C190.172 39.9875 188.625 41.9855 188.625 44.4992V44.5475Z" fill="white"/>
</svg>
