<svg width="661" height="633" viewBox="0 0 661 633" fill="none" xmlns="http://www.w3.org/2000/svg">
<path fill-rule="evenodd" clip-rule="evenodd" d="M337.101 1.48659C513.251 18.0966 617.241 134.217 634.761 314.547C651.881 490.657 494.101 621.817 317.161 621.817C140.221 621.817 -39.1193 463.617 7.48074 292.937C57.8107 108.607 161.241 -15.0934 337.101 1.48659Z" fill="#00C0A1"/>
<path fill-rule="evenodd" clip-rule="evenodd" d="M361.681 12.6565C537.831 29.2665 641.821 145.386 659.341 325.716C676.461 501.826 518.681 632.987 341.741 632.987C164.801 632.987 -14.5392 474.786 32.0608 304.106C82.3908 119.776 185.821 -3.92349 361.681 12.6565Z" fill="#143465"/>
<path d="M342.392 369.46L387.456 420.696C404.136 439.67 412.49 449.163 421.233 446.842C429.962 444.535 432.965 432.052 438.956 407.074L472.177 268.518C481.42 230.043 486.035 210.819 475.777 201.325C465.519 191.831 447.741 198.893 412.184 213.001L247.246 278.512C218.807 289.813 204.587 295.456 203.683 305.159C203.577 306.147 203.577 307.145 203.683 308.133C204.559 317.849 218.751 323.535 247.163 334.919C260.02 340.076 266.456 342.661 271.071 347.596C271.59 348.152 272.09 348.726 272.572 349.319C276.825 354.601 278.632 361.551 282.26 375.396L289.058 401.347C292.574 414.83 294.34 421.586 298.968 422.503C303.597 423.42 307.614 417.833 315.662 406.643L342.392 369.46ZM342.392 369.46L337.986 364.873C332.954 359.619 330.438 357.006 330.438 353.753C330.438 350.501 332.94 347.874 337.986 342.633L387.651 290.869" stroke="white" stroke-width="20.8501" stroke-linecap="round" stroke-linejoin="round"/>
</svg>
