<svg width="661" height="633" viewBox="0 0 661 633" fill="none" xmlns="http://www.w3.org/2000/svg">
<path fill-rule="evenodd" clip-rule="evenodd" d="M337.101 1.48659C513.251 18.0966 617.241 134.217 634.761 314.547C651.881 490.657 494.101 621.817 317.161 621.817C140.221 621.817 -39.1193 463.617 7.48074 292.937C57.8107 108.607 161.241 -15.0934 337.101 1.48659Z" fill="#00C0A1"/>
<path fill-rule="evenodd" clip-rule="evenodd" d="M361.681 12.6565C537.831 29.2665 641.821 145.386 659.341 325.716C676.461 501.826 518.681 632.987 341.741 632.987C164.801 632.987 -14.5392 474.786 32.0608 304.106C82.3908 119.776 185.821 -3.92349 361.681 12.6565Z" fill="#143465"/>
<path d="M343.021 188.428C264.251 188.228 205.911 259.118 208.621 325.218C211.631 398.508 272.181 457.458 344.921 455.698C418.631 453.918 478.461 392.678 476.641 320.888C477.361 245.048 412.511 188.608 343.021 188.428ZM446.181 264.648C451.961 276.978 456.381 289.658 457.941 303.308C458.881 311.578 455.731 314.888 447.531 314.348C441.991 313.988 436.411 314.278 430.851 314.278C404.181 314.198 404.181 314.198 401.921 287.938C401.711 285.518 401.651 283.068 401.201 280.688C399.821 273.338 401.951 269.008 410.001 267.388C418.471 265.688 426.701 262.738 434.991 260.198C440.031 258.648 443.801 259.568 446.181 264.648ZM427.181 240.518C431.421 244.088 430.051 246.988 425.621 249.158C425.001 249.458 424.301 249.588 423.671 249.878C398.361 261.428 398.421 261.408 388.611 235.778C385.781 228.378 382.521 221.148 378.671 211.968C398.911 217.318 413.181 228.718 427.181 240.518ZM308.411 329.688C331.691 329.988 354.971 330.088 378.251 330.168C384.551 330.188 387.951 332.198 387.061 339.368C386.201 346.238 385.891 353.228 386.001 360.148C386.121 367.668 382.631 369.448 375.731 368.818C364.671 367.818 320.901 368.258 310.201 369.378C303.551 370.068 300.521 367.888 300.321 361.078C300.111 353.808 299.471 346.528 298.681 339.298C297.851 331.778 301.561 329.598 308.411 329.688ZM298.891 304.608C299.681 297.048 300.071 289.438 300.251 281.838C300.381 276.208 303.001 275.078 308.181 275.468C331.001 277.198 353.871 277.158 376.701 275.858C383.351 275.478 385.961 277.688 386.341 284.468C388.021 314.448 388.171 314.428 357.851 314.138C352.661 314.088 347.461 314.128 342.261 314.128C342.261 314.148 342.261 314.168 342.261 314.178C330.831 314.178 319.381 313.798 307.981 314.318C300.411 314.668 298.151 311.688 298.891 304.608ZM359.541 215.098C369.431 226.718 374.671 240.638 379.241 254.898C380.891 260.048 378.571 262.118 373.781 262.168C363.721 262.268 324.881 261.968 314.471 261.668C308.071 261.488 305.391 258.938 307.321 252.698C311.761 238.368 317.511 224.558 328.151 213.638C338.471 203.068 349.991 203.868 359.541 215.098ZM258.821 240.428C272.021 227.818 287.161 218.658 307.491 212.568C301.011 228.448 295.501 242.088 289.841 255.668C288.711 258.378 285.931 258.648 283.581 257.888C275.691 255.348 267.811 252.738 260.091 249.728C254.721 247.628 254.681 244.378 258.821 240.428ZM226.391 306.128C229.171 292.148 234.141 278.908 239.581 265.798C241.801 260.458 245.941 260.868 249.941 261.958C259.951 264.668 269.841 267.838 279.771 270.838C284.451 272.258 284.821 275.708 284.351 279.898C283.351 288.828 282.331 297.788 281.921 306.758C281.601 313.718 279.111 316.338 271.711 315.918C265.091 315.548 243.481 315.268 233.301 314.728C227.431 314.418 225.251 311.878 226.391 306.128ZM238.521 376.278C233.371 364.068 229.771 351.468 227.181 338.498C226.081 332.978 227.871 330.618 233.371 330.648C240.311 330.698 247.261 330.658 254.201 330.658C280.871 330.038 280.871 330.038 283.811 355.818C285.611 371.578 285.601 371.578 270.921 376.658C265.351 378.588 259.661 380.238 254.261 382.558C246.681 385.808 241.761 383.938 238.521 376.278ZM304.331 430.108C302.591 431.848 300.501 430.878 298.561 430.028C284.481 423.878 271.641 415.868 260.331 405.368C254.921 400.348 255.381 396.618 262.161 394.048C269.281 391.348 276.561 389.098 282.071 387.228C287.631 386.558 289.511 388.468 290.851 391.788C295.131 402.378 299.651 412.868 304.071 423.408C304.991 425.598 306.471 427.968 304.331 430.108ZM378.231 392.108C373.781 406.398 368.731 420.478 358.061 431.548C349.351 440.588 337.471 441.108 328.441 432.448C316.201 420.718 310.821 405.298 306.841 389.318C305.491 383.908 309.471 383.748 313.051 383.718C322.771 383.628 332.501 383.688 342.231 383.678C351.951 383.668 361.681 383.708 371.401 383.658C377.261 383.638 380.031 386.318 378.231 392.108ZM426.371 404.238C415.641 415.888 402.391 423.848 387.971 430.028C386.101 430.828 383.961 432.148 382.171 430.588C379.791 428.518 381.681 426.008 382.511 423.938C386.741 413.378 391.391 402.968 394.131 391.868C394.951 388.538 396.631 385.808 400.601 387.078C409.471 389.898 418.251 392.988 427.051 396.038C428.331 396.478 429.471 397.308 430.771 398.018C428.721 400.938 427.731 402.768 426.371 404.238ZM459.061 337.628C457.501 352.368 452.141 365.818 445.731 378.928C443.311 383.878 439.431 385.738 433.721 383.548C425.001 380.208 416.131 377.228 407.221 374.388C401.711 372.628 399.481 369.768 400.521 363.638C401.971 355.128 402.731 346.458 403.161 337.818C403.431 332.528 405.621 330.278 410.721 330.318C418.001 330.368 425.281 330.328 432.561 330.328C432.561 330.188 432.561 330.058 432.561 329.918C439.151 329.918 445.741 329.958 452.331 329.908C457.661 329.858 459.641 332.108 459.061 337.628Z" fill="white"/>
</svg>
