<?xml version="1.0" encoding="utf-8"?>
<!-- Generator: Adobe Illustrator 27.8.0, SVG Export Plug-In . SVG Version: 6.00 Build 0)  -->
<svg version="1.1" id="Layer_1" xmlns="http://www.w3.org/2000/svg" xmlns:xlink="http://www.w3.org/1999/xlink" x="0px" y="0px"
	 viewBox="0 0 1440 1024" style="enable-background:new 0 0 1440 1024;" xml:space="preserve">
<style type="text/css">
	.st0{fill:#00B999;}
	.st1{fill:#FFFFFF;}
</style>
<g>
	<g>
		<path class="st0" d="M834.35,602.01h-228.7c-21.27,0-38.51-17.24-38.51-38.51v-5.92c0-21.27,17.24-38.51,38.51-38.51h228.7
			c21.27,0,38.51,17.24,38.51,38.51v5.92C872.86,584.76,855.62,602.01,834.35,602.01z"/>
	</g>
	<g>
		<g>
			<path class="st1" d="M675.28,561.81l-2.79,8.5h-3.62l9.2-27.05h4.2l9.24,27.05h-3.74l-2.9-8.5H675.28z M684.16,559.08l-2.68-7.78
				c-0.59-1.77-0.99-3.38-1.39-4.93h-0.09c-0.39,1.58-0.81,3.23-1.34,4.89l-2.67,7.83H684.16z"/>
		</g>
		<g>
			<path class="st1" d="M695.22,557.23c0-2.47-0.07-4.49-0.16-6.32h3.15l0.19,3.31h0.08c1.41-2.37,3.74-3.75,6.89-3.75
				c4.7,0,8.24,3.96,8.24,9.85c0,7-4.28,10.44-8.83,10.44c-2.6,0-4.83-1.13-5.98-3.06h-0.08v10.56h-3.51V557.23z M698.73,562.42
				c0,0.5,0.05,0.98,0.15,1.44c0.63,2.47,2.77,4.14,5.28,4.14c3.74,0,5.9-3.07,5.9-7.52c0-3.87-2.03-7.2-5.77-7.2
				c-2.4,0-4.67,1.7-5.34,4.36c-0.12,0.46-0.23,0.97-0.23,1.43V562.42z"/>
		</g>
		<g>
			<path class="st1" d="M718.05,557.23c0-2.47-0.07-4.49-0.16-6.32h3.15l0.19,3.31h0.08c1.41-2.37,3.74-3.75,6.89-3.75
				c4.7,0,8.24,3.96,8.24,9.85c0,7-4.28,10.44-8.83,10.44c-2.6,0-4.83-1.13-5.98-3.06h-0.08v10.56h-3.51V557.23z M721.56,562.42
				c0,0.5,0.05,0.98,0.15,1.44c0.63,2.47,2.77,4.14,5.28,4.14c3.74,0,5.9-3.07,5.9-7.52c0-3.87-2.03-7.2-5.77-7.2
				c-2.4,0-4.67,1.7-5.34,4.36c-0.12,0.46-0.23,0.97-0.23,1.43V562.42z"/>
		</g>
		<g>
			<path class="st1" d="M773.3,545.32v5.59h5.07v2.67h-5.07v10.46c0,2.42,0.7,3.78,2.67,3.78c0.91,0,1.58-0.11,2.05-0.26l0.16,2.68
				c-0.69,0.27-1.78,0.49-3.15,0.49c-1.62,0-2.97-0.54-3.81-1.49c-0.97-1.07-1.37-2.78-1.37-5.06v-10.6h-3.01v-2.67h3.01v-5.59
				H773.3z"/>
		</g>
		<g>
			<path class="st1" d="M799.68,560.42c0,7.19-4.99,10.33-9.65,10.33c-5.26,0-9.33-3.84-9.33-10c0-6.5,4.27-10.29,9.64-10.29
				C795.92,550.47,799.68,554.51,799.68,560.42z M784.29,560.65c0,4.26,2.44,7.46,5.88,7.46c3.38,0,5.91-3.16,5.91-7.57
				c0-3.28-1.65-7.44-5.85-7.44C786.09,553.11,784.29,556.97,784.29,560.65z"/>
		</g>
		<g>
			<path class="st1" d="M807.33,554.51c0.91-2.6,3.05-3.62,5.4-3.62c0.38,0,0.66,0.02,0.98,0.1v3.32c-0.36-0.08-0.72-0.1-1.2-0.1
				c-2.49,0-4.25,1.67-4.72,4.31c-0.09,0.5-0.14,1.07-0.14,1.65v10.16h-3.51v-19.41h3.19V554.51z"/>
		</g>
		<g>
			<path class="st1" d="M818.84,561.25c0.07,4.77,3.1,6.74,6.64,6.74c2.53,0,4.07-0.45,5.38-0.99l0.63-0.29l-0.01,2.8
				c-1.23,0.56-3.39,1.24-6.48,1.24c-5.96,0-9.55-3.97-9.55-9.8c0-5.88,3.46-10.48,9.13-10.48c6.33,0,7.99,5.56,7.99,9.13
				c0,0.74-0.04,1.27-0.12,1.65H818.84z M829.17,558.71c0.04-2.22-0.91-5.71-4.87-5.71c-3.6,0-5.14,3.26-5.42,5.71H829.17z"/>
		</g>
		<g>
			<path class="st1" d="M757.47,542.81c-5.27,0-8.77,3.12-8.77,7.34c0,3.78,2.74,6.11,7.15,7.67c3.65,1.37,5.12,2.84,5.12,5.35
				c0,2.74-2.1,4.61-5.67,4.61c-2.4,0-4.68-0.78-6.24-1.75v3.42c1.56,0.73,3.85,1.25,5.99,1.25c6.41,0,9.47-3.65,9.47-7.8
				c0-3.97-2.31-6.17-6.9-7.97c-3.73-1.44-5.38-2.68-5.38-5.19c0-1.84,1.4-4.05,5.12-4.05c2.44,0,4.25,0.77,5.11,1.28v-3.32
				C761.26,543.18,759.57,542.81,757.47,542.81z"/>
		</g>
	</g>
	<g id="Logo_00000085246165291204491150000017084052172340924058_">
		<g>
			<path class="st1" d="M650.33,555.12c0-4.84,2.7-9.05,6.68-11.19c-0.18-0.3-2.52-3.98-8.14-5.52c-1.29-0.29-2.59-0.41-3.91-0.37
				c-1.27,0.04-2.5,0.3-3.71,0.67c-1.25,0.38-2.45,0.89-3.66,1.35c-0.68,0.26-1.37,0.5-2.09,0.63c-0.66,0.11-1.3,0.03-1.93-0.14
				c-0.99-0.26-1.92-0.67-2.87-1.04c-1.09-0.43-2.18-0.83-3.33-1.08c-1.16-0.25-2.32-0.29-3.5-0.17c-1.74,0.18-3.4,0.66-4.95,1.46
				c-2.09,1.07-3.81,2.57-5.19,4.46c-1.42,1.94-2.33,4.1-2.86,6.43c-0.46,2-0.62,4.02-0.53,6.07c0.26,5.93,1.96,11.44,4.92,16.59
				c0.83,1.43,1.82,2.75,2.82,4.07c0.87,1.15,1.79,2.26,2.86,3.24c0.73,0.66,1.53,1.24,2.44,1.63c0.89,0.38,1.82,0.53,2.78,0.48
				c1.28-0.06,2.46-0.46,3.62-0.95c0.86-0.36,1.72-0.74,2.62-0.99c2.66-0.74,5.27-0.59,7.82,0.5c0.81,0.35,1.62,0.73,2.47,0.98
				c1.37,0.4,2.76,0.54,4.16,0.21c1.06-0.25,2-0.75,2.86-1.41c1.06-0.81,1.95-1.77,2.77-2.81c1.61-2.05,3.11-4.18,4.27-6.52
				c0,0,1.22-2.33,1.89-4.64C653.8,565.27,650.33,560.6,650.33,555.12z"/>
		</g>
		<g>
			<path class="st1" d="M634.75,536.76c-0.21-1.71-0.08-3.41,0.39-5.05c0.45-1.59,1.2-3.05,2.22-4.36c1.02-1.31,2.26-2.38,3.69-3.21
				c1.48-0.85,3.1-1.39,4.81-1.6l0.17-0.02l0.02,0.17c0.21,1.71,0.08,3.41-0.39,5.05c-0.45,1.59-1.2,3.05-2.22,4.36
				s-2.26,2.38-3.69,3.21c-1.48,0.85-3.1,1.39-4.81,1.6l-0.17,0.02L634.75,536.76z"/>
		</g>
	</g>
</g>
<g>
</g>
<g>
</g>
<g>
</g>
<g>
</g>
<g>
</g>
<g>
</g>
</svg>
