<svg width="220" height="66" viewBox="0 0 220 66" fill="none" xmlns="http://www.w3.org/2000/svg">
<path d="M192.288 65.3208H27.7123C12.4061 65.3208 0 51.7432 0 34.9916V30.3292C0 13.5777 12.4061 0 27.7123 0H192.288C207.594 0 220 13.5777 220 30.3292V34.9916C220 51.7353 207.594 65.3208 192.288 65.3208Z" fill="#00C0A1"/>
<path d="M54.9142 40.7522C54.9142 40.3842 54.9462 39.9602 55.0102 39.4802C55.0742 39.0002 55.1862 38.4722 55.3462 37.8962C55.5222 37.3042 55.7622 36.6642 56.0662 35.9762L58.5622 36.8642C58.3862 37.3442 58.2342 37.7842 58.1062 38.1842C57.9782 38.5842 57.8822 38.9602 57.8182 39.3122C57.7702 39.6642 57.7462 40.0002 57.7462 40.3202C57.7462 41.0882 57.9382 41.7442 58.3222 42.2882C58.7062 42.8322 59.2262 43.2482 59.8822 43.5362C60.5382 43.8242 61.2742 43.9682 62.0902 43.9682C63.5302 43.9682 64.6422 43.7282 65.4262 43.2482C66.2102 42.7682 66.7542 42.0642 67.0582 41.1362C67.3622 40.1922 67.4822 39.0482 67.4182 37.7042L66.9142 23.7602H69.7702L70.1542 35.4242C70.1862 36.2242 70.3062 36.8482 70.5142 37.2962C70.7222 37.7282 71.0262 38.0322 71.4262 38.2082C71.8262 38.3682 72.3222 38.4482 72.9142 38.4482C73.4262 38.4482 73.7862 38.5842 73.9942 38.8562C74.2182 39.1122 74.3302 39.4322 74.3302 39.8162C74.3302 40.2162 74.1782 40.5602 73.8742 40.8482C73.5862 41.1362 73.1862 41.2802 72.6742 41.2802C72.2742 41.2802 71.8822 41.2242 71.4982 41.1122C71.1142 41.0002 70.7622 40.8402 70.4422 40.6322C70.1382 40.4242 69.8742 40.1602 69.6502 39.8402C69.4262 39.5202 69.2742 39.1442 69.1942 38.7122L70.2502 38.5682C70.2342 39.8962 70.0502 41.0642 69.6982 42.0722C69.3622 43.0802 68.8582 43.9282 68.1862 44.6162C67.5142 45.3042 66.6582 45.8242 65.6182 46.1762C64.5942 46.5282 63.3862 46.7042 61.9942 46.7042C61.0342 46.7042 60.1222 46.5762 59.2582 46.3202C58.4102 46.0802 57.6582 45.7042 57.0022 45.1922C56.3622 44.6962 55.8502 44.0802 55.4662 43.3442C55.0982 42.6082 54.9142 41.7442 54.9142 40.7522ZM72.6641 41.2802L72.9041 38.4482C73.6401 38.4482 74.2241 38.4002 74.6561 38.3042C75.0881 38.2082 75.3921 38.0242 75.5681 37.7522C75.7601 37.4642 75.8561 37.0562 75.8561 36.5282C75.8561 36.0962 75.7921 35.5842 75.6641 34.9922C75.5521 34.4002 75.3921 33.7762 75.1841 33.1202C74.9921 32.4642 74.7921 31.8482 74.5841 31.2722L77.3681 30.4322C77.5761 30.9602 77.7681 31.5762 77.9441 32.2802C78.1361 32.9682 78.2961 33.6722 78.4241 34.3922C78.5681 35.0962 78.6401 35.7602 78.6401 36.3842C78.6401 37.1682 78.5441 37.8402 78.3521 38.4002C78.1601 38.9602 77.8881 39.4322 77.5361 39.8162C77.2001 40.1842 76.7841 40.4802 76.2881 40.7042C75.7921 40.9122 75.2401 41.0642 74.6321 41.1602C74.0241 41.2402 73.3681 41.2802 72.6641 41.2802ZM75.4721 46.3922C75.0561 46.3922 74.7041 46.2482 74.4161 45.9602C74.1281 45.6722 73.9841 45.3282 73.9841 44.9282C73.9841 44.5122 74.1281 44.1522 74.4161 43.8482C74.7041 43.5442 75.0561 43.3922 75.4721 43.3922C75.8881 43.3922 76.2401 43.5442 76.5281 43.8482C76.8321 44.1522 76.9841 44.5122 76.9841 44.9282C76.9841 45.3282 76.8321 45.6722 76.5281 45.9602C76.2401 46.2482 75.8881 46.3922 75.4721 46.3922ZM81.8039 41.1602L81.3719 25.4402H84.2039L84.6359 41.1602H81.8039ZM84.3239 23.1122C83.8439 23.1122 83.4119 23.0322 83.0279 22.8722C82.6439 22.6962 82.2919 22.5282 81.9719 22.3682C81.6519 22.2082 81.3559 22.1282 81.0839 22.1282C80.7959 22.1282 80.5319 22.2002 80.2919 22.3442C80.0679 22.4882 79.8279 22.6882 79.5719 22.9442L78.5159 21.9842C78.9319 21.4722 79.3559 21.0882 79.7879 20.8322C80.2039 20.5602 80.6359 20.4242 81.0839 20.4242C81.4839 20.4242 81.8519 20.5042 82.1879 20.6642C82.5239 20.8242 82.8599 20.9842 83.1959 21.1442C83.5479 21.3042 83.9239 21.3842 84.3239 21.3842C84.5799 21.3842 84.8199 21.3442 85.0439 21.2642C85.2679 21.1682 85.5399 21.0242 85.8599 20.8322L86.6519 22.0082C86.0919 22.4882 85.6279 22.7922 85.2599 22.9202C84.8919 23.0482 84.5799 23.1122 84.3239 23.1122ZM92.2171 46.7042L91.2091 44.1602C92.1691 43.8402 93.0171 43.4642 93.7531 43.0322C94.4891 42.6162 95.1051 42.1522 95.6011 41.6402C96.1131 41.1442 96.4891 40.6162 96.7291 40.0562C96.9851 39.4962 97.1131 38.9122 97.1131 38.3042C97.1131 37.6002 96.9531 36.8482 96.6331 36.0482C96.3291 35.2322 95.9611 34.4322 95.5291 33.6482L98.1451 32.3762C98.4331 32.8882 98.6891 33.4242 98.9131 33.9842C99.1371 34.5442 99.3291 35.0562 99.4891 35.5202C99.6491 35.9682 99.7691 36.3202 99.8491 36.5762C100.073 37.3122 100.369 37.8082 100.737 38.0642C101.121 38.3202 101.705 38.4482 102.489 38.4482C103.001 38.4482 103.361 38.5842 103.569 38.8562C103.793 39.1122 103.905 39.4322 103.905 39.8162C103.905 40.2162 103.761 40.5602 103.473 40.8482C103.185 41.1362 102.777 41.2802 102.249 41.2802C101.577 41.2802 101.001 41.1762 100.521 40.9682C100.057 40.7442 99.6891 40.4402 99.4171 40.0562C99.1451 39.6722 98.9691 39.2482 98.8891 38.7842L99.7291 39.2402C99.6651 40.1682 99.4011 41.0322 98.9371 41.8322C98.4891 42.6482 97.8971 43.3762 97.1611 44.0162C96.4411 44.6562 95.6491 45.2002 94.7851 45.6482C93.9211 46.1122 93.0651 46.4642 92.2171 46.7042ZM117.818 41.2802C117.098 41.2802 116.434 41.2322 115.826 41.1362C115.218 41.0242 114.666 40.8402 114.17 40.5842C113.674 40.3122 113.242 39.9362 112.874 39.4562C112.506 38.9762 112.21 38.3602 111.986 37.6082L113.69 36.3362C113.946 36.8962 114.258 37.3282 114.626 37.6322C115.01 37.9362 115.474 38.1522 116.018 38.2802C116.578 38.3922 117.258 38.4482 118.058 38.4482C118.554 38.4482 118.906 38.5842 119.114 38.8562C119.338 39.1122 119.45 39.4322 119.45 39.8162C119.45 40.2162 119.306 40.5602 119.018 40.8482C118.73 41.1362 118.33 41.2802 117.818 41.2802ZM102.266 41.2802L102.506 38.4482C103.354 38.4482 104.194 38.3922 105.026 38.2802C105.858 38.1682 106.666 38.0082 107.45 37.8002C108.234 37.5922 108.986 37.3282 109.706 37.0082C110.426 36.6882 111.106 36.3122 111.746 35.8802C111.298 35.5602 110.794 35.2882 110.234 35.0642C109.69 34.8242 109.098 34.6482 108.458 34.5362C107.818 34.4082 107.138 34.3442 106.418 34.3442C106.162 34.3442 105.906 34.3522 105.65 34.3682C105.394 34.3842 105.13 34.4162 104.858 34.4642C104.602 34.4962 104.33 34.5442 104.042 34.6082L103.61 31.8722C104.058 31.7442 104.522 31.6482 105.002 31.5842C105.498 31.5202 105.946 31.4882 106.346 31.4882C107.194 31.4882 107.97 31.5842 108.674 31.7762C109.378 31.9682 110.026 32.2082 110.618 32.4962C111.21 32.7842 111.762 33.0722 112.274 33.3602C112.802 33.6482 113.306 33.8962 113.786 34.1042C114.266 34.2962 114.746 34.3922 115.226 34.3922H115.97L116.258 37.0322C115.57 37.0482 114.93 37.1682 114.338 37.3922C113.746 37.6002 113.162 37.8722 112.586 38.2082C112.026 38.5282 111.426 38.8642 110.786 39.2162C110.146 39.5682 109.426 39.9042 108.626 40.2242C107.826 40.5282 106.906 40.7842 105.866 40.9922C104.826 41.1842 103.626 41.2802 102.266 41.2802ZM108.842 46.2722C108.426 46.2722 108.074 46.1282 107.786 45.8402C107.498 45.5522 107.354 45.2082 107.354 44.8082C107.354 44.3922 107.498 44.0322 107.786 43.7282C108.074 43.4242 108.426 43.2722 108.842 43.2722C109.258 43.2722 109.61 43.4242 109.898 43.7282C110.202 44.0322 110.354 44.3922 110.354 44.8082C110.354 45.2082 110.202 45.5522 109.898 45.8402C109.61 46.1282 109.258 46.2722 108.842 46.2722ZM117.828 41.2802L118.068 38.4482C118.724 38.4482 119.268 38.3922 119.7 38.2802C120.132 38.1522 120.476 37.9202 120.732 37.5842C121.004 37.2322 121.228 36.7282 121.404 36.0722C121.596 35.4002 121.78 34.5202 121.956 33.4322L124.62 33.8882C124.572 34.1442 124.516 34.4402 124.452 34.7762C124.388 35.1122 124.332 35.4482 124.284 35.7842C124.236 36.1202 124.212 36.4242 124.212 36.6962C124.212 36.9682 124.252 37.2162 124.332 37.4402C124.412 37.6482 124.564 37.8242 124.788 37.9682C125.028 38.1122 125.372 38.2322 125.82 38.3282C126.268 38.4082 126.844 38.4482 127.548 38.4482C128.06 38.4482 128.42 38.5842 128.628 38.8562C128.852 39.1122 128.964 39.4322 128.964 39.8162C128.964 40.2162 128.82 40.5602 128.532 40.8482C128.244 41.1362 127.836 41.2802 127.308 41.2802C126.492 41.2802 125.796 41.2242 125.22 41.1122C124.644 41.0002 124.164 40.8242 123.78 40.5842C123.412 40.3442 123.124 40.0322 122.916 39.6482C122.708 39.2482 122.572 38.7682 122.508 38.2082L123.492 38.2322C123.22 38.9042 122.884 39.4482 122.484 39.8642C122.1 40.2642 121.668 40.5682 121.188 40.7762C120.708 40.9682 120.18 41.0962 119.604 41.1602C119.044 41.2402 118.452 41.2802 117.828 41.2802ZM125.052 31.1522C124.636 31.1522 124.276 31.0082 123.972 30.7202C123.684 30.4162 123.54 30.0642 123.54 29.6642C123.54 29.2642 123.684 28.9122 123.972 28.6082C124.276 28.3042 124.636 28.1522 125.052 28.1522C125.452 28.1522 125.788 28.3042 126.06 28.6082C126.348 28.9122 126.492 29.2642 126.492 29.6642C126.492 30.0642 126.348 30.4162 126.06 30.7202C125.788 31.0082 125.452 31.1522 125.052 31.1522ZM121.212 31.1282C120.796 31.1282 120.444 30.9842 120.156 30.6962C119.868 30.4082 119.724 30.0642 119.724 29.6642C119.724 29.2482 119.868 28.8962 120.156 28.6082C120.444 28.3042 120.796 28.1522 121.212 28.1522C121.612 28.1522 121.956 28.3042 122.244 28.6082C122.532 28.8962 122.676 29.2482 122.676 29.6642C122.676 30.0642 122.532 30.4082 122.244 30.6962C121.956 30.9842 121.612 31.1282 121.212 31.1282ZM127.297 41.2802L127.537 38.4482C127.937 38.4482 128.273 38.3522 128.545 38.1602C128.833 37.9682 129.121 37.6562 129.409 37.2242C129.697 36.7762 130.025 36.1762 130.393 35.4242C130.857 34.4482 131.337 33.6882 131.833 33.1442C132.329 32.6002 132.833 32.2242 133.345 32.0162C133.873 31.7922 134.393 31.6802 134.905 31.6802C135.545 31.6802 136.145 31.8322 136.705 32.1362C137.265 32.4242 137.745 32.8162 138.145 33.3122C138.561 33.8082 138.881 34.3682 139.105 34.9922C139.345 35.6162 139.465 36.2482 139.465 36.8882C139.465 37.7842 139.289 38.5522 138.937 39.1922C138.585 39.8322 138.113 40.3202 137.521 40.6562C136.929 40.9922 136.273 41.1602 135.553 41.1602C134.945 41.1602 134.209 41.0482 133.345 40.8242C132.481 40.6002 131.513 40.1042 130.441 39.3362L131.545 36.9602C132.297 37.4562 132.985 37.8082 133.609 38.0162C134.249 38.2242 134.777 38.3282 135.193 38.3282C135.561 38.3282 135.857 38.2802 136.081 38.1842C136.321 38.0882 136.497 37.9522 136.609 37.7762C136.721 37.5842 136.777 37.3522 136.777 37.0802C136.777 36.6962 136.681 36.3122 136.489 35.9282C136.313 35.5282 136.073 35.1922 135.769 34.9202C135.481 34.6482 135.153 34.5122 134.785 34.5122C134.465 34.5122 134.185 34.6242 133.945 34.8482C133.705 35.0562 133.457 35.3842 133.201 35.8322C132.961 36.2802 132.681 36.8482 132.361 37.5362C131.977 38.3202 131.609 38.9602 131.257 39.4562C130.921 39.9522 130.561 40.3362 130.177 40.6082C129.809 40.8642 129.385 41.0402 128.905 41.1362C128.441 41.2322 127.905 41.2802 127.297 41.2802Z" fill="white"/>
<path d="M172.623 33.9073C172.623 31.5035 173.964 29.4127 175.94 28.3498C175.851 28.2009 174.689 26.3732 171.898 25.6084C171.257 25.4643 170.611 25.4047 169.956 25.4246C169.325 25.4445 168.714 25.5736 168.113 25.7574C167.492 25.9461 166.897 26.1994 166.296 26.4278C165.958 26.557 165.615 26.6762 165.258 26.7407C164.93 26.7954 164.612 26.7556 164.299 26.6712C163.807 26.5421 163.345 26.3385 162.874 26.1547C162.332 25.9411 161.791 25.7425 161.22 25.6183C160.644 25.4942 160.068 25.4743 159.482 25.5339C158.617 25.6233 157.793 25.8617 157.023 26.259C155.985 26.7904 155.131 27.5354 154.446 28.474C153.74 29.4375 153.288 30.5102 153.025 31.6674C152.797 32.6607 152.717 33.6639 152.762 34.6821C152.891 37.6271 153.735 40.3637 155.205 42.9214C155.618 43.6316 156.109 44.2872 156.606 44.9427C157.038 45.5139 157.495 46.0651 158.026 46.5518C158.389 46.8796 158.786 47.1677 159.238 47.3614C159.68 47.5501 160.142 47.6246 160.619 47.5997C161.255 47.57 161.841 47.3713 162.417 47.1279C162.844 46.9491 163.271 46.7604 163.718 46.6363C165.039 46.2687 166.335 46.3432 167.602 46.8846C168.004 47.0584 168.406 47.2471 168.828 47.3713C169.509 47.5699 170.199 47.6395 170.895 47.4756C171.421 47.3514 171.888 47.1031 172.315 46.7753C172.841 46.3731 173.283 45.8962 173.691 45.3797C174.49 44.3616 175.235 43.3038 175.811 42.1416C175.811 42.1416 176.417 40.9845 176.75 39.8372C174.346 38.9482 172.623 36.6289 172.623 33.9073Z" fill="white"/>
<path d="M164.885 24.789C164.781 23.9397 164.846 23.0954 165.079 22.2809C165.302 21.4913 165.675 20.7662 166.181 20.1156C166.688 19.465 167.304 18.9336 168.014 18.5214C168.749 18.0992 169.554 17.831 170.403 17.7267L170.487 17.7168L170.497 17.8012C170.602 18.6505 170.537 19.4948 170.304 20.3093C170.08 21.0989 169.708 21.824 169.201 22.4746C168.695 23.1252 168.079 23.6566 167.368 24.0689C166.633 24.491 165.829 24.7592 164.98 24.8635L164.895 24.8734L164.885 24.789Z" fill="white"/>
</svg>
