<svg width="306" height="83" viewBox="0 0 306 83" fill="none" xmlns="http://www.w3.org/2000/svg">
<path d="M267.21 82.94H38.51C17.24 82.94 0 65.7 0 44.43V38.51C0 17.24 17.24 0 38.51 0H267.21C288.48 0 305.72 17.24 305.72 38.51V44.43C305.72 65.69 288.48 82.94 267.21 82.94Z" fill="#00B999"/>
<path d="M108.14 42.7404L105.349 51.2404H101.729L110.93 24.1904H115.13L124.37 51.2404H120.63L117.729 42.7404H108.14ZM117.019 40.0104L114.339 32.2304C113.749 30.4604 113.35 28.8504 112.95 27.3004H112.859C112.469 28.8804 112.049 30.5304 111.519 32.1904L108.849 40.0204H117.019V40.0104Z" fill="white"/>
<path d="M128.08 38.1604C128.08 35.6904 128.01 33.6704 127.92 31.8404H131.07L131.26 35.1504H131.34C132.75 32.7804 135.08 31.4004 138.23 31.4004C142.93 31.4004 146.47 35.3604 146.47 41.2504C146.47 48.2504 142.19 51.6904 137.64 51.6904C135.04 51.6904 132.81 50.5604 131.66 48.6304H131.58V59.1904H128.07V38.1604H128.08ZM131.59 43.3504C131.59 43.8504 131.64 44.3304 131.74 44.7904C132.37 47.2604 134.51 48.9304 137.02 48.9304C140.76 48.9304 142.92 45.8604 142.92 41.4104C142.92 37.5404 140.89 34.2104 137.15 34.2104C134.75 34.2104 132.48 35.9104 131.81 38.5704C131.69 39.0304 131.58 39.5404 131.58 40.0004V43.3504H131.59Z" fill="white"/>
<path d="M150.909 38.1604C150.909 35.6904 150.839 33.6704 150.749 31.8404H153.899L154.089 35.1504H154.169C155.579 32.7804 157.909 31.4004 161.059 31.4004C165.759 31.4004 169.299 35.3604 169.299 41.2504C169.299 48.2504 165.019 51.6904 160.469 51.6904C157.869 51.6904 155.639 50.5604 154.489 48.6304H154.409V59.1904H150.899V38.1604H150.909ZM154.419 43.3504C154.419 43.8504 154.469 44.3304 154.569 44.7904C155.199 47.2604 157.339 48.9304 159.849 48.9304C163.589 48.9304 165.749 45.8604 165.749 41.4104C165.749 37.5404 163.719 34.2104 159.979 34.2104C157.579 34.2104 155.309 35.9104 154.639 38.5704C154.519 39.0304 154.409 39.5404 154.409 40.0004V43.3504H154.419Z" fill="white"/>
<path d="M206.159 26.25V31.84H211.229V34.51H206.159V44.97C206.159 47.39 206.859 48.75 208.829 48.75C209.739 48.75 210.409 48.64 210.879 48.49L211.039 51.17C210.349 51.44 209.259 51.66 207.889 51.66C206.269 51.66 204.919 51.12 204.079 50.17C203.109 49.1 202.709 47.39 202.709 45.11V34.51H199.699V31.84H202.709V26.25H206.159Z" fill="white"/>
<path d="M232.54 41.3506C232.54 48.5406 227.55 51.6806 222.89 51.6806C217.63 51.6806 213.56 47.8406 213.56 41.6806C213.56 35.1806 217.83 31.3906 223.2 31.3906C228.78 31.4006 232.54 35.4406 232.54 41.3506ZM217.15 41.5806C217.15 45.8406 219.59 49.0406 223.03 49.0406C226.41 49.0406 228.94 45.8806 228.94 41.4706C228.94 38.1906 227.29 34.0306 223.09 34.0306C218.95 34.0406 217.15 37.9006 217.15 41.5806Z" fill="white"/>
<path d="M240.189 35.4403C241.099 32.8403 243.239 31.8203 245.589 31.8203C245.969 31.8203 246.249 31.8403 246.569 31.9203V35.2403C246.209 35.1603 245.849 35.1403 245.369 35.1403C242.879 35.1403 241.119 36.8103 240.649 39.4503C240.559 39.9503 240.509 40.5203 240.509 41.1003V51.2603H236.999V31.8503H240.189V35.4403Z" fill="white"/>
<path d="M251.7 42.1804C251.77 46.9504 254.8 48.9204 258.34 48.9204C260.87 48.9204 262.41 48.4704 263.72 47.9304L264.35 47.6404L264.34 50.4404C263.11 51.0004 260.95 51.6804 257.86 51.6804C251.9 51.6804 248.31 47.7104 248.31 41.8804C248.31 36.0004 251.77 31.4004 257.44 31.4004C263.77 31.4004 265.43 36.9604 265.43 40.5304C265.43 41.2704 265.39 41.8004 265.31 42.1804H251.7ZM262.03 39.6404C262.07 37.4204 261.12 33.9304 257.16 33.9304C253.56 33.9304 252.02 37.1904 251.74 39.6404H262.03Z" fill="white"/>
<path d="M190.33 23.7402C185.06 23.7402 181.56 26.8603 181.56 31.0803C181.56 34.8603 184.3 37.1902 188.71 38.7502C192.36 40.1202 193.83 41.5902 193.83 44.1002C193.83 46.8402 191.73 48.7103 188.16 48.7103C185.76 48.7103 183.48 47.9303 181.92 46.9603V50.3802C183.48 51.1102 185.77 51.6302 187.91 51.6302C194.32 51.6302 197.38 47.9803 197.38 43.8303C197.38 39.8603 195.07 37.6602 190.48 35.8602C186.75 34.4202 185.1 33.1802 185.1 30.6702C185.1 28.8302 186.5 26.6202 190.22 26.6202C192.66 26.6202 194.47 27.3902 195.33 27.9002V24.5803C194.12 24.1103 192.43 23.7402 190.33 23.7402Z" fill="white"/>
<path d="M83.1898 36.0504C83.1898 31.2104 85.8898 27.0004 89.8698 24.8604C89.6898 24.5604 87.3498 20.8804 81.7298 19.3404C80.4398 19.0504 79.1398 18.9304 77.8198 18.9704C76.5498 19.0104 75.3198 19.2704 74.1098 19.6404C72.8598 20.0204 71.6598 20.5304 70.4498 20.9904C69.7698 21.2504 69.0798 21.4904 68.3598 21.6204C67.6998 21.7304 67.0598 21.6504 66.4298 21.4804C65.4398 21.2204 64.5098 20.8104 63.5598 20.4404C62.4698 20.0104 61.3798 19.6104 60.2298 19.3604C59.0698 19.1104 57.9098 19.0704 56.7298 19.1904C54.9898 19.3704 53.3298 19.8504 51.7798 20.6504C49.6898 21.7204 47.9698 23.2204 46.5898 25.1104C45.1698 27.0504 44.2598 29.2104 43.7298 31.5404C43.2698 33.5404 43.1098 35.5604 43.1998 37.6104C43.4598 43.5404 45.1598 49.0504 48.1198 54.2004C48.9498 55.6304 49.9398 56.9504 50.9398 58.2704C51.8098 59.4204 52.7298 60.5304 53.7998 61.5104C54.5298 62.1704 55.3298 62.7504 56.2398 63.1404C57.1298 63.5204 58.0597 63.6704 59.0197 63.6204C60.2997 63.5604 61.4798 63.1604 62.6398 62.6704C63.4998 62.3104 64.3598 61.9304 65.2598 61.6804C67.9198 60.9404 70.5297 61.0904 73.0797 62.1804C73.8897 62.5304 74.6998 62.9104 75.5498 63.1604C76.9198 63.5604 78.3097 63.7004 79.7097 63.3704C80.7697 63.1204 81.7098 62.6204 82.5698 61.9604C83.6298 61.1504 84.5198 60.1904 85.3398 59.1504C86.9498 57.1004 88.4498 54.9704 89.6098 52.6304C89.6098 52.6304 90.8298 50.3004 91.4998 47.9904C86.6598 46.2004 83.1898 41.5304 83.1898 36.0504Z" fill="white"/>
<path d="M67.61 17.6902C67.4 15.9802 67.53 14.2802 68 12.6402C68.45 11.0502 69.2 9.59015 70.22 8.28015C71.24 6.97015 72.48 5.90019 73.91 5.07019C75.39 4.22019 77.01 3.68015 78.72 3.47015L78.89 3.4502L78.91 3.62018C79.12 5.33018 78.9899 7.03017 78.5199 8.67017C78.0699 10.2602 77.32 11.7202 76.3 13.0302C75.28 14.3402 74.04 15.4102 72.61 16.2402C71.13 17.0902 69.51 17.6301 67.8 17.8401L67.63 17.8602L67.61 17.6902Z" fill="white"/>
</svg>
