<svg width="1440" height="1024" viewBox="0 0 1440 1024" fill="none" xmlns="http://www.w3.org/2000/svg">
<g clip-path="url(#clip0_3138_10786)">
<rect width="1440" height="1024" fill="white"/>
<g clip-path="url(#clip1_3138_10786)">
<rect width="1440" height="1024" transform="translate(-0.251953)" fill="#143465"/>
<path opacity="0.36" d="M1657.95 286.377C1586.38 69.0753 1379.93 -200.926 1134.67 -182.325C1033.2 -174.632 914.106 -116.616 856.623 -8.12688C789.999 117.626 826.391 272.981 896.428 369.736C1065.13 602.913 1483.09 571.018 1480.69 597.136C1479.86 606.569 1423.49 628.506 1301.04 610.581C919.238 554.632 571.636 412.201 571.636 412.201C141.511 244.534 -29.8224 124.082 -203.754 213.799C-297.602 262.206 -340.856 345.291 -352.603 368.768C-399.782 463.061 -353.908 1036.18 101.687 1336.03C159.133 1373.83 249.755 1424.84 374.961 1461.46C375.865 1455.03 376.816 1448.61 377.827 1442.19C381.334 1419.95 386.625 1397.95 389.639 1375.64C388.843 1381.55 388.049 1387.46 387.253 1393.37C389.319 1378.33 391.537 1363.37 394.211 1348.4C395.996 1338.4 397.876 1328.42 399.821 1318.45C406.828 1282.54 414.667 1246.8 421.975 1210.95C428.12 1180.8 433.878 1150.56 438.452 1120.14C442.143 1088.65 444.221 1056.98 443.752 1025.27C443.761 1022.44 443.862 1019.64 444.052 1016.86C399.078 993.505 351.266 963.625 303.758 925.355C106.006 766.162 -37.4497 501.351 18.4394 443.818C69.8083 390.89 242.543 561.117 573.984 675.467C953.303 806.377 1531.26 872.072 1673.57 634.323C1737.48 527.621 1693.34 393.657 1657.95 286.377ZM1486.85 360.944C1438.4 435.373 1185.03 410.774 1100.1 273.127C1093.55 262.586 1040.95 174.43 1081.56 97.1306C1107.97 46.8983 1164.59 19.0674 1211.06 16.0672C1369.92 5.67525 1541.99 276.32 1486.85 360.944Z" fill="#102B51"/>
</g>
<g clip-path="url(#clip2_3138_10786)">
<path d="M-385.327 -104.589C-389.133 -89.0973 -391.894 -72.6788 -393.324 -55.7298C-400.749 29.4297 -377.076 127.486 -309.572 197.144C-215.229 294.076 -63.9531 306.836 44.3699 271.874C160.582 234.434 243.663 136.914 302.091 41.2204C357.715 -49.8801 396.871 -149.997 419.109 -254.297L437.911 -342.474L48.6765 -424.655C-141 -388.504 -341.662 -284.023 -385.327 -104.589ZM209.82 -262.946C262.897 -197.556 166.238 23.7745 16.7134 59.9886C5.12756 62.8852 -90.0847 84.3369 -148.152 25.1794C-185.739 -13.3733 -194.326 -72.5188 -183.485 -115.403C-160.201 -206.694 -36.1468 -270.63 68.43 -287.58C73.8766 -288.436 79.3637 -289.112 84.8204 -289.87C140.869 -296.416 189.176 -288.536 209.82 -262.946Z" fill="#EE599F"/>
</g>
<path d="M1416.49 380.879C1435.92 397.247 1504.63 457.289 1528.98 556.866C1536.89 589.887 1538.83 621.375 1534.65 652.785C1516.18 797.311 1375.21 941.997 1164.16 1244.06C1164.16 1244.06 1035.54 1421.93 912.376 1664.02L696.372 1635.27C751.537 1476.3 831.89 1315.44 914.782 1186.02C1098.49 899.026 1298.92 774.774 1260.78 714.143C1218.89 648.331 935.815 723.233 740.007 873.685C595.367 984.834 527.107 1114.81 509.933 1148.87C430.096 1306.99 418.218 1467.56 430.781 1599.91L-123.389 1526.15L-33.747 852.72C-1.40839 829.876 62.3019 785.488 144.452 732.88C144.452 732.88 774.471 329.428 1246.8 329.774C1353.72 329.855 1416.49 380.879 1416.49 380.879Z" fill="#DEF700"/>
<path d="M1458 382.435C1534.38 443.197 1555.69 532.75 1559.55 548.864C1567.45 581.884 1569.39 613.372 1565.21 644.782C1546.74 789.308 1405.78 933.994 1194.72 1236.06C1194.72 1236.06 1066.11 1413.92 942.941 1656.02L726.938 1627.27C782.103 1468.29 862.456 1307.44 945.347 1178.02C1129.06 891.023 1329.48 766.771 1291.34 706.143C1249.45 640.331 966.381 715.232 770.575 865.685C625.933 976.833 557.675 1106.81 540.501 1140.87C460.664 1298.99 448.786 1459.56 461.349 1591.91L-92.8213 1518.14L-3.1813 844.722C93.9001 772.19 231.05 685.602 428.466 580.955C460.848 565.459 1013.54 303.928 1277.37 321.776C1315.96 324.385 1391.44 329.492 1458 382.435Z" fill="#EE599F"/>
</g>
<defs>
<clipPath id="clip0_3138_10786">
<rect width="1440" height="1024" fill="white"/>
</clipPath>
<clipPath id="clip1_3138_10786">
<rect width="1440" height="1024" fill="white" transform="translate(-0.251953)"/>
</clipPath>
<clipPath id="clip2_3138_10786">
<rect width="785" height="1194" fill="white" transform="translate(-0.251953)"/>
</clipPath>
</defs>
</svg>
