<svg width="1440" height="1024" viewBox="0 0 1440 1024" fill="none" xmlns="http://www.w3.org/2000/svg">
<g clip-path="url(#clip0_3138_10786)">
<rect width="1440" height="1024" fill="white"/>
<g clip-path="url(#clip1_3138_10786)">
<rect width="1440" height="1024" transform="translate(-0.251953)" fill="#143465"/>
<path opacity="0.36" d="M1657.95 286.377C1586.38 69.0753 1379.93 -200.926 1134.67 -182.325C1033.2 -174.632 914.106 -116.616 856.623 -8.12688C789.999 117.626 826.391 272.981 896.428 369.736C1065.13 602.913 1483.09 571.018 1480.69 597.136C1479.86 606.569 1423.49 628.506 1301.04 610.581C919.238 554.632 571.636 412.201 571.636 412.201C141.511 244.534 -29.8224 124.082 -203.754 213.799C-297.602 262.206 -340.856 345.291 -352.603 368.768C-399.782 463.061 -353.908 1036.18 101.687 1336.03C159.133 1373.83 249.755 1424.84 374.961 1461.46C375.865 1455.03 376.816 1448.61 377.827 1442.19C381.334 1419.95 386.625 1397.95 389.639 1375.64C388.843 1381.55 388.049 1387.46 387.253 1393.37C389.319 1378.33 391.537 1363.37 394.211 1348.4C395.996 1338.4 397.876 1328.42 399.821 1318.45C406.828 1282.54 414.667 1246.8 421.975 1210.95C428.12 1180.8 433.878 1150.56 438.452 1120.14C442.143 1088.65 444.221 1056.98 443.752 1025.27C443.761 1022.44 443.862 1019.64 444.052 1016.86C399.078 993.505 351.266 963.625 303.758 925.355C106.006 766.162 -37.4497 501.351 18.4394 443.818C69.8083 390.89 242.543 561.117 573.984 675.467C953.303 806.377 1531.26 872.072 1673.57 634.323C1737.48 527.621 1693.34 393.657 1657.95 286.377ZM1486.85 360.944C1438.4 435.373 1185.03 410.774 1100.1 273.127C1093.55 262.586 1040.95 174.43 1081.56 97.1306C1107.97 46.8983 1164.59 19.0674 1211.06 16.0672C1369.92 5.67525 1541.99 276.32 1486.85 360.944Z" fill="#102B51"/>
</g>
<g clip-path="url(#clip2_3138_10786)">
<path d="M-385.327 -104.589C-389.133 -89.0973 -391.894 -72.6788 -393.324 -55.7298C-400.749 29.4297 -377.076 127.486 -309.572 197.144C-215.229 294.076 -63.9531 306.836 44.3699 271.874C160.582 234.434 243.663 136.914 302.091 41.2204C357.715 -49.8801 396.871 -149.997 419.109 -254.297L437.911 -342.474L48.6765 -424.655C-141 -388.504 -341.662 -284.023 -385.327 -104.589ZM209.82 -262.946C262.897 -197.556 166.238 23.7745 16.7134 59.9886C5.12756 62.8852 -90.0847 84.3369 -148.152 25.1794C-185.739 -13.3733 -194.326 -72.5188 -183.485 -115.403C-160.201 -206.694 -36.1468 -270.63 68.43 -287.58C73.8766 -288.436 79.3637 -289.112 84.8204 -289.87C140.869 -296.416 189.176 -288.536 209.82 -262.946Z" fill="#EE599F"/>
</g>
<path d="M1411.85 418.236C1430.73 438.099 1497.21 510.657 1511.43 620.299C1515.96 656.636 1514.29 690.619 1506.05 723.787C1469.01 876.498 1300.64 1014.76 1038.37 1313.35C1038.37 1313.35 879.281 1488.65 718.368 1733.44L490.27 1676.84C568.373 1513.03 673.7 1350.2 777.995 1221.37C1009.16 935.672 1238.82 826.411 1205.18 756.87C1168.13 681.328 855.774 727.829 627.936 865.726C459.634 967.601 370.955 1098.77 348.482 1133.23C244.034 1293.19 212.138 1463.88 209.808 1607.25L-375.389 1462.04L-198.931 750.906C-161.541 730.279 -87.9539 690.305 6.37941 643.72C6.37941 643.72 729.834 286.462 1236.07 343.206C1350.66 356.053 1411.85 418.236 1411.85 418.236Z" fill="#DEF700"/>
<path d="M1456.16 424.857C1530.78 499.103 1542.94 597.636 1545.15 615.368C1549.68 651.705 1548 685.689 1539.77 718.857C1502.73 871.568 1334.36 1009.83 1072.08 1308.42C1072.08 1308.42 912.999 1483.72 752.085 1728.51L523.987 1671.91C602.09 1508.1 707.417 1345.27 811.713 1216.44C1042.88 930.742 1272.54 821.48 1238.89 751.942C1201.85 676.4 889.491 722.901 661.656 860.798C493.352 962.673 404.675 1093.85 382.202 1128.3C277.754 1288.26 245.858 1458.96 243.528 1602.32L-341.669 1457.11L-165.213 745.981C-52.4976 679.822 104.845 603.38 328.939 514.772C365.498 502.027 989.132 287.662 1269.79 338.28C1310.84 345.683 1391.14 360.166 1456.16 424.857Z" fill="#EE599F"/>
</g>
<defs>
<clipPath id="clip0_3138_10786">
<rect width="1440" height="1024" fill="white"/>
</clipPath>
<clipPath id="clip1_3138_10786">
<rect width="1440" height="1024" fill="white" transform="translate(-0.251953)"/>
</clipPath>
<clipPath id="clip2_3138_10786">
<rect width="785" height="1194" fill="white" transform="translate(-0.251953)"/>
</clipPath>
</defs>
</svg>
