<svg width="1440" height="1024" viewBox="0 0 1440 1024" fill="none" xmlns="http://www.w3.org/2000/svg">
<g clip-path="url(#clip0_3138_10786)">
<rect width="1440" height="1024" fill="white"/>
<g clip-path="url(#clip1_3138_10786)">
<rect width="1440" height="1024" transform="translate(-0.251953)" fill="#143465"/>
<path opacity="0.36" d="M1657.95 286.377C1586.38 69.0753 1379.93 -200.926 1134.67 -182.325C1033.2 -174.632 914.106 -116.616 856.623 -8.12688C789.999 117.626 826.391 272.981 896.428 369.736C1065.13 602.913 1483.09 571.018 1480.69 597.136C1479.86 606.569 1423.49 628.506 1301.04 610.581C919.238 554.632 571.636 412.201 571.636 412.201C141.511 244.534 -29.8223 124.082 -203.754 213.799C-297.602 262.206 -340.856 345.291 -352.603 368.768C-399.782 463.061 -353.908 1036.18 101.687 1336.03C159.133 1373.83 249.755 1424.84 374.961 1461.46C375.865 1455.03 376.816 1448.61 377.827 1442.19C381.334 1419.95 386.625 1397.95 389.639 1375.64C388.843 1381.55 388.049 1387.46 387.253 1393.37C389.319 1378.33 391.537 1363.37 394.211 1348.4C395.996 1338.4 397.876 1328.42 399.821 1318.45C406.828 1282.54 414.667 1246.8 421.975 1210.95C428.12 1180.8 433.878 1150.56 438.452 1120.14C442.143 1088.65 444.221 1056.98 443.752 1025.27C443.761 1022.44 443.862 1019.64 444.052 1016.86C399.078 993.505 351.266 963.625 303.758 925.355C106.006 766.162 -37.4497 501.351 18.4394 443.818C69.8083 390.89 242.543 561.117 573.984 675.467C953.303 806.377 1531.26 872.071 1673.57 634.323C1737.48 527.621 1693.34 393.657 1657.95 286.377ZM1486.85 360.944C1438.4 435.373 1185.03 410.774 1100.1 273.127C1093.55 262.586 1040.95 174.43 1081.56 97.1306C1107.97 46.8983 1164.59 19.0674 1211.06 16.0672C1369.92 5.67525 1541.99 276.32 1486.85 360.944Z" fill="#102B51"/>
</g>
<g clip-path="url(#clip2_3138_10786)">
<path d="M-385.326 -104.589C-389.132 -89.0973 -391.894 -72.6788 -393.323 -55.7298C-400.749 29.4297 -377.076 127.486 -309.571 197.144C-215.228 294.076 -63.9526 306.836 44.3704 271.874C160.582 234.434 243.663 136.914 302.092 41.2204C357.715 -49.8801 396.871 -149.997 419.11 -254.297L437.911 -342.474L48.677 -424.655C-140.999 -388.504 -341.662 -284.023 -385.326 -104.589ZM209.82 -262.946C262.898 -197.556 166.239 23.7745 16.7139 59.9886C5.12806 62.8852 -90.0842 84.3369 -148.152 25.1794C-185.738 -13.3733 -194.325 -72.5188 -183.484 -115.403C-160.201 -206.694 -36.1463 -270.63 68.4305 -287.58C73.877 -288.436 79.3642 -289.112 84.8209 -289.87C140.87 -296.417 189.176 -288.536 209.82 -262.946Z" fill="#EE599F"/>
</g>
<path d="M1400.51 491.277C1419.95 507.644 1488.65 567.686 1513.01 667.264C1520.91 700.284 1522.86 731.772 1518.67 763.182C1500.21 907.709 1359.24 1052.39 1148.18 1354.46C1148.18 1354.46 1019.57 1532.32 896.404 1774.42L680.4 1745.67C735.565 1586.69 815.918 1425.84 898.809 1296.42C1082.52 1009.42 1282.95 885.171 1244.8 824.541C1202.91 758.728 919.843 833.63 724.035 984.083C579.395 1095.23 511.135 1225.21 493.961 1259.27C414.124 1417.39 402.245 1577.96 414.809 1710.31L-139.361 1636.54L-49.7192 963.117C-17.3806 940.273 46.3297 895.886 128.48 843.277C128.48 843.277 758.499 439.825 1230.83 440.171C1337.75 440.253 1400.51 491.277 1400.51 491.277Z" fill="#DEF700"/>
<path d="M1442.02 492.832C1518.41 553.595 1539.72 643.147 1543.57 659.261C1551.48 692.281 1553.42 723.769 1549.24 755.179C1530.77 899.706 1389.8 1044.39 1178.75 1346.46C1178.75 1346.46 1050.14 1524.32 926.969 1766.42L710.965 1737.66C766.13 1578.69 846.483 1417.83 929.374 1288.42C1113.08 1001.42 1313.51 877.169 1275.37 816.541C1233.48 750.728 950.408 825.63 754.603 976.082C609.96 1087.23 541.702 1217.21 524.528 1251.27C444.691 1409.39 432.813 1569.96 445.376 1702.31L-108.794 1628.54L-19.154 955.119C77.9274 882.587 215.078 795.999 412.493 691.352C444.875 675.856 997.57 414.325 1261.4 432.173C1299.99 434.782 1375.47 439.89 1442.02 492.832Z" fill="#EE599F"/>
</g>
<defs>
<clipPath id="clip0_3138_10786">
<rect width="1440" height="1024" fill="white"/>
</clipPath>
<clipPath id="clip1_3138_10786">
<rect width="1440" height="1024" fill="white" transform="translate(-0.251953)"/>
</clipPath>
<clipPath id="clip2_3138_10786">
<rect width="785" height="1194" fill="white" transform="translate(-0.251953)"/>
</clipPath>
</defs>
</svg>
