<svg width="1440" height="1024" viewBox="0 0 1440 1024" fill="none" xmlns="http://www.w3.org/2000/svg">
<g clip-path="url(#clip0_3138_10786)">
<g clip-path="url(#clip1_3138_10786)">
<rect width="1440" height="1024" transform="translate(-0.251953)" fill="#143465"/>
<path opacity="0.36" d="M1657.95 286.377C1586.38 69.0753 1379.93 -200.926 1134.67 -182.325C1033.2 -174.632 914.106 -116.616 856.623 -8.12688C789.999 117.626 826.391 272.981 896.428 369.736C1065.13 602.913 1483.09 571.018 1480.69 597.136C1479.86 606.569 1423.49 628.506 1301.04 610.581C919.238 554.632 571.636 412.201 571.636 412.201C141.511 244.534 -29.8224 124.082 -203.754 213.799C-297.602 262.206 -340.856 345.291 -352.603 368.768C-399.782 463.061 -353.908 1036.18 101.687 1336.03C159.133 1373.83 249.755 1424.84 374.961 1461.46C375.865 1455.03 376.816 1448.61 377.827 1442.19C381.334 1419.95 386.625 1397.95 389.639 1375.64C388.843 1381.55 388.049 1387.46 387.253 1393.37C389.319 1378.33 391.537 1363.37 394.211 1348.4C395.996 1338.4 397.876 1328.42 399.821 1318.45C406.828 1282.54 414.667 1246.8 421.975 1210.95C428.12 1180.8 433.878 1150.56 438.452 1120.14C442.143 1088.65 444.221 1056.98 443.752 1025.27C443.761 1022.44 443.862 1019.64 444.052 1016.86C399.078 993.505 351.266 963.625 303.758 925.355C106.006 766.162 -37.4497 501.351 18.4394 443.818C69.8083 390.89 242.543 561.117 573.984 675.467C953.303 806.377 1531.26 872.072 1673.57 634.323C1737.48 527.621 1693.34 393.657 1657.95 286.377ZM1486.85 360.944C1438.4 435.373 1185.03 410.774 1100.1 273.127C1093.55 262.586 1040.95 174.43 1081.56 97.1306C1107.97 46.8983 1164.59 19.0674 1211.06 16.0672C1369.92 5.67525 1541.99 276.32 1486.85 360.944Z" fill="#102B51"/>
</g>
<g clip-path="url(#clip2_3138_10786)">
<path d="M-385.327 -104.589C-389.133 -89.0973 -391.894 -72.6788 -393.324 -55.7298C-400.749 29.4297 -377.076 127.486 -309.572 197.144C-215.229 294.076 -63.9531 306.836 44.3699 271.874C160.582 234.434 243.663 136.914 302.091 41.2204C357.715 -49.8801 396.871 -149.997 419.109 -254.297L437.911 -342.474L48.6765 -424.655C-141 -388.504 -341.662 -284.023 -385.327 -104.589ZM209.82 -262.946C262.897 -197.556 166.238 23.7745 16.7134 59.9886C5.12756 62.8852 -90.0847 84.3369 -148.152 25.1794C-185.739 -13.3733 -194.326 -72.5188 -183.485 -115.403C-160.201 -206.694 -36.1468 -270.63 68.43 -287.58C73.8766 -288.436 79.3637 -289.112 84.8204 -289.87C140.869 -296.416 189.176 -288.536 209.82 -262.946Z" fill="#EE599F"/>
</g>
<path d="M1413.16 439.641C1432.04 459.505 1498.52 532.062 1512.74 641.704C1517.27 678.041 1515.6 712.024 1507.37 745.193C1470.32 897.903 1301.95 1036.16 1039.68 1334.75C1039.68 1334.75 880.592 1510.05 719.678 1754.85L491.58 1698.25C569.684 1534.43 675.011 1371.6 779.306 1242.78C1010.47 957.077 1240.13 847.816 1206.49 778.275C1169.44 702.733 857.085 749.234 629.247 887.131C460.945 989.006 372.266 1120.18 349.793 1154.63C245.345 1314.6 213.449 1485.29 211.119 1628.65L-374.078 1483.44L-197.62 772.312C-160.231 751.685 -86.6434 711.711 7.68996 665.125C7.68996 665.125 731.144 307.867 1237.39 364.611C1351.97 377.459 1413.16 439.641 1413.16 439.641Z" fill="#DEF700"/>
<path d="M1457.47 446.263C1532.09 520.51 1544.25 619.042 1546.46 636.775C1550.99 673.112 1549.31 707.095 1541.08 740.264C1504.04 892.974 1335.67 1031.23 1073.39 1329.82C1073.39 1329.82 914.309 1505.12 753.395 1749.92L525.298 1693.32C603.401 1529.5 708.728 1366.67 813.023 1237.85C1044.19 952.148 1273.85 842.887 1240.2 773.349C1203.16 697.806 890.802 744.307 662.966 882.205C494.662 984.079 405.985 1115.25 383.512 1149.71C279.065 1309.67 247.169 1480.36 244.839 1623.73L-340.359 1478.52L-163.903 767.387C-51.187 701.229 106.155 624.786 330.25 536.179C366.809 523.433 990.443 309.068 1271.1 359.687C1312.15 367.089 1392.45 381.572 1457.47 446.263Z" fill="#EE599F"/>
</g>
<defs>
<clipPath id="clip0_3138_10786">
<rect width="1440" height="1024" fill="white"/>
</clipPath>
<clipPath id="clip1_3138_10786">
<rect width="1440" height="1024" fill="white" transform="translate(-0.251953)"/>
</clipPath>
<clipPath id="clip2_3138_10786">
<rect width="785" height="1194" fill="white" transform="translate(-0.251953)"/>
</clipPath>
</defs>
</svg>
