<svg width="661" height="633" viewBox="0 0 661 633" fill="none" xmlns="http://www.w3.org/2000/svg">
<path fill-rule="evenodd" clip-rule="evenodd" d="M337.101 1.48659C513.251 18.0966 617.241 134.217 634.761 314.547C651.881 490.657 494.101 621.817 317.161 621.817C140.221 621.817 -39.1193 463.617 7.48074 292.937C57.8107 108.607 161.241 -15.0934 337.101 1.48659Z" fill="#00C0A1"/>
<path fill-rule="evenodd" clip-rule="evenodd" d="M361.681 12.6565C537.831 29.2665 641.821 145.386 659.341 325.716C676.461 501.826 518.681 632.987 341.741 632.987C164.801 632.987 -14.5392 474.786 32.0608 304.106C82.3908 119.776 185.821 -3.92349 361.681 12.6565Z" fill="#143465"/>
<path d="M453.867 370.552C457.963 370.552 461.891 372.179 464.787 375.075C467.684 377.972 469.311 381.9 469.311 385.996V416.885C469.311 429.173 464.429 440.958 455.74 449.648C447.051 458.337 435.266 463.218 422.978 463.218H237.644C225.356 463.218 213.571 458.337 204.882 449.648C196.193 440.958 191.311 429.173 191.311 416.885V385.996C191.311 381.9 192.938 377.972 195.835 375.075C198.731 372.179 202.659 370.552 206.755 370.552C210.852 370.552 214.78 372.179 217.676 375.075C220.573 377.972 222.2 381.9 222.2 385.996V416.885C222.2 420.981 223.827 424.909 226.723 427.806C229.62 430.702 233.548 432.329 237.644 432.329H422.978C427.074 432.329 431.002 430.702 433.899 427.806C436.795 424.909 438.422 420.981 438.422 416.885V385.996C438.422 381.9 440.049 377.972 442.946 375.075C445.842 372.179 449.77 370.552 453.867 370.552ZM330.311 169.774C334.407 169.774 338.335 171.401 341.232 174.297C344.128 177.194 345.755 181.122 345.755 185.218V333.253L396.614 282.41C399.527 279.597 403.428 278.04 407.478 278.075C411.527 278.111 415.401 279.735 418.264 282.598C421.128 285.462 422.752 289.336 422.787 293.385C422.823 297.434 421.266 301.336 418.452 304.249L341.23 381.471C340.792 381.91 340.328 382.323 339.84 382.706L341.23 381.471C338.458 384.24 334.737 385.852 330.821 385.981L330.311 385.996H329.817L328.983 385.934L330.311 385.996C326.856 385.996 323.501 384.838 320.782 382.706C320.294 382.323 319.83 381.91 319.392 381.471L242.17 304.249C239.356 301.336 237.8 297.434 237.835 293.385C237.87 289.336 239.494 285.462 242.358 282.598C245.221 279.735 249.095 278.111 253.144 278.075C257.194 278.04 261.095 279.597 264.008 282.41L314.867 333.253V185.218C314.867 181.122 316.494 177.194 319.39 174.297C322.287 171.401 326.215 169.774 330.311 169.774Z" fill="white"/>
</svg>
