<svg width="306" height="84" viewBox="0 0 306 84" fill="none" xmlns="http://www.w3.org/2000/svg">
<path d="M267.16 83.23L38.4601 82.94C17.1901 82.91 -0.0299609 65.65 3.91391e-05 44.38L0.0100489 38.46C0.0400489 17.19 17.3 -0.0299609 38.57 3.91392e-05L267.27 0.290017C288.54 0.320017 305.76 17.58 305.73 38.85L305.72 44.77C305.7 66.04 288.43 83.26 267.16 83.23Z" fill="#143465"/>
<path d="M113.71 38.2098L124.36 38.2198C124.35 43.8298 121.54 50.7298 113.06 50.7198C104.77 50.7098 101.72 43.8698 101.73 38.5698C101.74 31.9498 105.94 26.2498 113.31 26.2598C117.03 26.2598 120.08 27.9998 122.44 31.0598L119.98 33.0698C117.9 30.4498 115.57 29.3798 113.15 29.3698C109.27 29.3698 105.36 32.2898 105.35 38.3698C105.34 44.1998 108.961 47.6998 112.931 47.7098C115.861 47.7098 119.33 46.7698 120.63 41.3198L113.7 41.3098L113.71 38.2098Z" fill="white"/>
<path d="M177.431 49.4502C177.421 53.7402 175.621 56.9502 169.131 56.9402C165.471 56.9402 163.141 55.8502 162.111 53.4902L165.041 52.4502C165.861 53.7002 166.991 54.3202 169.451 54.3202C171.911 54.3202 174.051 53.1802 174.061 49.7102V48.0502C172.261 49.7802 170.591 50.1802 168.611 50.1802C164.701 50.1702 161.551 47.6502 161.561 42.3702C161.571 36.5702 164.971 34.4502 168.311 34.4502C170.891 34.4502 172.561 34.7602 174.291 36.6602V34.9202H177.441L177.431 49.4502ZM174.041 42.3502C174.041 38.9802 171.841 37.4302 169.381 37.4302C166.391 37.4302 164.871 39.4202 164.871 42.2702C164.871 45.4102 166.501 47.1902 169.311 47.1902C172.461 47.2002 174.041 45.0702 174.041 42.3502Z" fill="white"/>
<path d="M179.66 50.2096L179.69 26.3496H183.09L183.06 50.2096H179.66Z" fill="white"/>
<path d="M192.111 50.2195C190.381 50.2195 188.83 49.6295 187.63 48.5195C186.43 47.4095 185.611 45.8095 185.241 43.8895C184.791 41.4995 185.061 39.3595 186.041 37.7195C187.011 36.0795 188.62 35.0095 190.69 34.6195C191.18 34.5295 191.67 34.4795 192.13 34.4795C194 34.4795 195.591 35.2395 196.861 36.7195C197.921 37.9495 198.711 39.6595 199.161 41.6595L199.201 41.8495L188.671 43.8395C189.201 46.2695 190.381 47.4495 192.301 47.4495C192.631 47.4495 192.981 47.4195 193.341 47.3495C194.801 47.0695 195.611 46.1695 196.451 44.8095L196.541 44.6595L199.19 45.9695L199.101 46.1395C197.961 48.3095 196.191 49.5995 193.701 50.0695C193.161 50.1695 192.621 50.2195 192.111 50.2195ZM191.88 37.0595C191.66 37.0595 191.441 37.0795 191.221 37.1195C190.151 37.3195 189.301 37.8595 188.771 38.6795C188.261 39.4595 188.081 40.4395 188.241 41.5195L195.411 40.1595C194.991 38.3295 193.56 37.0695 191.88 37.0595Z" fill="white"/>
<path d="M209.141 50.2795L209.171 27.0195L217.891 27.0295C222.871 27.0395 225.421 30.4696 225.411 33.6296C225.401 38.5796 222.151 40.8096 217.711 40.8096L212.871 40.7996L212.861 50.2896L209.141 50.2795ZM217.341 37.7095C220.181 37.7095 221.751 36.6395 221.761 33.9695C221.761 31.0095 219.941 30.1196 217.351 30.1196L212.881 30.1096L212.871 37.6995L217.341 37.7095Z" fill="white"/>
<path d="M227.74 50.2701L227.77 26.4102H231.17L231.14 50.2701H227.74Z" fill="white"/>
<path d="M246.85 50.2898H243.93V48.7898C243.07 49.4298 241.89 50.2898 239.16 50.2898C235.86 50.2898 233.9 48.3298 233.9 45.0698C233.9 42.5698 235.53 40.0398 239.15 40.0498C241.47 40.0498 242.69 40.5998 243.58 41.2498V40.0298C243.58 38.9298 243.19 37.4798 239.75 37.4698C238.21 37.4698 237.13 37.8298 236 38.2198L235.6 38.3598L235.04 35.5298L235.18 35.4698C236.71 34.8498 238.29 34.5498 239.99 34.5498C244.69 34.5598 246.87 36.4998 246.86 40.6598L246.85 46.4198V50.2898ZM240.32 42.5898C237.51 42.5898 237.09 44.1998 237.09 45.1698C237.09 46.7498 238.17 47.6198 240.14 47.6198C243.29 47.6198 243.63 45.9298 243.63 45.1998C243.62 43.9998 242.76 42.5998 240.32 42.5898Z" fill="white"/>
<path d="M253.5 47.05L247.79 34.54H251.48L255.43 43.7L259.6 34.55H263.35L252.31 56.8101H248.56L253.5 47.05Z" fill="white"/>
<path d="M133.83 37.4895C136.63 37.4895 138.91 39.7794 138.91 42.5794C138.91 45.3794 136.62 47.6594 133.82 47.6594C131.02 47.6594 128.74 45.3694 128.74 42.5694C128.75 39.7694 131.03 37.4895 133.83 37.4895ZM133.83 34.3994C129.32 34.3894 125.65 38.0495 125.65 42.5595C125.64 47.0695 129.3 50.7395 133.81 50.7395C138.32 50.7495 141.99 47.0894 141.99 42.5794C142 38.0694 138.35 34.4094 133.83 34.3994Z" fill="white"/>
<path d="M151.96 37.5197C154.76 37.5197 157.04 39.8097 157.04 42.6097C157.04 45.4097 154.75 47.6897 151.95 47.6897C149.15 47.6897 146.87 45.3997 146.87 42.5997C146.88 39.7897 149.16 37.5097 151.96 37.5197ZM151.97 34.4297C147.46 34.4197 143.79 38.0797 143.79 42.5897C143.78 47.0997 147.44 50.7697 151.95 50.7697C156.46 50.7797 160.13 47.1197 160.13 42.6097C160.13 38.0997 156.48 34.4297 151.97 34.4297Z" fill="white"/>
<path d="M43.2101 18.3994L43.1802 41.4794L43.1602 64.9894L66.4802 41.7294L43.2101 18.3994Z" fill="white"/>
<path d="M76.03 32.1996L67.6899 27.3696L46.6 15.1596C45.69 14.6296 44.64 14.8296 43.96 15.4396L68.33 39.8696L76.03 32.1996Z" fill="white"/>
<path d="M87.2405 38.6896L78.3804 33.5596L70.1904 41.7296L78.0804 49.6495L87.2305 44.3796C89.4205 43.1196 89.4305 39.9596 87.2405 38.6896Z" fill="white"/>
<path d="M44.1406 67.7101C44.8106 68.1701 45.7306 68.2701 46.5406 67.8101L67.6606 55.6501L75.7307 51.0001L68.3306 43.5801L44.1406 67.7101Z" fill="white"/>
</svg>
