<svg width="220" height="66" viewBox="0 0 220 66" fill="none" xmlns="http://www.w3.org/2000/svg">
<path d="M192.245 65.3361L27.6754 65.1084C12.3698 65.0849 -0.0215595 51.5357 2.8164e-05 34.8386L0.00723108 30.1913C0.0288187 13.4943 12.4489 -0.0235195 27.7546 3.07245e-05L192.325 0.227665C207.63 0.251215 220.022 13.8004 220 30.4975L219.993 35.1447C219.978 51.8418 207.551 65.3596 192.245 65.3361Z" fill="#143465"/>
<path d="M36.672 40.76C36.672 40.392 36.704 39.968 36.768 39.488C36.832 39.008 36.944 38.48 37.104 37.904C37.28 37.312 37.52 36.672 37.824 35.984L40.32 36.872C40.144 37.352 39.992 37.792 39.864 38.192C39.736 38.592 39.64 38.968 39.576 39.32C39.528 39.672 39.504 40.008 39.504 40.328C39.504 41.096 39.696 41.752 40.08 42.296C40.464 42.84 40.984 43.256 41.64 43.544C42.296 43.832 43.032 43.976 43.848 43.976C45.288 43.976 46.4 43.736 47.184 43.256C47.968 42.776 48.512 42.072 48.816 41.144C49.12 40.2 49.24 39.056 49.176 37.712L48.672 23.768H51.528L51.912 35.432C51.944 36.232 52.064 36.856 52.272 37.304C52.48 37.736 52.784 38.04 53.184 38.216C53.584 38.376 54.08 38.456 54.672 38.456C55.184 38.456 55.544 38.592 55.752 38.864C55.976 39.12 56.088 39.44 56.088 39.824C56.088 40.224 55.936 40.568 55.632 40.856C55.344 41.144 54.944 41.288 54.432 41.288C54.032 41.288 53.64 41.232 53.256 41.12C52.872 41.008 52.52 40.848 52.2 40.64C51.896 40.432 51.632 40.168 51.408 39.848C51.184 39.528 51.032 39.152 50.952 38.72L52.008 38.576C51.992 39.904 51.808 41.072 51.456 42.08C51.12 43.088 50.616 43.936 49.944 44.624C49.272 45.312 48.416 45.832 47.376 46.184C46.352 46.536 45.144 46.712 43.752 46.712C42.792 46.712 41.88 46.584 41.016 46.328C40.168 46.088 39.416 45.712 38.76 45.2C38.12 44.704 37.608 44.088 37.224 43.352C36.856 42.616 36.672 41.752 36.672 40.76ZM54.4219 41.288L54.6619 38.456C55.5099 38.456 56.1659 38.448 56.6299 38.432C57.0939 38.416 57.4379 38.4 57.6619 38.384C57.8859 38.352 58.0619 38.328 58.1899 38.312C57.9819 38.152 57.7259 37.912 57.4219 37.592C57.1179 37.272 56.8459 36.864 56.6059 36.368C56.3819 35.872 56.2699 35.272 56.2699 34.568C56.2699 33.624 56.5019 32.792 56.9659 32.072C57.4459 31.352 58.0939 30.792 58.9099 30.392C59.7259 29.976 60.6539 29.768 61.6939 29.768C62.1419 29.768 62.5819 29.8 63.0139 29.864C63.4459 29.928 63.8779 30.024 64.3099 30.152L63.8299 32.84C63.5099 32.76 63.1739 32.696 62.8219 32.648C62.4699 32.6 62.1499 32.576 61.8619 32.576C61.3179 32.576 60.8379 32.672 60.4219 32.864C60.0059 33.056 59.6859 33.32 59.4619 33.656C59.2379 33.976 59.1259 34.368 59.1259 34.832C59.1259 35.152 59.1899 35.456 59.3179 35.744C59.4459 36.016 59.6139 36.264 59.8219 36.488C60.0299 36.712 60.2539 36.904 60.4939 37.064C60.7499 37.208 60.9979 37.328 61.2379 37.424C61.4939 37.52 61.7099 37.576 61.8859 37.592C62.2219 37.496 62.5099 37.416 62.7499 37.352C62.9899 37.272 63.2299 37.192 63.4699 37.112C63.7259 37.016 64.0139 36.904 64.3339 36.776C64.6539 36.632 65.0619 36.456 65.5579 36.248L66.4699 38.888C65.2379 39.464 64.0139 39.928 62.7979 40.28C61.5819 40.632 60.2939 40.888 58.9339 41.048C57.5899 41.208 56.0859 41.288 54.4219 41.288ZM60.9259 27.464C60.4939 27.464 60.1259 27.32 59.8219 27.032C59.5179 26.728 59.3659 26.36 59.3659 25.928C59.3659 25.496 59.5179 25.128 59.8219 24.824C60.1259 24.504 60.4939 24.344 60.9259 24.344C61.3419 24.344 61.7019 24.504 62.0059 24.824C62.3099 25.128 62.4619 25.496 62.4619 25.928C62.4619 26.36 62.3099 26.728 62.0059 27.032C61.7019 27.32 61.3419 27.464 60.9259 27.464ZM68.6805 46.688L68.1045 43.856C69.1605 43.712 70.1045 43.536 70.9365 43.328C71.7685 43.12 72.4725 42.824 73.0485 42.44C73.6405 42.056 74.0805 41.544 74.3685 40.904C74.6725 40.248 74.8245 39.416 74.8245 38.408C74.8245 37.416 74.6565 36.608 74.3205 35.984C74.0005 35.36 73.5685 35.048 73.0245 35.048C72.6885 35.048 72.3925 35.168 72.1365 35.408C71.8965 35.648 71.7125 35.952 71.5845 36.32C71.4565 36.672 71.3925 37.016 71.3925 37.352C71.3925 37.56 71.4405 37.752 71.5365 37.928C71.6325 38.088 71.8085 38.224 72.0645 38.336C72.3365 38.432 72.7205 38.496 73.2165 38.528C73.7285 38.56 74.4005 38.536 75.2325 38.456H79.6485C80.1445 38.456 80.5045 38.592 80.7285 38.864C80.9525 39.12 81.0645 39.44 81.0645 39.824C81.0645 40.224 80.9125 40.568 80.6085 40.856C80.3205 41.144 79.9205 41.288 79.4085 41.288H73.1205C72.2245 41.288 71.4325 41.176 70.7445 40.952C70.0725 40.728 69.5445 40.368 69.1605 39.872C68.7765 39.36 68.5845 38.688 68.5845 37.856C68.5845 37.152 68.7045 36.464 68.9445 35.792C69.1845 35.104 69.5045 34.48 69.9045 33.92C70.3205 33.36 70.8085 32.92 71.3685 32.6C71.9285 32.264 72.5365 32.096 73.1925 32.096C74.0725 32.096 74.8405 32.36 75.4965 32.888C76.1685 33.416 76.6965 34.152 77.0805 35.096C77.4645 36.024 77.6565 37.104 77.6565 38.336C77.6565 40.016 77.3045 41.448 76.6005 42.632C75.8965 43.832 74.8725 44.768 73.5285 45.44C72.1845 46.128 70.5685 46.544 68.6805 46.688ZM79.4062 41.288L79.6463 38.456C80.4943 38.456 81.1503 38.448 81.6143 38.432C82.0783 38.416 82.4223 38.4 82.6463 38.384C82.8703 38.352 83.0463 38.328 83.1743 38.312C82.9663 38.152 82.7103 37.912 82.4062 37.592C82.1023 37.272 81.8303 36.864 81.5903 36.368C81.3663 35.872 81.2543 35.272 81.2543 34.568C81.2543 33.624 81.4863 32.792 81.9503 32.072C82.4303 31.352 83.0783 30.792 83.8943 30.392C84.7103 29.976 85.6383 29.768 86.6783 29.768C87.1263 29.768 87.5663 29.8 87.9983 29.864C88.4303 29.928 88.8623 30.024 89.2943 30.152L88.8143 32.84C88.4943 32.76 88.1583 32.696 87.8063 32.648C87.4543 32.6 87.1343 32.576 86.8463 32.576C86.3023 32.576 85.8223 32.672 85.4062 32.864C84.9903 33.056 84.6703 33.32 84.4463 33.656C84.2223 33.976 84.1103 34.368 84.1103 34.832C84.1103 35.152 84.1743 35.456 84.3023 35.744C84.4303 36.016 84.5983 36.264 84.8063 36.488C85.0143 36.712 85.2383 36.904 85.4783 37.064C85.7343 37.208 85.9823 37.328 86.2223 37.424C86.4783 37.52 86.6943 37.576 86.8703 37.592C87.2063 37.496 87.4943 37.416 87.7343 37.352C87.9743 37.272 88.2143 37.192 88.4543 37.112C88.7103 37.016 88.9983 36.904 89.3183 36.776C89.6383 36.632 90.0463 36.456 90.5423 36.248L91.4543 38.888C90.2223 39.464 88.9983 39.928 87.7823 40.28C86.5663 40.632 85.2783 40.888 83.9183 41.048C82.5743 41.208 81.0703 41.288 79.4062 41.288ZM85.9103 27.464C85.4783 27.464 85.1103 27.32 84.8063 27.032C84.5023 26.728 84.3503 26.36 84.3503 25.928C84.3503 25.496 84.5023 25.128 84.8063 24.824C85.1103 24.504 85.4783 24.344 85.9103 24.344C86.3263 24.344 86.6863 24.504 86.9903 24.824C87.2943 25.128 87.4463 25.496 87.4463 25.928C87.4463 26.36 87.2943 26.728 86.9903 27.032C86.6863 27.32 86.3263 27.464 85.9103 27.464ZM98.514 46.712L97.506 44.168C98.466 43.848 99.314 43.472 100.05 43.04C100.786 42.624 101.402 42.16 101.898 41.648C102.41 41.152 102.786 40.624 103.026 40.064C103.282 39.504 103.41 38.92 103.41 38.312C103.41 37.608 103.25 36.856 102.93 36.056C102.626 35.24 102.258 34.44 101.826 33.656L104.442 32.384C104.73 32.896 104.986 33.432 105.21 33.992C105.434 34.552 105.626 35.064 105.786 35.528C105.946 35.976 106.066 36.328 106.146 36.584C106.37 37.32 106.666 37.816 107.034 38.072C107.418 38.328 108.002 38.456 108.786 38.456C109.298 38.456 109.658 38.592 109.866 38.864C110.09 39.12 110.202 39.44 110.202 39.824C110.202 40.224 110.058 40.568 109.77 40.856C109.482 41.144 109.074 41.288 108.546 41.288C107.874 41.288 107.298 41.184 106.818 40.976C106.354 40.752 105.986 40.448 105.714 40.064C105.442 39.68 105.266 39.256 105.186 38.792L106.026 39.248C105.962 40.176 105.698 41.04 105.234 41.84C104.786 42.656 104.194 43.384 103.458 44.024C102.738 44.664 101.946 45.208 101.082 45.656C100.218 46.12 99.362 46.472 98.514 46.712ZM124.115 41.288C123.395 41.288 122.731 41.24 122.122 41.144C121.515 41.032 120.963 40.848 120.467 40.592C119.971 40.32 119.539 39.944 119.171 39.464C118.803 38.984 118.507 38.368 118.283 37.616L119.987 36.344C120.243 36.904 120.555 37.336 120.923 37.64C121.307 37.944 121.771 38.16 122.315 38.288C122.875 38.4 123.555 38.456 124.355 38.456C124.851 38.456 125.203 38.592 125.411 38.864C125.635 39.12 125.747 39.44 125.747 39.824C125.747 40.224 125.603 40.568 125.315 40.856C125.027 41.144 124.627 41.288 124.115 41.288ZM108.562 41.288L108.803 38.456C109.651 38.456 110.491 38.4 111.323 38.288C112.155 38.176 112.963 38.016 113.747 37.808C114.531 37.6 115.283 37.336 116.003 37.016C116.723 36.696 117.403 36.32 118.043 35.888C117.595 35.568 117.091 35.296 116.531 35.072C115.987 34.832 115.395 34.656 114.755 34.544C114.115 34.416 113.435 34.352 112.715 34.352C112.459 34.352 112.203 34.36 111.947 34.376C111.691 34.392 111.427 34.424 111.155 34.472C110.899 34.504 110.627 34.552 110.339 34.616L109.907 31.88C110.355 31.752 110.819 31.656 111.299 31.592C111.795 31.528 112.243 31.496 112.643 31.496C113.491 31.496 114.267 31.592 114.971 31.784C115.675 31.976 116.323 32.216 116.915 32.504C117.507 32.792 118.059 33.08 118.571 33.368C119.099 33.656 119.603 33.904 120.083 34.112C120.563 34.304 121.043 34.4 121.523 34.4H122.267L122.555 37.04C121.867 37.056 121.227 37.176 120.635 37.4C120.043 37.608 119.459 37.88 118.883 38.216C118.323 38.536 117.723 38.872 117.083 39.224C116.443 39.576 115.723 39.912 114.923 40.232C114.123 40.536 113.203 40.792 112.163 41C111.123 41.192 109.923 41.288 108.562 41.288ZM115.139 46.28C114.723 46.28 114.371 46.136 114.083 45.848C113.795 45.56 113.651 45.216 113.651 44.816C113.651 44.4 113.795 44.04 114.083 43.736C114.371 43.432 114.723 43.28 115.139 43.28C115.555 43.28 115.907 43.432 116.195 43.736C116.499 44.04 116.651 44.4 116.651 44.816C116.651 45.216 116.499 45.56 116.195 45.848C115.907 46.136 115.555 46.28 115.139 46.28ZM124.125 41.288L124.365 38.456C125.021 38.456 125.565 38.4 125.997 38.288C126.429 38.16 126.773 37.928 127.029 37.592C127.301 37.24 127.525 36.736 127.701 36.08C127.893 35.408 128.077 34.528 128.253 33.44L130.917 33.896C130.869 34.152 130.813 34.448 130.749 34.784C130.685 35.12 130.629 35.456 130.581 35.792C130.533 36.128 130.509 36.432 130.509 36.704C130.509 36.976 130.549 37.224 130.629 37.448C130.709 37.656 130.861 37.832 131.085 37.976C131.325 38.12 131.669 38.24 132.117 38.336C132.565 38.416 133.141 38.456 133.845 38.456C134.357 38.456 134.717 38.592 134.925 38.864C135.149 39.12 135.261 39.44 135.261 39.824C135.261 40.224 135.117 40.568 134.829 40.856C134.541 41.144 134.133 41.288 133.605 41.288C132.789 41.288 132.093 41.232 131.517 41.12C130.941 41.008 130.461 40.832 130.077 40.592C129.709 40.352 129.421 40.04 129.213 39.656C129.005 39.256 128.869 38.776 128.805 38.216L129.789 38.24C129.517 38.912 129.181 39.456 128.781 39.872C128.397 40.272 127.965 40.576 127.485 40.784C127.005 40.976 126.477 41.104 125.901 41.168C125.341 41.248 124.749 41.288 124.125 41.288ZM131.349 31.16C130.933 31.16 130.573 31.016 130.269 30.728C129.981 30.424 129.837 30.072 129.837 29.672C129.837 29.272 129.981 28.92 130.269 28.616C130.573 28.312 130.933 28.16 131.349 28.16C131.749 28.16 132.085 28.312 132.357 28.616C132.645 28.92 132.789 29.272 132.789 29.672C132.789 30.072 132.645 30.424 132.357 30.728C132.085 31.016 131.749 31.16 131.349 31.16ZM127.509 31.136C127.093 31.136 126.741 30.992 126.453 30.704C126.165 30.416 126.021 30.072 126.021 29.672C126.021 29.256 126.165 28.904 126.453 28.616C126.741 28.312 127.093 28.16 127.509 28.16C127.909 28.16 128.253 28.312 128.541 28.616C128.829 28.904 128.973 29.256 128.973 29.672C128.973 30.072 128.829 30.416 128.541 30.704C128.253 30.992 127.909 31.136 127.509 31.136ZM133.594 41.288L133.834 38.456C134.234 38.456 134.57 38.36 134.842 38.168C135.13 37.976 135.418 37.664 135.706 37.232C135.994 36.784 136.322 36.184 136.69 35.432C137.154 34.456 137.634 33.696 138.13 33.152C138.626 32.608 139.13 32.232 139.642 32.024C140.17 31.8 140.69 31.688 141.202 31.688C141.842 31.688 142.442 31.84 143.002 32.144C143.562 32.432 144.042 32.824 144.442 33.32C144.858 33.816 145.178 34.376 145.402 35C145.642 35.624 145.762 36.256 145.762 36.896C145.762 37.792 145.586 38.56 145.234 39.2C144.882 39.84 144.41 40.328 143.818 40.664C143.226 41 142.57 41.168 141.85 41.168C141.242 41.168 140.506 41.056 139.642 40.832C138.778 40.608 137.81 40.112 136.738 39.344L137.842 36.968C138.594 37.464 139.282 37.816 139.906 38.024C140.546 38.232 141.074 38.336 141.49 38.336C141.858 38.336 142.154 38.288 142.378 38.192C142.618 38.096 142.794 37.96 142.906 37.784C143.018 37.592 143.074 37.36 143.074 37.088C143.074 36.704 142.978 36.32 142.786 35.936C142.61 35.536 142.37 35.2 142.066 34.928C141.778 34.656 141.45 34.52 141.082 34.52C140.762 34.52 140.482 34.632 140.242 34.856C140.002 35.064 139.754 35.392 139.498 35.84C139.258 36.288 138.978 36.856 138.658 37.544C138.274 38.328 137.906 38.968 137.554 39.464C137.218 39.96 136.858 40.344 136.474 40.616C136.106 40.872 135.682 41.048 135.202 41.144C134.738 41.24 134.202 41.288 133.594 41.288Z" fill="white"/>
<path d="M160.026 20.5518L160.011 32.6676L160 45.0091L172.242 32.7988L160.026 20.5518Z" fill="white"/>
<path d="M177.255 27.7962L172.877 25.2607L161.806 18.8511C161.328 18.5729 160.777 18.6779 160.42 18.9981L173.213 31.8226L177.255 27.7962Z" fill="white"/>
<path d="M183.141 31.2028L178.49 28.5098L174.19 32.7986L178.332 36.9562L183.136 34.1897C184.285 33.5283 184.29 31.8694 183.141 31.2028Z" fill="white"/>
<path d="M160.515 46.4365C160.866 46.678 161.349 46.7305 161.775 46.4891L172.861 40.1057L177.098 37.6647L173.213 33.7695L160.515 46.4365Z" fill="white"/>
</svg>
