<?xml version="1.0" encoding="utf-8"?>
<!-- Generator: Adobe Illustrator 27.8.0, SVG Export Plug-In . SVG Version: 6.00 Build 0)  -->
<svg version="1.1" id="Layer_1" xmlns="http://www.w3.org/2000/svg" xmlns:xlink="http://www.w3.org/1999/xlink" x="0px" y="0px"
	 viewBox="0 0 1440 1024" style="enable-background:new 0 0 1440 1024;" xml:space="preserve">
<style type="text/css">
	.st0{fill:#EF59A0;}
	.st1{fill:#FFFFFF;}
</style>
<g>
	<g>
		<g>
			<path class="st0" d="M822.51,602.13l-228.7-0.29c-21.27-0.03-38.49-17.29-38.46-38.56l0.01-5.92
				c0.03-21.27,17.29-38.49,38.56-38.46l228.7,0.29c21.27,0.03,38.49,17.29,38.46,38.56l-0.01,5.92
				C861.05,584.94,843.78,602.16,822.51,602.13z"/>
		</g>
		<g>
			<g>
				<path class="st1" d="M669.06,557.11l10.65,0.01c-0.01,5.61-2.82,12.51-11.3,12.5c-8.29-0.01-11.34-6.85-11.33-12.15
					c0.01-6.62,4.21-12.32,11.58-12.31c3.72,0,6.77,1.74,9.13,4.8l-2.46,2.01c-2.08-2.62-4.41-3.69-6.83-3.7
					c-3.88,0-7.79,2.92-7.8,9c-0.01,5.83,3.61,9.33,7.58,9.34c2.93,0,6.4-0.94,7.7-6.39l-6.93-0.01L669.06,557.11z"/>
			</g>
			<g>
				<path class="st1" d="M732.78,568.35c-0.01,4.29-1.81,7.5-8.3,7.49c-3.66,0-5.99-1.09-7.02-3.45l2.93-1.04
					c0.82,1.25,1.95,1.87,4.41,1.87c2.46,0,4.6-1.14,4.61-4.61l0-1.66c-1.8,1.73-3.47,2.13-5.45,2.13
					c-3.91-0.01-7.06-2.53-7.05-7.81c0.01-5.8,3.41-7.92,6.75-7.92c2.58,0,4.25,0.31,5.98,2.21l0-1.74l3.15,0L732.78,568.35z
					 M729.39,561.25c0-3.37-2.2-4.92-4.66-4.92c-2.99,0-4.51,1.99-4.51,4.84c0,3.14,1.63,4.92,4.44,4.92
					C727.81,566.1,729.39,563.97,729.39,561.25z"/>
			</g>
			<g>
				<path class="st1" d="M735.01,569.11l0.03-23.86l3.4,0l-0.03,23.86L735.01,569.11z"/>
			</g>
			<g>
				<path class="st1" d="M747.46,569.12c-1.73,0-3.28-0.59-4.48-1.7c-1.2-1.11-2.02-2.71-2.39-4.63c-0.45-2.39-0.18-4.53,0.8-6.17
					c0.97-1.64,2.58-2.71,4.65-3.1c0.49-0.09,0.98-0.14,1.44-0.14c1.87,0,3.46,0.76,4.73,2.24c1.06,1.23,1.85,2.94,2.3,4.94
					l0.04,0.19l-10.53,1.99c0.53,2.43,1.71,3.61,3.63,3.61c0,0,0,0,0,0c0.33,0,0.68-0.03,1.04-0.1c1.46-0.28,2.27-1.18,3.11-2.54
					l0.09-0.15l2.65,1.31l-0.09,0.17c-1.14,2.17-2.91,3.46-5.4,3.93C748.51,569.07,747.97,569.12,747.46,569.12z M747.23,555.96
					c-0.22,0-0.44,0.02-0.66,0.06c-1.07,0.2-1.92,0.74-2.45,1.56c-0.51,0.78-0.69,1.76-0.53,2.84l7.17-1.36
					C750.34,557.23,748.91,555.97,747.23,555.96z"/>
			</g>
			<g>
				<path class="st1" d="M764.49,569.18l0.03-23.26l8.72,0.01c4.98,0.01,7.53,3.44,7.52,6.6c-0.01,4.95-3.26,7.18-7.7,7.18
					l-4.84-0.01l-0.01,9.49L764.49,569.18z M772.69,556.61c2.84,0,4.41-1.07,4.42-3.74c0-2.96-1.82-3.85-4.41-3.85l-4.47-0.01
					l-0.01,7.59L772.69,556.61z"/>
			</g>
			<g>
				<path class="st1" d="M783.09,569.17l0.03-23.86l3.4,0l-0.03,23.86L783.09,569.17z"/>
			</g>
			<g>
				<path class="st1" d="M802.2,569.19l-2.92,0l0-1.5c-0.86,0.64-2.04,1.5-4.77,1.5c-3.3,0-5.26-1.96-5.26-5.22
					c0-2.5,1.63-5.03,5.25-5.02c2.32,0,3.54,0.55,4.43,1.2l0-1.22c0-1.1-0.39-2.55-3.83-2.56c-1.54,0-2.62,0.36-3.75,0.75l-0.4,0.14
					l-0.56-2.83l0.14-0.06c1.53-0.62,3.11-0.92,4.81-0.92c4.7,0.01,6.88,1.95,6.87,6.11l-0.01,5.76L802.2,569.19z M795.67,561.49
					c-2.81,0-3.23,1.61-3.23,2.58c0,1.58,1.08,2.45,3.05,2.45c3.15,0,3.49-1.69,3.49-2.42C798.97,562.9,798.11,561.5,795.67,561.49z
					"/>
			</g>
			<g>
				<path class="st1" d="M808.85,565.95l-5.71-12.51l3.69,0l3.95,9.16l4.17-9.15l3.75,0l-11.04,22.26l-3.75,0L808.85,565.95z"/>
			</g>
			<g>
				<path class="st1" d="M689.18,556.39c2.8,0,5.08,2.29,5.08,5.09c0,2.8-2.29,5.08-5.09,5.08c-2.8,0-5.08-2.29-5.08-5.09
					C684.1,558.67,686.38,556.39,689.18,556.39 M689.18,553.3c-4.51-0.01-8.18,3.65-8.18,8.16c-0.01,4.51,3.65,8.18,8.16,8.18
					c4.51,0.01,8.18-3.65,8.18-8.16C697.35,556.97,693.7,553.31,689.18,553.3L689.18,553.3z"/>
			</g>
			<g>
				<path class="st1" d="M707.31,556.42c2.8,0,5.08,2.29,5.08,5.09c0,2.8-2.29,5.08-5.09,5.08c-2.8,0-5.08-2.29-5.08-5.09
					C702.23,558.69,704.51,556.41,707.31,556.42 M707.32,553.33c-4.51-0.01-8.18,3.65-8.18,8.16c-0.01,4.51,3.65,8.18,8.16,8.18
					c4.51,0.01,8.18-3.65,8.18-8.16C715.48,557,711.83,553.33,707.32,553.33L707.32,553.33z"/>
			</g>
		</g>
		<g>
			<polygon class="st1" points="598.56,537.3 598.53,560.38 598.51,583.89 621.83,560.63 			"/>
			<path class="st1" d="M631.38,551.1l-8.34-4.83l-21.09-12.21c-0.91-0.53-1.96-0.33-2.64,0.28l24.37,24.43L631.38,551.1z"/>
			<path class="st1" d="M642.59,557.59l-8.86-5.13l-8.19,8.17l7.89,7.92l9.15-5.27C644.77,562.02,644.78,558.86,642.59,557.59z"/>
			<path class="st1" d="M599.49,586.61c0.67,0.46,1.59,0.56,2.4,0.1l21.12-12.16l8.07-4.65l-7.4-7.42L599.49,586.61z"/>
		</g>
	</g>
</g>
<g>
</g>
<g>
</g>
<g>
</g>
<g>
</g>
<g>
</g>
<g>
</g>
</svg>
