<svg width="240" height="66" viewBox="0 0 240 66" fill="none" xmlns="http://www.w3.org/2000/svg">
<path d="M209.722 65.3361L30.1914 65.1084C13.4943 65.0849 -0.0235195 51.5357 3.07244e-05 34.8386L0.00788845 30.1913C0.0314386 13.4943 13.5806 -0.0235195 30.2777 3.07245e-05L209.809 0.227665C226.506 0.251215 240.024 13.8004 240 30.4975L239.992 35.1447C239.976 51.8418 226.419 65.3596 209.722 65.3361Z" fill="#143465"/>
<path d="M33.9197 14.415L33.8964 32.3413L33.8809 50.6015L51.9935 32.5354L33.9197 14.415Z" fill="white"/>
<path d="M59.4107 25.1338L52.933 21.3824L36.5524 11.8989C35.8457 11.4872 35.0301 11.6426 34.502 12.1164L53.4301 31.0911L59.4107 25.1338Z" fill="white"/>
<path d="M68.1187 30.1739L61.2371 26.1895L54.876 32.5351L61.0041 38.6865L68.111 34.5933C69.8119 33.6147 69.8197 31.1603 68.1187 30.1739Z" fill="white"/>
<path d="M34.6416 52.7134C35.162 53.0707 35.8766 53.1484 36.5057 52.7911L52.9096 43.3464L59.1775 39.7348L53.43 33.9717L34.6416 52.7134Z" fill="white"/>
<path d="M88.7922 29.7093L97.064 29.7171C97.0563 34.0744 94.8737 39.4336 88.2873 39.4258C81.8485 39.4181 79.4796 34.1054 79.4873 29.9889C79.4951 24.8472 82.7572 20.42 88.4815 20.4277C91.3708 20.4277 93.7397 21.7792 95.5727 24.1559L93.6621 25.7171C92.0465 23.6821 90.2368 22.8511 88.3572 22.8433C85.3436 22.8433 82.3067 25.1113 82.299 29.8336C82.2912 34.3618 85.1029 37.0802 88.1864 37.0879C90.4621 37.0879 93.1572 36.3578 94.1669 32.1248L88.7844 32.1171L88.7922 29.7093Z" fill="white"/>
<path d="M138.283 38.4395C138.276 41.7716 136.877 44.2648 131.837 44.2571C128.994 44.2571 127.184 43.4105 126.384 41.5774L128.66 40.7696C129.297 41.7405 130.175 42.2221 132.085 42.2221C133.996 42.2221 135.658 41.3366 135.666 38.6415V37.3522C134.268 38.6959 132.971 39.0066 131.433 39.0066C128.396 38.9988 125.949 37.0415 125.957 32.9406C125.965 28.4357 128.606 26.7891 131.2 26.7891C133.204 26.7891 134.501 27.0299 135.844 28.5056V27.1541H138.291L138.283 38.4395ZM135.65 32.925C135.65 30.3075 133.942 29.1037 132.031 29.1037C129.709 29.1037 128.528 30.6493 128.528 32.8629C128.528 35.3017 129.794 36.6842 131.976 36.6842C134.423 36.692 135.65 35.0376 135.65 32.925Z" fill="white"/>
<path d="M140.016 39.0291L140.039 20.4971H142.68L142.656 39.0291H140.016Z" fill="white"/>
<path d="M149.686 39.0368C148.342 39.0368 147.138 38.5785 146.206 37.7164C145.274 36.8542 144.637 35.6115 144.35 34.1202C144 32.2639 144.21 30.6018 144.971 29.328C145.724 28.0542 146.975 27.2232 148.583 26.9203C148.963 26.8504 149.344 26.8115 149.701 26.8115C151.153 26.8115 152.388 27.4018 153.375 28.5513C154.198 29.5067 154.812 30.8348 155.161 32.3882L155.192 32.5358L147.014 34.0814C147.425 35.9688 148.342 36.8853 149.833 36.8853C150.089 36.8853 150.361 36.862 150.641 36.8076C151.775 36.5902 152.404 35.8911 153.056 34.8348L153.126 34.7183L155.185 35.7358L155.115 35.8678C154.229 37.5532 152.854 38.5552 150.92 38.9202C150.501 38.9979 150.082 39.0368 149.686 39.0368ZM149.507 28.8154C149.336 28.8154 149.165 28.831 148.994 28.862C148.163 29.0174 147.503 29.4368 147.091 30.0737C146.695 30.6795 146.555 31.4406 146.68 32.2795L152.249 31.2232C151.922 29.8018 150.812 28.8232 149.507 28.8154Z" fill="white"/>
<path d="M162.913 39.0836L162.936 21.0176L169.709 21.0254C173.577 21.0331 175.558 23.6972 175.55 26.1516C175.542 29.9963 173.018 31.7283 169.569 31.7283L165.81 31.7205L165.802 39.0914L162.913 39.0836ZM169.282 29.3205C171.488 29.3205 172.707 28.4894 172.715 26.4156C172.715 24.1166 171.301 23.4254 169.29 23.4254L165.818 23.4176L165.81 29.3127L169.282 29.3205Z" fill="white"/>
<path d="M177.359 39.076L177.383 20.5439H180.023L180 39.076H177.359Z" fill="white"/>
<path d="M192.202 39.0914H189.934V37.9264C189.266 38.4235 188.349 39.0914 186.229 39.0914C183.666 39.0914 182.144 37.5691 182.144 35.0371C182.144 33.0953 183.41 31.1303 186.221 31.1381C188.023 31.1381 188.971 31.5652 189.662 32.0701V31.1225C189.662 30.2681 189.359 29.1419 186.687 29.1342C185.491 29.1342 184.652 29.4138 183.775 29.7167L183.464 29.8254L183.029 27.6274L183.138 27.5808C184.326 27.0992 185.553 26.8662 186.874 26.8662C190.524 26.874 192.217 28.3808 192.21 31.6118L192.202 36.0856V39.0914ZM187.13 33.1109C184.947 33.1109 184.621 34.3614 184.621 35.1148C184.621 36.3419 185.46 37.0177 186.99 37.0177C189.437 37.0177 189.701 35.705 189.701 35.138C189.693 34.206 189.025 33.1186 187.13 33.1109Z" fill="white"/>
<path d="M197.367 36.5749L192.932 26.8584H195.798L198.866 33.9729L202.104 26.8662H205.017L196.442 44.1555H193.53L197.367 36.5749Z" fill="white"/>
<path d="M104.419 29.15C106.594 29.15 108.364 30.9287 108.364 33.1034C108.364 35.2782 106.586 37.0491 104.411 37.0491C102.236 37.0491 100.465 35.2704 100.465 33.0956C100.473 30.9209 102.244 29.15 104.419 29.15ZM104.419 26.75C100.916 26.7422 98.0654 29.585 98.0654 33.0879C98.0577 36.5908 100.9 39.4413 104.403 39.4413C107.906 39.4491 110.757 36.6063 110.757 33.1034C110.764 29.6005 107.93 26.7578 104.419 26.75Z" fill="white"/>
<path d="M118.501 29.1734C120.676 29.1734 122.447 30.9521 122.447 33.1268C122.447 35.3016 120.668 37.0725 118.493 37.0725C116.318 37.0725 114.547 35.2938 114.547 33.1191C114.555 30.9365 116.326 29.1657 118.501 29.1734ZM118.509 26.7735C115.006 26.7657 112.155 29.6084 112.155 33.1113C112.148 36.6142 114.99 39.4647 118.493 39.4647C121.996 39.4725 124.847 36.6298 124.847 33.1268C124.847 29.6239 122.012 26.7735 118.509 26.7735Z" fill="white"/>
</svg>
