<svg width="240" height="66" viewBox="0 0 240 66" fill="none" xmlns="http://www.w3.org/2000/svg">
<path d="M209.768 65.3208H30.2316C13.534 65.3208 0 51.7432 0 34.9916V30.3292C0 13.5777 13.534 0 30.2316 0H209.768C226.466 0 240 13.5777 240 30.3292V34.9916C240 51.7353 226.466 65.3208 209.768 65.3208Z" fill="#00B999"/>
<path d="M63.9942 34.6372C63.9942 30.8254 66.1206 27.5098 69.2551 25.8244C69.1134 25.5881 67.2705 22.6898 62.8443 21.477C61.8284 21.2486 60.8046 21.1541 59.765 21.1856C58.7648 21.2171 57.796 21.4219 56.8431 21.7133C55.8586 22.0126 54.9136 22.4142 53.9606 22.7765C53.4251 22.9812 52.8816 23.1703 52.3146 23.2727C51.7948 23.3593 51.2907 23.2963 50.7946 23.1624C50.0149 22.9576 49.2824 22.6347 48.5342 22.3433C47.6758 22.0047 46.8173 21.6896 45.9116 21.4927C44.9981 21.2959 44.0845 21.2644 43.1551 21.3589C41.7848 21.5006 40.4774 21.8786 39.2567 22.5087C37.6107 23.3514 36.256 24.5328 35.1692 26.0213C34.0509 27.5491 33.3342 29.2503 32.9168 31.0853C32.5545 32.6604 32.4285 34.2513 32.4994 35.8658C32.7042 40.5361 34.043 44.8756 36.3742 48.9316C37.0279 50.0578 37.8076 51.0974 38.5951 52.137C39.2803 53.0427 40.0049 53.9169 40.8476 54.6887C41.4225 55.2085 42.0526 55.6653 42.7692 55.9725C43.4702 56.2717 44.2026 56.3899 44.9587 56.3505C45.9667 56.3032 46.8961 55.9882 47.8097 55.6023C48.487 55.3188 49.1643 55.0195 49.8731 54.8226C51.968 54.2398 54.0236 54.3579 56.0319 55.2164C56.6698 55.492 57.3077 55.7913 57.9772 55.9882C59.0561 56.3032 60.1508 56.4135 61.2534 56.1536C62.0882 55.9567 62.8286 55.5629 63.5059 55.0431C64.3407 54.4052 65.0416 53.6491 65.6874 52.83C66.9554 51.2155 68.1368 49.538 69.0504 47.6951C69.0504 47.6951 70.0112 45.8601 70.5389 44.0408C66.7271 42.6311 63.9942 38.9531 63.9942 34.6372Z" fill="white"/>
<path d="M51.7241 20.1778C51.5587 18.8311 51.6611 17.4922 52.0312 16.2006C52.3856 14.9484 52.9763 13.7985 53.7796 12.7668C54.5829 11.7351 55.5595 10.8924 56.6857 10.2387C57.8513 9.56931 59.1272 9.144 60.4739 8.97861L60.6079 8.96289L60.6236 9.09676C60.789 10.4435 60.6866 11.7824 60.3164 13.074C59.962 14.3262 59.3714 15.476 58.568 16.5078C57.7647 17.5395 56.7881 18.3822 55.6619 19.0359C54.4963 19.7053 53.2205 20.1306 51.8737 20.2959L51.7398 20.3117L51.7241 20.1778Z" fill="white"/>
<path d="M83.3686 33.665L81.1713 40.3594H78.3203L85.5659 19.0557H88.8737L96.1508 40.3594H93.2054L90.9214 33.665H83.3686ZM90.3622 31.515L88.2515 25.3877C87.7869 23.9937 87.4719 22.7257 87.1568 21.505H87.0859C86.7788 22.7493 86.448 24.0488 86.0306 25.3562L83.9278 31.5229H90.3622V31.515Z" fill="white"/>
<path d="M99.0733 30.0583C99.0733 28.113 99.0181 26.5222 98.9473 25.0809H101.428L101.578 27.6878H101.641C102.751 25.8212 104.586 24.7344 107.067 24.7344C110.769 24.7344 113.557 27.8532 113.557 32.4919C113.557 38.0049 110.186 40.7141 106.602 40.7141C104.555 40.7141 102.798 39.8242 101.893 38.3042H101.83V46.6209H99.0654V30.0583H99.0733ZM101.838 34.1458C101.838 34.5396 101.877 34.9176 101.956 35.2799C102.452 37.2252 104.137 38.5405 106.114 38.5405C109.06 38.5405 110.761 36.1226 110.761 32.6179C110.761 29.57 109.162 26.9475 106.216 26.9475C104.326 26.9475 102.539 28.2863 102.011 30.3813C101.916 30.7435 101.83 31.1452 101.83 31.5075V34.1458H101.838Z" fill="white"/>
<path d="M117.053 30.0583C117.053 28.113 116.998 26.5222 116.927 25.0809H119.408L119.557 27.6878H119.62C120.731 25.8212 122.566 24.7344 125.047 24.7344C128.748 24.7344 131.536 27.8532 131.536 32.4919C131.536 38.0049 128.165 40.7141 124.582 40.7141C122.534 40.7141 120.778 39.8242 119.872 38.3042H119.809V46.6209H117.045V30.0583H117.053ZM119.817 34.1458C119.817 34.5396 119.857 34.9176 119.935 35.2799C120.431 37.2252 122.117 38.5405 124.094 38.5405C127.039 38.5405 128.74 36.1226 128.74 32.6179C128.74 29.57 127.141 26.9475 124.196 26.9475C122.306 26.9475 120.518 28.2863 119.99 30.3813C119.896 30.7435 119.809 31.1452 119.809 31.5075V34.1458H119.817Z" fill="white"/>
<path d="M160.566 20.6777V25.0802H164.559V27.183H160.566V35.421C160.566 37.3269 161.117 38.398 162.669 38.398C163.386 38.398 163.913 38.3114 164.284 38.1932L164.41 40.3039C163.866 40.5165 163.008 40.6898 161.929 40.6898C160.653 40.6898 159.59 40.2645 158.928 39.5163C158.164 38.6736 157.849 37.3269 157.849 35.5312V27.183H155.479V25.0802H157.849V20.6777H160.566Z" fill="white"/>
<path d="M181.342 32.5707C181.342 38.2333 177.412 40.7063 173.742 40.7063C169.599 40.7063 166.394 37.682 166.394 32.8306C166.394 27.7114 169.756 24.7266 173.986 24.7266C178.38 24.7344 181.342 27.9162 181.342 32.5707ZM169.221 32.7519C169.221 36.1069 171.143 38.6271 173.852 38.6271C176.514 38.6271 178.506 36.1384 178.506 32.6652C178.506 30.082 177.207 26.8057 173.899 26.8057C170.639 26.8136 169.221 29.8536 169.221 32.7519Z" fill="white"/>
<path d="M187.367 27.9154C188.084 25.8678 189.769 25.0645 191.62 25.0645C191.919 25.0645 192.139 25.0802 192.392 25.1432V27.7579C192.108 27.6949 191.824 27.6792 191.446 27.6792C189.485 27.6792 188.099 28.9944 187.729 31.0736C187.658 31.4674 187.619 31.9163 187.619 32.3731V40.3748H184.854V25.0881H187.367V27.9154Z" fill="white"/>
<path d="M196.432 33.2244C196.487 36.9811 198.873 38.5326 201.661 38.5326C203.654 38.5326 204.866 38.1782 205.898 37.7529L206.394 37.5245L206.386 39.7297C205.418 40.1707 203.717 40.7063 201.283 40.7063C196.589 40.7063 193.762 37.5796 193.762 32.9881C193.762 28.3572 196.487 24.7344 200.952 24.7344C205.938 24.7344 207.245 29.1133 207.245 31.9249C207.245 32.5077 207.213 32.9251 207.15 33.2244H196.432ZM204.567 31.224C204.599 29.4756 203.85 26.7269 200.732 26.7269C197.896 26.7269 196.684 29.2944 196.463 31.224H204.567Z" fill="white"/>
<path d="M148.098 18.7012C143.948 18.7012 141.191 21.1584 141.191 24.4819C141.191 27.4589 143.349 29.294 146.822 30.5226C149.697 31.6015 150.855 32.7592 150.855 34.736C150.855 36.894 149.201 38.3668 146.389 38.3668C144.499 38.3668 142.704 37.7525 141.475 36.9885V39.682C142.704 40.2569 144.507 40.6664 146.192 40.6664C151.241 40.6664 153.651 37.7918 153.651 34.5234C153.651 31.3968 151.831 29.6641 148.216 28.2465C145.279 27.1124 143.979 26.1358 143.979 24.159C143.979 22.7099 145.082 20.9694 148.012 20.9694C149.933 20.9694 151.359 21.5758 152.036 21.9774V19.3627C151.083 18.9926 149.752 18.7012 148.098 18.7012Z" fill="white"/>
</svg>
