<svg width="1440" height="1024" viewBox="0 0 1440 1024" fill="none" xmlns="http://www.w3.org/2000/svg">
<g clip-path="url(#clip0_3138_10786)">
<g clip-path="url(#clip1_3138_10786)">
<rect width="1440" height="1024" transform="translate(-0.251953)" fill="#143465"/>
<path opacity="0.36" d="M1657.95 286.377C1586.38 69.0753 1379.93 -200.926 1134.67 -182.325C1033.2 -174.632 914.106 -116.616 856.623 -8.12688C789.999 117.626 826.391 272.981 896.428 369.736C1065.13 602.913 1483.09 571.018 1480.69 597.136C1479.86 606.569 1423.49 628.506 1301.04 610.581C919.238 554.632 571.636 412.201 571.636 412.201C141.511 244.534 -29.8224 124.082 -203.754 213.799C-297.602 262.206 -340.856 345.291 -352.603 368.768C-399.782 463.061 -353.908 1036.18 101.687 1336.03C159.133 1373.83 249.755 1424.84 374.961 1461.46C375.865 1455.03 376.816 1448.61 377.827 1442.19C381.334 1419.95 386.625 1397.95 389.639 1375.64C388.843 1381.55 388.049 1387.46 387.253 1393.37C389.319 1378.33 391.537 1363.37 394.211 1348.4C395.996 1338.4 397.876 1328.42 399.821 1318.45C406.828 1282.54 414.667 1246.8 421.975 1210.95C428.12 1180.8 433.878 1150.56 438.452 1120.14C442.143 1088.65 444.221 1056.98 443.752 1025.27C443.761 1022.44 443.862 1019.64 444.052 1016.86C399.078 993.505 351.266 963.625 303.758 925.355C106.006 766.162 -37.4497 501.351 18.4394 443.818C69.8083 390.89 242.543 561.117 573.984 675.467C953.303 806.377 1531.26 872.072 1673.57 634.323C1737.48 527.621 1693.34 393.657 1657.95 286.377ZM1486.85 360.944C1438.4 435.373 1185.03 410.774 1100.1 273.127C1093.55 262.586 1040.95 174.43 1081.56 97.1306C1107.97 46.8983 1164.59 19.0674 1211.06 16.0672C1369.92 5.67525 1541.99 276.32 1486.85 360.944Z" fill="#102B51"/>
</g>
<g clip-path="url(#clip2_3138_10786)">
<path d="M-385.327 -104.589C-389.133 -89.0973 -391.894 -72.6788 -393.324 -55.7298C-400.749 29.4297 -377.076 127.486 -309.572 197.144C-215.229 294.076 -63.9531 306.836 44.3699 271.874C160.582 234.434 243.663 136.914 302.091 41.2204C357.715 -49.8801 396.871 -149.997 419.109 -254.297L437.911 -342.474L48.6765 -424.655C-141 -388.504 -341.662 -284.023 -385.327 -104.589ZM209.82 -262.946C262.897 -197.556 166.238 23.7745 16.7134 59.9886C5.12756 62.8852 -90.0847 84.3369 -148.152 25.1794C-185.739 -13.3733 -194.326 -72.5188 -183.485 -115.403C-160.201 -206.694 -36.1468 -270.63 68.43 -287.58C73.8766 -288.436 79.3637 -289.112 84.8204 -289.87C140.869 -296.416 189.176 -288.536 209.82 -262.946Z" fill="#EE599F"/>
</g>
<path d="M1461.85 620.827C1475.18 641.704 1521.68 717.54 1515.43 817.29C1513.2 850.318 1505.86 880.188 1492.84 908.206C1433.68 1037.35 1260.46 1131.07 976.302 1350.9C976.302 1350.9 804.944 1479.08 620 1668.63L427.318 1579.13C524.831 1447.2 646.335 1320.83 761.069 1224.45C1015.4 1010.7 1238.02 953.276 1220.13 885.77C1200.26 812.353 915.056 799.849 689.122 883.004C522.225 944.44 420.945 1045.58 395.07 1072.29C274.84 1196.27 217.15 1342.26 190.402 1469.09L-303.935 1239.48L-24.9166 638.764C11.8157 626.895 84.0022 604.087 175.738 578.984C175.738 578.984 879.27 386.476 1318.77 523.981C1418.25 555.109 1461.85 620.827 1461.85 620.827Z" fill="#DEF700"/>
<path d="M1500.03 634.331C1553.47 713.068 1547.29 802.603 1546.2 818.72C1543.97 851.748 1536.63 881.618 1523.62 909.636C1464.45 1038.78 1291.23 1132.5 1007.07 1352.33C1007.07 1352.33 835.716 1480.51 650.772 1670.06L458.089 1580.56C555.603 1448.63 677.106 1322.26 791.84 1225.88C1046.17 1012.13 1268.8 954.706 1250.91 887.202C1231.03 813.785 945.827 801.281 719.895 884.437C552.996 945.872 451.718 1047.02 425.843 1073.73C305.614 1197.7 247.923 1343.69 221.176 1470.52L-273.161 1240.91L5.85394 640.198C117.273 600.889 270.066 560.136 484.193 520.078C518.831 515.061 1109.18 432.179 1349.54 525.416C1384.69 539.052 1453.46 565.728 1500.03 634.331Z" fill="#EE599F"/>
</g>
<defs>
<clipPath id="clip0_3138_10786">
<rect width="1440" height="1024" fill="white"/>
</clipPath>
<clipPath id="clip1_3138_10786">
<rect width="1440" height="1024" fill="white" transform="translate(-0.251953)"/>
</clipPath>
<clipPath id="clip2_3138_10786">
<rect width="785" height="1194" fill="white" transform="translate(-0.251953)"/>
</clipPath>
</defs>
</svg>
