<svg width="1440" height="1024" viewBox="0 0 1440 1024" fill="none" xmlns="http://www.w3.org/2000/svg">
<g clip-path="url(#clip0_3138_10786)">
<g clip-path="url(#clip1_3138_10786)">
<rect width="1440" height="1024" transform="translate(-0.251953)" fill="#143465"/>
<path opacity="0.36" d="M1657.95 286.377C1586.38 69.0753 1379.93 -200.926 1134.67 -182.325C1033.2 -174.632 914.106 -116.616 856.623 -8.12688C789.999 117.626 826.391 272.981 896.428 369.736C1065.13 602.913 1483.09 571.018 1480.69 597.136C1479.86 606.569 1423.49 628.506 1301.04 610.581C919.238 554.632 571.636 412.201 571.636 412.201C141.511 244.534 -29.8224 124.082 -203.754 213.799C-297.602 262.206 -340.856 345.291 -352.603 368.768C-399.782 463.061 -353.908 1036.18 101.687 1336.03C159.133 1373.83 249.755 1424.84 374.961 1461.46C375.865 1455.03 376.816 1448.61 377.827 1442.19C381.334 1419.95 386.625 1397.95 389.639 1375.64C388.843 1381.55 388.049 1387.46 387.253 1393.37C389.319 1378.33 391.537 1363.37 394.211 1348.4C395.996 1338.4 397.876 1328.42 399.821 1318.45C406.828 1282.54 414.667 1246.8 421.975 1210.95C428.12 1180.8 433.878 1150.56 438.452 1120.14C442.143 1088.65 444.221 1056.98 443.752 1025.27C443.761 1022.44 443.862 1019.64 444.052 1016.86C399.078 993.505 351.266 963.625 303.758 925.355C106.006 766.162 -37.4497 501.351 18.4394 443.818C69.8083 390.89 242.543 561.117 573.984 675.467C953.303 806.377 1531.26 872.072 1673.57 634.323C1737.48 527.621 1693.34 393.657 1657.95 286.377ZM1486.85 360.944C1438.4 435.373 1185.03 410.774 1100.1 273.127C1093.55 262.586 1040.95 174.43 1081.56 97.1306C1107.97 46.8983 1164.59 19.0674 1211.06 16.0672C1369.92 5.67525 1541.99 276.32 1486.85 360.944Z" fill="#102B51"/>
</g>
<g clip-path="url(#clip2_3138_10786)">
<path d="M-385.327 -104.589C-389.133 -89.0973 -391.894 -72.6788 -393.324 -55.7298C-400.749 29.4297 -377.076 127.486 -309.572 197.144C-215.229 294.076 -63.9531 306.836 44.3699 271.874C160.582 234.434 243.663 136.914 302.091 41.2204C357.715 -49.8801 396.871 -149.997 419.109 -254.297L437.911 -342.474L48.6765 -424.655C-141 -388.504 -341.662 -284.023 -385.327 -104.589ZM209.82 -262.946C262.897 -197.556 166.238 23.7745 16.7134 59.9886C5.12756 62.8852 -90.0847 84.3369 -148.152 25.1794C-185.739 -13.3733 -194.326 -72.5188 -183.485 -115.403C-160.201 -206.694 -36.1468 -270.63 68.43 -287.58C73.8766 -288.436 79.3637 -289.112 84.8204 -289.87C140.869 -296.416 189.176 -288.536 209.82 -262.946Z" fill="#EE599F"/>
</g>
<path d="M1396.74 422.151C1414.62 440.972 1477.61 509.721 1491.09 613.609C1495.38 648.039 1493.79 680.239 1485.99 711.667C1450.89 856.363 1291.36 987.368 1042.85 1270.29C1042.85 1270.29 892.113 1436.39 739.644 1668.33L523.517 1614.71C597.521 1459.49 697.321 1305.2 796.143 1183.14C1015.18 912.432 1232.79 808.905 1200.91 743.014C1165.8 671.436 869.84 715.497 653.959 846.157C494.489 942.685 410.464 1066.97 389.17 1099.62C290.204 1251.19 259.982 1412.92 257.774 1548.76L-296.712 1411.17L-129.514 737.363C-94.0869 717.819 -24.3616 679.942 65.0211 635.802C65.0211 635.802 750.509 297.292 1230.18 351.058C1338.76 363.231 1396.74 422.151 1396.74 422.151Z" fill="#DEF700"/>
<path d="M1438.72 428.425C1509.42 498.775 1520.94 592.137 1523.03 608.939C1527.33 643.369 1525.74 675.569 1517.94 706.997C1482.84 851.693 1323.31 982.698 1074.8 1265.62C1074.8 1265.62 924.061 1431.72 771.592 1663.66L555.465 1610.04C629.469 1454.82 729.269 1300.53 828.091 1178.47C1047.12 907.762 1264.74 804.234 1232.85 738.346C1197.75 666.768 901.788 710.828 685.909 841.489C526.437 938.017 442.414 1062.31 421.12 1094.95C322.154 1246.52 291.932 1408.26 289.724 1544.1L-264.762 1406.51L-97.5665 732.697C9.23403 670.01 158.319 597.579 370.653 513.622C405.293 501.546 996.199 298.43 1262.13 346.392C1301.03 353.406 1377.11 367.129 1438.72 428.425Z" fill="#EE599F"/>
</g>
<defs>
<clipPath id="clip0_3138_10786">
<rect width="1440" height="1024" fill="white"/>
</clipPath>
<clipPath id="clip1_3138_10786">
<rect width="1440" height="1024" fill="white" transform="translate(-0.251953)"/>
</clipPath>
<clipPath id="clip2_3138_10786">
<rect width="785" height="1194" fill="white" transform="translate(-0.251953)"/>
</clipPath>
</defs>
</svg>
