<svg width="390" height="844" viewBox="0 0 390 844" fill="none" xmlns="http://www.w3.org/2000/svg">
<g clip-path="url(#clip0_3301_12562)">
<rect width="390" height="844" fill="#143465"/>
<g clip-path="url(#clip1_3301_12562)">
<mask id="mask0_3301_12562" style="mask-type:luminance" maskUnits="userSpaceOnUse" x="-62" y="-17" width="469" height="1015">
<path d="M407 997.264H-62V-17H407C407 99.8156 407 216.631 407 333.447C407 554.719 407 775.992 407 997.264Z" fill="white"/>
</mask>
<g mask="url(#mask0_3301_12562)">
<path opacity="0.36" d="M629.053 228.273C586.294 98.3286 462.949 -63.1294 316.42 -52.0066C255.791 -47.4062 184.641 -12.7133 150.297 52.1624C110.493 127.361 132.235 220.262 174.079 278.12C274.87 417.558 524.579 398.485 523.145 414.104C522.652 419.745 488.973 432.862 415.814 422.144C187.707 388.686 -19.9688 303.514 -19.9688 303.514C-276.948 203.251 -379.312 131.222 -483.227 184.872C-539.297 213.819 -565.14 263.503 -572.158 277.542C-600.345 333.928 -572.937 676.648 -300.741 855.952C-266.42 878.56 -212.278 909.063 -137.473 930.962C-136.933 927.116 -136.365 923.274 -135.761 919.439C-133.665 906.138 -130.504 892.98 -128.704 879.638C-129.179 883.173 -129.654 886.708 -130.129 890.243C-128.895 881.249 -127.57 872.301 -125.972 863.349C-124.906 857.372 -123.782 851.405 -122.621 845.445C-118.434 823.969 -113.75 802.595 -109.385 781.156C-105.713 763.129 -102.273 745.047 -99.5399 726.853C-97.3349 708.025 -96.0937 689.086 -96.3735 670.122C-96.3685 668.432 -96.308 666.756 -96.1945 665.096C-123.064 651.128 -151.63 633.26 -180.013 610.375C-298.161 515.179 -383.869 356.825 -350.478 322.421C-319.787 290.771 -216.586 392.565 -18.5662 460.945C208.059 539.228 553.363 578.512 638.384 436.341C676.569 372.534 650.193 292.425 629.053 228.273ZM526.827 272.863C497.88 317.371 346.507 302.661 295.762 220.349C291.848 214.046 260.426 161.329 284.685 115.105C300.463 85.0669 334.293 68.4243 362.058 66.6302C456.968 60.416 559.77 222.259 526.827 272.863Z" fill="#102B51"/>
</g>
</g>
<path d="M821.312 352.914C856.729 411.4 848.964 475.416 847.582 486.941C844.75 510.557 838.374 531.717 827.992 551.337C780.732 641.804 652.95 702.602 440.87 849.767C440.87 849.767 313.141 935.367 173.379 1064.49L173.379 1074.35C248.26 983.316 341.343 924.032 427.257 859.15C617.708 715.24 643.468 574.193 633.143 525.089C621.617 471.669 417.432 452.081 252.22 503.34C130.174 541.211 53.7381 610.017 34.1771 628.22C-56.7078 712.705 -103.538 815.314 -127.451 905.323L-473.616 722.169L-251.05 301.51C-169.638 277.451 -58.4847 253.896 96.6528 233.122C121.694 230.811 548.383 193.312 717.382 269.16C742.102 280.254 790.452 301.955 821.312 352.914Z" fill="#EE599F"/>
</g>
<defs>
<clipPath id="clip0_3301_12562">
<rect width="390" height="844" fill="white"/>
</clipPath>
<clipPath id="clip1_3301_12562">
<rect width="469" height="714" fill="white" transform="translate(-62 -17)"/>
</clipPath>
</defs>
</svg>
