<svg width="390" height="844" viewBox="0 0 390 844" fill="none" xmlns="http://www.w3.org/2000/svg">
<g clip-path="url(#clip0_3261_10592)">
<rect width="390" height="844" fill="#143465"/>
<g clip-path="url(#clip1_3261_10592)">
<mask id="mask0_3261_10592" style="mask-type:luminance" maskUnits="userSpaceOnUse" x="-91" y="-27" width="572" height="1238">
<path d="M481 1210.29H-91V-27H481C481 115.502 481 258.004 481 400.507C481 670.433 481 940.361 481 1210.29Z" fill="white"/>
</mask>
<g mask="url(#mask0_3261_10592)">
<path opacity="0.36" d="M751.82 272.205C699.67 113.687 549.236 -83.2732 370.527 -69.7047C296.584 -64.0928 209.807 -21.7713 167.921 57.3698C119.375 149.104 145.892 262.432 196.926 333.013C319.852 503.112 624.401 479.845 622.652 498.898C622.052 505.779 580.976 521.781 491.75 508.705C213.547 467.891 -39.7377 363.991 -39.7377 363.991C-353.154 241.681 -477.998 153.813 -604.735 219.261C-673.119 254.573 -704.637 315.181 -713.196 332.308C-747.574 401.092 -714.147 819.172 -382.172 1037.9C-340.314 1065.48 -274.281 1102.69 -183.048 1129.41C-182.389 1124.71 -181.696 1120.03 -180.96 1115.35C-178.404 1099.12 -174.548 1083.07 -172.353 1066.8C-172.932 1071.11 -173.511 1075.42 -174.091 1079.73C-172.586 1068.76 -170.969 1057.85 -169.021 1046.93C-167.72 1039.63 -166.35 1032.36 -164.934 1025.09C-159.828 998.888 -154.115 972.814 -148.791 946.66C-144.313 924.669 -140.117 902.611 -136.784 880.416C-134.095 857.449 -132.581 834.346 -132.922 811.212C-132.916 809.15 -132.842 807.106 -132.704 805.08C-165.475 788.041 -200.314 766.244 -234.93 738.327C-379.025 622.198 -483.556 429.024 -442.832 387.055C-405.401 348.445 -279.536 472.622 -38.0271 556.038C238.368 651.535 659.507 699.458 763.2 526.025C809.771 448.187 777.603 350.463 751.82 272.205ZM627.144 326.6C591.839 380.894 407.223 362.95 345.332 262.539C340.558 254.849 302.236 190.541 331.823 134.153C351.067 97.5096 392.326 77.2076 426.189 75.0189C541.942 67.4382 667.321 264.868 627.144 326.6Z" fill="#102B51"/>
</g>
<path d="M645.303 230.034C667.142 248.361 744.366 315.594 771.901 427.284C780.841 464.321 783.087 499.651 778.458 534.906C758.034 697.124 600.149 859.774 363.943 1199.17C363.943 1199.17 219.989 1399.03 82.2806 1670.95L-160.166 1639.13C-98.5923 1460.63 -8.75838 1279.96 83.989 1134.56C289.54 812.128 514.191 672.284 471.265 604.327C424.123 530.563 106.632 615.201 -112.78 784.436C-274.856 909.46 -351.184 1055.45 -370.385 1093.71C-459.645 1271.31 -472.642 1451.52 -458.27 1600.01L-1080.28 1518.38L-981.084 762.514C-944.843 736.812 -873.443 686.871 -781.369 627.666C-781.369 627.666 -75.2354 173.629 454.789 173.039C574.762 172.909 645.303 230.034 645.303 230.034Z" fill="#DEF700"/>
<path d="M691.884 231.695C777.723 299.721 801.821 400.167 806.183 418.241C815.122 455.278 817.368 490.608 812.74 525.864C792.315 688.081 634.43 850.731 398.224 1190.13C398.224 1190.13 254.271 1389.99 116.562 1661.9L-125.884 1630.09C-64.3108 1451.59 25.5231 1270.91 118.27 1125.52C323.822 803.085 548.473 663.242 505.546 595.287C458.404 521.523 140.914 606.161 -78.4956 775.396C-240.574 900.42 -316.9 1046.41 -336.1 1084.67C-425.361 1262.27 -438.357 1442.48 -423.985 1590.97L-1045.99 1509.34L-946.802 753.477C-838.014 671.884 -684.292 574.436 -462.981 456.597C-426.676 439.141 192.983 144.52 489.071 164.001C532.379 166.849 617.091 172.424 691.884 231.695Z" fill="#EE599F"/>
</g>
<path d="M-237.976 -113.026C-241.255 -105.405 -244.02 -97.2417 -246.08 -88.7183C-256.564 -45.9091 -250.634 5.56562 -218.103 45.5661C-172.608 101.256 -89.0431 117.992 -25.9242 107.547C41.7862 96.3769 95.4572 52.4054 135.22 7.69295C173.073 -34.8733 202.398 -83.1405 222.582 -134.681L239.646 -178.255L28.3047 -246.416C-80.3529 -240.877 -200.232 -201.329 -237.976 -113.026ZM106.3 -153.256C131.088 -116.404 60.6197 -10.3817 -25.6107 -2.09093C-32.299 -1.40243 -87.0879 3.05891 -115.127 -30.9617C-133.258 -53.1154 -133.655 -83.7785 -124.407 -104.855C-104.607 -149.709 -30.5439 -173.824 29.1419 -175.362C32.2484 -175.428 35.3642 -175.4 38.4691 -175.416C70.2693 -174.949 96.6709 -167.669 106.3 -153.256Z" fill="#EE599F"/>
</g>
<defs>
<clipPath id="clip0_3261_10592">
<rect width="390" height="844" fill="white"/>
</clipPath>
<clipPath id="clip1_3261_10592">
<rect width="572" height="871" fill="white" transform="translate(-91 -27)"/>
</clipPath>
</defs>
</svg>
