<svg width="390" height="844" viewBox="0 0 390 844" fill="none" xmlns="http://www.w3.org/2000/svg">
<g clip-path="url(#clip0_3261_10592)">
<rect width="390" height="844" fill="#143465"/>
<g clip-path="url(#clip1_3261_10592)">
<mask id="mask0_3261_10592" style="mask-type:luminance" maskUnits="userSpaceOnUse" x="-91" y="-27" width="572" height="1238">
<path d="M481 1210.29H-91V-27H481C481 115.502 481 258.004 481 400.506C481 670.433 481 940.361 481 1210.29Z" fill="white"/>
</mask>
<g mask="url(#mask0_3261_10592)">
<path opacity="0.36" d="M751.82 272.205C699.67 113.687 549.236 -83.2732 370.527 -69.7047C296.584 -64.0928 209.807 -21.7713 167.921 57.3698C119.375 149.104 145.892 262.432 196.926 333.013C319.852 503.112 624.401 479.845 622.652 498.898C622.052 505.779 580.976 521.781 491.75 508.705C213.547 467.891 -39.7377 363.991 -39.7377 363.991C-353.154 241.681 -477.998 153.813 -604.735 219.261C-673.119 254.573 -704.637 315.181 -713.196 332.308C-747.574 401.092 -714.147 819.172 -382.172 1037.9C-340.314 1065.48 -274.281 1102.69 -183.048 1129.41C-182.389 1124.71 -181.696 1120.03 -180.96 1115.35C-178.404 1099.12 -174.548 1083.07 -172.353 1066.8C-172.932 1071.11 -173.511 1075.42 -174.091 1079.73C-172.586 1068.76 -170.969 1057.85 -169.021 1046.93C-167.72 1039.63 -166.35 1032.36 -164.934 1025.09C-159.828 998.888 -154.115 972.814 -148.791 946.66C-144.313 924.669 -140.117 902.611 -136.784 880.416C-134.095 857.449 -132.581 834.346 -132.922 811.212C-132.916 809.15 -132.842 807.106 -132.704 805.08C-165.475 788.041 -200.314 766.244 -234.93 738.327C-379.025 622.198 -483.556 429.024 -442.832 387.055C-405.401 348.445 -279.536 472.622 -38.0271 556.038C238.368 651.535 659.507 699.457 763.2 526.025C809.771 448.187 777.603 350.463 751.82 272.205ZM627.144 326.6C591.839 380.894 407.223 362.95 345.332 262.539C340.558 254.849 302.236 190.541 331.823 134.153C351.067 97.5096 392.326 77.2076 426.189 75.0189C541.942 67.4382 667.321 264.868 627.144 326.6Z" fill="#102B51"/>
</g>
<path d="M597.733 278.366C617.01 294.543 685.175 353.889 709.48 452.476C717.371 485.168 719.353 516.354 715.268 547.473C697.24 690.661 557.876 834.23 349.379 1133.81C349.379 1133.81 222.313 1310.22 100.759 1550.24L-113.246 1522.16C-58.8962 1364.6 20.3994 1205.12 102.267 1076.78C283.705 792.174 482.002 668.735 444.111 608.75C402.5 543.639 122.253 618.348 -71.4193 767.73C-214.482 878.088 -281.856 1006.95 -298.805 1040.72C-377.594 1197.49 -389.066 1356.56 -376.38 1487.63L-925.422 1415.57L-837.863 748.38C-805.873 725.693 -742.85 681.611 -661.576 629.351C-661.576 629.351 -38.2792 228.578 429.568 228.057C535.467 227.942 597.733 278.366 597.733 278.366Z" fill="#DEF700"/>
<path d="M638.849 279.832C714.619 339.877 735.89 428.54 739.74 444.494C747.631 477.186 749.613 508.372 745.528 539.491C727.499 682.679 588.136 826.248 379.639 1125.83C379.639 1125.83 252.572 1302.24 131.018 1542.26L-82.9866 1514.18C-28.6365 1356.62 50.659 1197.14 132.526 1068.8C313.964 784.191 512.262 660.753 474.371 600.771C432.759 535.66 152.513 610.368 -41.1572 759.75C-184.222 870.108 -251.594 998.975 -268.543 1032.74C-347.332 1189.51 -358.804 1348.58 -346.118 1479.65L-895.159 1407.59L-807.603 740.403C-711.577 668.382 -575.888 582.365 -380.539 478.351C-348.492 462.942 198.474 202.884 459.828 220.079C498.056 222.593 572.83 227.514 638.849 279.832Z" fill="#EE599F"/>
</g>
<mask id="mask1_3261_10592" style="mask-type:luminance" maskUnits="userSpaceOnUse" x="-6" y="-16" width="482" height="1056">
<path d="M475.167 -15.25H-5.58301V1039.48H475.167V-15.25Z" fill="white"/>
</mask>
<g mask="url(#mask1_3261_10592)">
<path d="M-237.976 -124.547C-241.255 -116.149 -244.02 -107.154 -246.08 -97.7615C-256.564 -50.5885 -250.634 6.13326 -218.103 50.2112C-172.608 111.578 -89.0431 130.02 -25.9242 118.51C41.7862 106.201 95.4572 57.7476 135.22 8.47744C173.073 -38.4278 202.398 -91.6151 222.582 -148.41L239.646 -196.425L28.3047 -271.534C-80.3529 -265.43 -200.232 -221.852 -237.976 -124.547ZM106.3 -168.878C131.088 -128.269 60.6197 -11.4397 -25.6107 -2.30376C-32.299 -1.54508 -87.0879 3.37103 -115.127 -34.1175C-133.258 -58.5295 -133.655 -92.3181 -124.407 -115.544C-104.607 -164.969 -30.5439 -191.542 29.1419 -193.237C32.2484 -193.31 35.3642 -193.279 38.4691 -193.297C70.2693 -192.783 96.6709 -184.76 106.3 -168.878Z" fill="#EE599F"/>
</g>
</g>
<defs>
<clipPath id="clip0_3261_10592">
<rect width="390" height="844" fill="white"/>
</clipPath>
<clipPath id="clip1_3261_10592">
<rect width="572" height="871" fill="white" transform="translate(-91 -27)"/>
</clipPath>
</defs>
</svg>
