<svg width="390" height="844" viewBox="0 0 390 844" fill="none" xmlns="http://www.w3.org/2000/svg">
<g clip-path="url(#clip0_3301_12562)">
<rect width="390" height="844" fill="#143465"/>
<g clip-path="url(#clip1_3301_12562)">
<mask id="mask0_3301_12562" style="mask-type:luminance" maskUnits="userSpaceOnUse" x="-62" y="-17" width="469" height="1015">
<path d="M407 997.264H-62V-17H407C407 99.8156 407 216.631 407 333.447C407 554.719 407 775.992 407 997.264Z" fill="white"/>
</mask>
<g mask="url(#mask0_3301_12562)">
<path opacity="0.36" d="M629.053 228.273C586.294 98.3286 462.949 -63.1294 316.42 -52.0066C255.791 -47.4062 184.641 -12.7133 150.297 52.1624C110.493 127.361 132.235 220.262 174.079 278.12C274.87 417.558 524.579 398.485 523.145 414.104C522.652 419.745 488.973 432.862 415.814 422.144C187.707 388.686 -19.9688 303.514 -19.9688 303.514C-276.948 203.251 -379.312 131.222 -483.227 184.872C-539.297 213.819 -565.14 263.503 -572.158 277.542C-600.345 333.928 -572.937 676.648 -300.741 855.952C-266.42 878.56 -212.278 909.063 -137.473 930.962C-136.933 927.116 -136.365 923.274 -135.761 919.439C-133.665 906.138 -130.504 892.98 -128.704 879.638C-129.179 883.173 -129.654 886.708 -130.129 890.243C-128.895 881.249 -127.57 872.301 -125.972 863.349C-124.906 857.372 -123.782 851.405 -122.621 845.445C-118.434 823.969 -113.75 802.595 -109.385 781.156C-105.713 763.129 -102.273 745.047 -99.5399 726.853C-97.3349 708.025 -96.0937 689.086 -96.3735 670.122C-96.3685 668.432 -96.308 666.756 -96.1945 665.096C-123.064 651.128 -151.63 633.26 -180.013 610.375C-298.161 515.179 -383.869 356.825 -350.478 322.421C-319.787 290.771 -216.586 392.565 -18.5662 460.945C208.059 539.228 553.363 578.512 638.384 436.341C676.569 372.534 650.193 292.425 629.053 228.273ZM526.827 272.863C497.88 317.371 346.507 302.661 295.762 220.349C291.848 214.046 260.426 161.329 284.685 115.105C300.463 85.0669 334.293 68.4243 362.058 66.6302C456.968 60.416 559.77 222.259 526.827 272.863Z" fill="#102B51"/>
</g>
</g>
<path d="M603.883 319.579C614.156 331.166 650.288 373.445 656.179 435.649C658.03 456.261 656.42 475.422 651.123 493.996C627.219 579.525 529.424 654.328 375.46 817.853C375.46 817.853 282.184 913.758 186.52 1048.88L58.7935 1012.46C106.105 921.459 168.773 831.547 230.195 760.821C366.337 603.969 498.186 546.741 480.539 506.807C461.091 463.417 283.761 483.583 152.384 557.02C55.3368 611.274 2.68914 683.63 -10.6765 702.653C-72.7922 790.961 -94.1398 886.747 -98.2546 967.674L-425.944 874.234L-312.395 476.027C-290.875 465.106 -248.532 443.965 -194.342 419.495C-194.342 419.495 221.245 231.837 506.067 273.769C570.536 283.263 603.883 319.579 603.883 319.579Z" fill="#DEF700"/>
<path d="M628.779 324.183C669.476 367.575 674.417 423.464 675.32 433.523C677.17 454.135 675.561 473.296 670.264 491.869C646.359 577.398 548.565 652.202 394.6 815.727C394.6 815.727 301.325 911.631 205.66 1046.75L77.9338 1010.33C125.245 919.332 187.914 829.421 249.336 758.695C385.477 601.843 517.326 544.615 499.679 504.682C480.231 461.292 302.901 481.458 171.525 554.896C74.477 609.149 21.8307 681.505 8.46509 700.528C-53.6506 788.836 -74.9982 884.622 -79.113 965.55L-406.802 872.109L-293.255 473.903C-228.301 438.737 -137.94 398.633 -9.64029 352.962C11.2574 346.477 367.676 237.577 525.206 271.646C548.248 276.628 593.318 286.376 628.779 324.183Z" fill="#EE599F"/>
</g>
<defs>
<clipPath id="clip0_3301_12562">
<rect width="390" height="844" fill="white"/>
</clipPath>
<clipPath id="clip1_3301_12562">
<rect width="469" height="714" fill="white" transform="translate(-62 -17)"/>
</clipPath>
</defs>
</svg>
