<svg width="390" height="844" viewBox="0 0 390 844" fill="none" xmlns="http://www.w3.org/2000/svg">
<g clip-path="url(#clip0_3261_10592)">
<rect width="390" height="844" fill="#143465"/>
<g clip-path="url(#clip1_3261_10592)">
<mask id="mask0_3261_10592" style="mask-type:luminance" maskUnits="userSpaceOnUse" x="-91" y="-27" width="572" height="1238">
<path d="M481 1210.29H-91V-27H481C481 115.502 481 258.004 481 400.506C481 670.433 481 940.361 481 1210.29Z" fill="white"/>
</mask>
<g mask="url(#mask0_3261_10592)">
<path opacity="0.36" d="M751.82 272.205C699.67 113.687 549.236 -83.2732 370.527 -69.7047C296.584 -64.0928 209.807 -21.7713 167.921 57.3698C119.375 149.104 145.892 262.432 196.926 333.013C319.852 503.112 624.401 479.845 622.652 498.898C622.052 505.779 580.976 521.781 491.75 508.705C213.547 467.891 -39.7377 363.991 -39.7377 363.991C-353.154 241.681 -477.998 153.813 -604.735 219.261C-673.119 254.573 -704.637 315.181 -713.196 332.308C-747.574 401.092 -714.147 819.172 -382.172 1037.9C-340.314 1065.48 -274.281 1102.69 -183.048 1129.41C-182.389 1124.71 -181.696 1120.03 -180.96 1115.35C-178.404 1099.12 -174.548 1083.07 -172.353 1066.8C-172.932 1071.11 -173.511 1075.42 -174.091 1079.73C-172.586 1068.76 -170.969 1057.85 -169.021 1046.93C-167.72 1039.63 -166.35 1032.36 -164.934 1025.09C-159.828 998.888 -154.115 972.814 -148.791 946.66C-144.313 924.669 -140.117 902.611 -136.784 880.416C-134.095 857.449 -132.581 834.346 -132.922 811.212C-132.916 809.15 -132.842 807.106 -132.704 805.08C-165.475 788.041 -200.314 766.244 -234.93 738.327C-379.025 622.198 -483.556 429.024 -442.832 387.055C-405.401 348.445 -279.536 472.622 -38.0271 556.038C238.368 651.535 659.507 699.457 763.2 526.025C809.771 448.187 777.603 350.463 751.82 272.205ZM627.144 326.6C591.839 380.894 407.223 362.95 345.332 262.539C340.558 254.849 302.236 190.541 331.823 134.153C351.067 97.5096 392.326 77.2076 426.189 75.0189C541.942 67.4382 667.321 264.868 627.144 326.6Z" fill="#102B51"/>
</g>
<path d="M597.732 323.562C617.009 339.738 685.174 399.084 709.479 497.671C717.37 530.364 719.352 561.549 715.267 592.669C697.239 735.856 557.875 879.425 349.378 1179.01C349.378 1179.01 222.312 1355.42 100.758 1595.44L-113.247 1567.36C-58.8972 1409.79 20.3984 1250.32 102.266 1121.97C283.704 837.369 482.001 713.93 444.11 653.946C402.499 588.835 122.253 663.543 -71.4203 812.925C-214.483 923.283 -281.857 1052.15 -298.806 1085.92C-377.595 1242.68 -389.067 1401.75 -376.381 1532.82L-925.423 1460.77L-837.864 793.575C-805.874 770.888 -742.85 726.806 -661.577 674.547C-661.577 674.547 -38.2802 273.773 429.567 273.252C535.466 273.137 597.732 323.562 597.732 323.562Z" fill="#DEF700"/>
<path d="M638.848 325.027C714.618 385.073 735.889 473.736 739.739 489.689C747.63 522.381 749.612 553.567 745.527 584.686C727.498 727.874 588.135 871.443 379.638 1171.03C379.638 1171.03 252.572 1347.44 131.017 1587.46L-82.9876 1559.37C-28.6374 1401.81 50.658 1242.33 132.525 1113.99C313.963 829.387 512.261 705.948 474.37 645.966C432.758 580.855 152.512 655.564 -41.1582 804.945C-184.223 915.303 -251.595 1044.17 -268.544 1077.94C-347.333 1234.7 -358.805 1393.77 -346.119 1524.84L-895.16 1452.79L-807.604 785.598C-711.578 713.577 -575.888 627.56 -380.54 523.546C-348.493 508.137 198.473 248.079 459.827 265.275C498.055 267.788 572.829 272.709 638.848 325.027Z" fill="#EE599F"/>
</g>
<mask id="mask1_3261_10592" style="mask-type:luminance" maskUnits="userSpaceOnUse" x="0" y="0" width="481" height="1055">
<path d="M480.75 0H0V1054.73H480.75V0Z" fill="white"/>
</mask>
<g mask="url(#mask1_3261_10592)">
<path d="M-237.976 -124.547C-241.255 -116.149 -244.02 -107.154 -246.08 -97.7615C-256.564 -50.5885 -250.634 6.13326 -218.103 50.2112C-172.608 111.578 -89.0431 130.02 -25.9242 118.51C41.7862 106.201 95.4572 57.7476 135.22 8.47744C173.073 -38.4278 202.398 -91.6151 222.582 -148.41L239.646 -196.425L28.3047 -271.534C-80.3529 -265.43 -200.232 -221.852 -237.976 -124.547ZM106.3 -168.878C131.088 -128.269 60.6197 -11.4397 -25.6107 -2.30376C-32.299 -1.54508 -87.0879 3.37103 -115.127 -34.1175C-133.258 -58.5295 -133.655 -92.3181 -124.407 -115.544C-104.607 -164.969 -30.5439 -191.542 29.1419 -193.237C32.2484 -193.31 35.3642 -193.279 38.4691 -193.297C70.2693 -192.783 96.6709 -184.76 106.3 -168.878Z" fill="#EE599F"/>
</g>
</g>
<defs>
<clipPath id="clip0_3261_10592">
<rect width="390" height="844" fill="white"/>
</clipPath>
<clipPath id="clip1_3261_10592">
<rect width="572" height="871" fill="white" transform="translate(-91 -27)"/>
</clipPath>
</defs>
</svg>
