<svg width="390" height="844" viewBox="0 0 390 844" fill="none" xmlns="http://www.w3.org/2000/svg">
<g clip-path="url(#clip0_3261_10592)">
<rect width="390" height="844" fill="#143465"/>
<g clip-path="url(#clip1_3261_10592)">
<mask id="mask0_3261_10592" style="mask-type:luminance" maskUnits="userSpaceOnUse" x="-91" y="-27" width="572" height="1238">
<path d="M481 1210.29H-91V-27H481C481 115.502 481 258.004 481 400.507C481 670.433 481 940.361 481 1210.29Z" fill="white"/>
</mask>
<g mask="url(#mask0_3261_10592)">
<path opacity="0.36" d="M751.82 272.205C699.67 113.687 549.236 -83.2732 370.527 -69.7047C296.584 -64.0928 209.807 -21.7713 167.921 57.3698C119.375 149.104 145.892 262.432 196.926 333.013C319.852 503.112 624.401 479.845 622.652 498.898C622.052 505.779 580.976 521.781 491.75 508.705C213.547 467.891 -39.7377 363.991 -39.7377 363.991C-353.154 241.681 -477.998 153.813 -604.735 219.261C-673.119 254.573 -704.637 315.181 -713.196 332.308C-747.574 401.092 -714.147 819.172 -382.172 1037.9C-340.314 1065.48 -274.281 1102.69 -183.048 1129.41C-182.389 1124.71 -181.696 1120.03 -180.96 1115.35C-178.404 1099.12 -174.548 1083.07 -172.353 1066.8C-172.932 1071.11 -173.511 1075.42 -174.091 1079.73C-172.586 1068.76 -170.969 1057.85 -169.021 1046.93C-167.72 1039.63 -166.35 1032.36 -164.934 1025.09C-159.828 998.888 -154.115 972.814 -148.791 946.66C-144.313 924.669 -140.117 902.611 -136.784 880.416C-134.095 857.449 -132.581 834.346 -132.922 811.212C-132.916 809.15 -132.842 807.106 -132.704 805.08C-165.475 788.041 -200.314 766.244 -234.93 738.327C-379.025 622.198 -483.556 429.024 -442.832 387.055C-405.401 348.445 -279.536 472.622 -38.0271 556.038C238.368 651.535 659.507 699.458 763.2 526.025C809.771 448.187 777.603 350.463 751.82 272.205ZM627.144 326.6C591.839 380.894 407.223 362.95 345.332 262.539C340.558 254.849 302.236 190.541 331.823 134.153C351.067 97.5096 392.326 77.2076 426.189 75.0189C541.942 67.4382 667.321 264.868 627.144 326.6Z" fill="#102B51"/>
</g>
<path d="M645.3 215.04C667.139 233.367 744.363 300.6 771.899 412.29C780.838 449.327 783.084 484.657 778.455 519.912C758.031 682.13 600.146 844.78 363.94 1184.18C363.94 1184.18 219.987 1384.03 82.2776 1655.95L-160.169 1624.14C-98.5953 1445.63 -8.76131 1264.96 83.9861 1119.56C289.537 797.134 514.188 657.29 471.262 589.333C424.12 515.569 106.629 600.207 -112.783 769.442C-274.859 894.466 -351.187 1040.46 -370.388 1078.71C-459.648 1256.32 -472.645 1436.52 -458.273 1585.01L-1080.28 1503.38L-981.087 747.52C-944.846 721.818 -873.446 671.877 -781.372 612.672C-781.372 612.672 -75.2383 158.635 454.786 158.044C574.759 157.914 645.3 215.04 645.3 215.04Z" fill="#DEF700"/>
<path d="M691.881 216.7C777.72 284.726 801.818 385.172 806.18 403.246C815.119 440.283 817.365 475.613 812.737 510.869C792.313 673.086 634.428 835.736 398.221 1175.14C398.221 1175.14 254.268 1374.99 116.559 1646.91L-125.887 1615.09C-64.3137 1436.59 25.5201 1255.92 118.268 1110.52C323.819 788.09 548.47 648.247 505.544 580.292C458.402 506.528 140.911 591.166 -78.4985 760.401C-240.577 885.425 -316.903 1031.42 -336.103 1069.67C-425.364 1247.28 -438.36 1427.48 -423.988 1575.97L-1046 1494.34L-946.805 738.482C-838.017 656.889 -684.295 559.441 -462.984 441.602C-426.679 424.146 192.98 129.525 489.068 149.006C532.376 151.854 617.088 157.429 691.881 216.7Z" fill="#EE599F"/>
</g>
<path d="M-237.976 -113.026C-241.255 -105.405 -244.02 -97.2417 -246.08 -88.7183C-256.564 -45.9091 -250.634 5.56562 -218.103 45.5661C-172.608 101.256 -89.0431 117.992 -25.9242 107.547C41.7862 96.3769 95.4572 52.4054 135.22 7.69295C173.073 -34.8733 202.398 -83.1405 222.582 -134.681L239.646 -178.255L28.3047 -246.416C-80.3529 -240.877 -200.232 -201.329 -237.976 -113.026ZM106.3 -153.256C131.088 -116.404 60.6197 -10.3817 -25.6107 -2.09093C-32.299 -1.40243 -87.0879 3.05891 -115.127 -30.9617C-133.258 -53.1154 -133.655 -83.7785 -124.407 -104.855C-104.607 -149.709 -30.5439 -173.824 29.1419 -175.362C32.2484 -175.428 35.3642 -175.4 38.4691 -175.416C70.2693 -174.949 96.6709 -167.669 106.3 -153.256Z" fill="#EE599F"/>
</g>
<defs>
<clipPath id="clip0_3261_10592">
<rect width="390" height="844" fill="white"/>
</clipPath>
<clipPath id="clip1_3261_10592">
<rect width="572" height="871" fill="white" transform="translate(-91 -27)"/>
</clipPath>
</defs>
</svg>
