<svg width="390" height="844" viewBox="0 0 390 844" fill="none" xmlns="http://www.w3.org/2000/svg">
<g clip-path="url(#clip0_3301_12562)">
<rect width="390" height="844" fill="#143465"/>
<mask id="mask0_3301_12562" style="mask-type:luminance" maskUnits="userSpaceOnUse" x="-290" y="32" width="750" height="1477">
<path d="M374.598 1508.44L-289.895 1469.24L-205.122 32.2075L459.37 71.4068C449.607 236.914 439.843 402.422 430.08 567.93C411.586 881.435 393.092 1194.94 374.598 1508.44Z" fill="white"/>
</mask>
<g mask="url(#mask0_3301_12562)">
<path opacity="0.36" d="M753.482 437.475C703.76 249.793 542.495 10.7254 333.959 14.2375C247.675 15.688 143.967 58.8952 89.8859 147.942C27.2046 251.159 50.245 384.601 104.695 470.074C235.844 676.058 591.233 669.905 587.895 691.914C586.726 699.865 537.912 715.636 435.155 694.334C114.762 627.866 -172.36 489.834 -172.36 489.834C-528.075 326.3 -667.087 215.691 -818.801 283.019C-900.662 319.345 -941.429 387.579 -952.546 406.883C-997.195 484.416 -987.008 972.283 -616.339 1249.08C-569.602 1283.98 -495.441 1331.72 -391.285 1369C-390.198 1363.59 -389.073 1358.2 -387.896 1352.82C-383.816 1334.15 -378.237 1315.77 -374.571 1297.01C-375.54 1301.98 -376.508 1306.95 -377.477 1311.92C-374.976 1299.28 -372.351 1286.71 -369.34 1274.16C-367.329 1265.78 -365.239 1257.42 -363.094 1249.08C-355.368 1219 -346.946 1189.11 -338.968 1159.1C-332.26 1133.86 -325.874 1108.53 -320.481 1082.98C-315.783 1056.49 -312.442 1029.76 -311.253 1002.87C-311.105 1000.47 -310.879 998.105 -310.58 995.762C-347.482 973.727 -386.461 946.023 -424.763 911.226C-584.201 766.475 -692.399 534.951 -642.214 488.998C-596.086 446.72 -458.376 599.57 -183.531 713.003C131.015 842.858 616.968 927.378 749.312 733.052C808.746 645.84 778.071 530.135 753.482 437.475ZM604.918 492.108C560.185 552.748 346.945 519.255 281.927 398.393C276.908 389.134 236.795 311.818 275.03 248.354C299.896 207.113 349.218 186.361 388.706 186.14C523.696 185.268 655.822 423.164 604.918 492.108Z" fill="#102B51"/>
</g>
<path d="M887.465 187.531C837.332 60.5554 692.715 -97.2142 520.916 -86.3455C449.832 -81.8503 366.412 -47.9498 326.145 15.4439C279.476 88.9248 304.968 179.703 354.028 236.24C472.201 372.493 764.973 353.855 763.292 369.117C762.715 374.629 723.228 387.447 637.452 376.973C370.006 344.28 135.85 244.941 135.85 244.941C-165.446 146.968 -294.797 92.6971 -416.634 145.122C-482.373 173.407 -512.672 221.956 -520.9 235.675C-553.949 290.773 -521.815 625.664 -202.677 800.872C-162.437 822.964 -98.9574 852.77 -11.252 874.168C-10.6186 870.41 -9.95274 866.656 -9.24469 862.908C-6.78796 849.912 -3.08142 837.054 -0.970581 824.017C-1.52785 827.471 -2.08439 830.925 -2.64166 834.38C-1.19453 825.591 -4.51451 824.398 -2.64166 815.65C-1.39113 809.809 -12.6142 790.868 -11.252 785.044C-6.34373 764.059 -44.1843 765.231 -11.252 730.473C-44.1843 730.473 -14.456 677.023 -11.252 659.244C-8.66669 640.847 -48.8214 640.438 -2.64166 618.398C-50.8287 618.398 -31.3818 587.94 -31.2488 586.317C-62.7524 572.669 -27.8505 583.267 -61.1287 560.905C-199.651 467.884 -300.14 313.147 -260.991 279.529C-225.007 248.601 -96.3194 455.312 135.85 522.13C401.558 598.625 798.722 529.77 898.405 390.846C943.176 328.497 912.251 250.218 887.465 187.531ZM767.61 231.103C733.671 274.594 556.193 260.22 496.696 179.789C492.107 173.629 455.266 122.117 483.709 76.9489C502.209 47.5967 541.872 31.3343 574.426 29.5812C685.703 23.5089 806.234 181.655 767.61 231.103Z" fill="#EE599F"/>
</g>
<defs>
<clipPath id="clip0_3301_12562">
<rect width="390" height="844" fill="white"/>
</clipPath>
</defs>
</svg>
