<svg width="91" height="79" viewBox="0 0 91 79" fill="none" xmlns="http://www.w3.org/2000/svg">
<path d="M44.8645 78.3169C66.4912 78.3169 84.023 60.7851 84.023 39.1585C84.023 17.5319 66.4912 0 44.8645 0C23.2379 0 5.70605 17.5319 5.70605 39.1585C5.70605 60.7851 23.2379 78.3169 44.8645 78.3169Z" fill="#FB58A7"/>
<path d="M89.4839 29.3041C87.3578 19.4715 79.5807 6.71528 68.7818 6.40236C64.3149 6.2735 58.8449 8.26149 55.8353 12.7437C52.3471 17.9376 53.2215 24.8986 55.8353 29.4514C62.1306 40.4252 80.5348 40.9498 80.3109 42.0818C80.2311 42.4899 77.6694 43.1894 72.4019 41.8456C55.9826 37.6426 41.4531 29.8165 41.4531 29.8165C23.4354 20.5054 16.505 14.4525 8.4948 17.5756C4.17215 19.2599 1.90191 22.6959 1.27913 23.6684C-1.21506 27.5769 -1.85012 52.8501 16.6738 68.0576C19.9932 70.785 26.1229 74.9849 35.5995 77.2153C39.3853 74.8223 43.2601 72.276 47.2023 69.567C51.0095 66.9532 54.6511 64.3424 58.1301 61.7593C54.7493 62.1213 48.3834 62.3452 41.0911 59.7007C38.0907 58.6116 32.547 56.1665 27.3899 51.0278C19.4839 43.1556 14.4373 30.9147 17.1432 28.6568C19.6312 26.5768 26.3928 34.8171 40.3456 41.3425C56.3139 48.8097 81.2558 54.3411 88.5666 44.5975C91.8492 40.2196 90.5361 34.1606 89.4839 29.3041ZM81.6669 31.7799C79.2095 34.811 68.2541 32.5714 65.177 26.1626C64.9408 25.6717 63.0479 21.573 65.177 18.3794C66.5606 16.3024 69.1622 15.3483 71.2085 15.4281C78.194 15.7042 84.4648 28.3316 81.6669 31.7799Z" fill="#DFF800"/>
</svg>
