<svg width="319" height="134" viewBox="0 0 319 134" fill="none" xmlns="http://www.w3.org/2000/svg">
<path d="M30.2033 28.5101V31.1516H29.1295C26.5341 31.1516 24.3866 29.7649 23.4018 27.6174C22.0151 30.2128 19.2847 31.9124 15.9714 31.9124C12.3022 31.9124 9.84173 30.8846 7.87214 28.6021C4.69382 28.6911 2.85922 30.7067 2.85922 33.5261V42.7911H0.217773V33.5261C0.217773 29.455 3.08318 26.3657 7.01927 26.0527V17.7234C7.01927 12.5755 10.8234 8.77441 15.9683 8.77441C21.1162 8.77441 24.9173 12.5786 24.9173 17.7234V24.212C24.9173 26.7185 26.6629 28.507 29.1234 28.507H30.2033V28.5101ZM22.236 22.9603V17.7234C22.236 14.0082 19.6405 11.4128 15.9714 11.4128C12.3022 11.4128 9.70674 14.0082 9.70674 17.7234V26.6724C11.1394 28.461 12.928 29.2219 15.9714 29.2219C19.6405 29.2249 22.236 26.6295 22.236 22.9603Z" fill="white"/>
<path d="M38.0817 0V26.9422C38.0817 29.3136 36.2931 31.1482 33.8756 31.1482H30.0714L28.9517 30.7003V28.9547L30.0714 28.5068H33.2037C34.4125 28.5068 35.4402 27.611 35.4402 26.2243V0H38.0817Z" fill="white"/>
<path d="M47.0764 0V26.2243C47.0764 27.611 48.1072 28.5068 49.3129 28.5068H52.4022V31.1482H48.6441C46.2726 31.1482 44.438 29.3136 44.438 26.9422V0H47.0764Z" fill="white"/>
<path d="M59.069 28.5103V31.1517H51.6846V28.5103H59.069Z" fill="white"/>
<path d="M65.5607 28.5098V31.1512H58.1763V28.5098H65.5607Z" fill="white"/>
<path d="M72.049 28.5098V31.1512H64.6646V28.5098H72.049Z" fill="white"/>
<path d="M78.5377 28.5098V31.1512H71.1533V28.5098H78.5377Z" fill="white"/>
<path d="M85.0294 28.5098V31.1512H77.645V28.5098H85.0294Z" fill="white"/>
<path d="M91.5182 28.5098V31.1512H84.1338V28.5098H91.5182Z" fill="white"/>
<path d="M98.0065 28.5098V31.1512H90.6221V28.5098H98.0065Z" fill="white"/>
<path d="M104.495 28.5098V31.1512H97.1108V28.5098H104.495Z" fill="white"/>
<path d="M110.987 28.5098V31.1512H103.603V28.5098H110.987Z" fill="white"/>
<path d="M117.476 28.5098V31.1512H110.091V28.5098H117.476Z" fill="white"/>
<path d="M123.964 28.5098V31.1512H116.58V28.5098H123.964Z" fill="white"/>
<path d="M130.453 28.5098V31.1512H123.068V28.5098H130.453Z" fill="white"/>
<path d="M136.944 28.5098V31.1512H129.56V28.5098H136.944Z" fill="white"/>
<path d="M162.72 28.5098V31.1512H154.845C152.741 31.1512 150.774 30.2554 149.43 28.5558C147.461 30.2554 145.359 31.1512 143.479 31.1512H136.407V31.1052L135.333 30.7033V28.9577L136.407 28.5558V28.5098H142.985C144.236 28.5098 146.7 27.8379 148.087 26.6752L139.451 13.698V11.4615C142.853 9.8509 146.252 8.95508 149.7 8.95508C155.115 8.95508 158.606 11.2376 158.606 15.1307C158.606 15.8916 158.471 16.8303 158.159 17.8151C156.861 21.8862 154.489 24.2147 151.848 26.7641C152.968 27.8839 154.489 28.5098 156.189 28.5098H162.72ZM155.247 17.3642C155.517 16.5573 155.606 15.9314 155.606 15.3056C155.606 12.9341 153.548 11.4585 149.608 11.4585C147.102 11.4585 144.329 12.1303 141.911 13.247V13.517L149.786 25.3314C152.069 23.0489 154.127 20.9444 155.247 17.3642Z" fill="white"/>
<path d="M170.375 0V26.9422C170.375 29.3136 168.587 31.1482 166.169 31.1482H162.365L161.245 30.7003V28.9547L162.365 28.5068H165.497C166.706 28.5068 167.734 27.611 167.734 26.2243V0H170.375Z" fill="white"/>
<path d="M213.294 28.5101V31.1516H212.221C209.625 31.1516 207.478 29.7649 206.493 27.6174C205.106 30.2128 202.376 31.9124 199.066 31.9124C195.396 31.9124 192.933 30.8846 190.966 28.6021C187.788 28.6911 185.953 30.7067 185.953 33.5261V42.7911H183.312V33.5261C183.312 29.455 186.177 26.3657 190.114 26.0527V17.7234C190.114 12.5755 193.918 8.77441 199.063 8.77441C204.207 8.77441 208.012 12.5786 208.012 17.7234V24.212C208.012 26.7185 209.757 28.507 212.218 28.507H213.294V28.5101ZM205.327 22.9603V17.7234C205.327 14.0082 202.732 11.4128 199.063 11.4128C195.393 11.4128 192.798 14.0082 192.798 17.7234V26.6724C194.231 28.461 196.019 29.2219 199.063 29.2219C202.732 29.2249 205.327 26.6295 205.327 22.9603Z" fill="white"/>
<path d="M220.142 28.5098V31.1512H212.757V28.5098H220.142Z" fill="white"/>
<path d="M226.63 28.5098V31.1512H219.246V28.5098H226.63Z" fill="white"/>
<path d="M233.119 28.5098V31.1512H225.735V28.5098H233.119Z" fill="white"/>
<path d="M239.611 28.5098V31.1512H232.227V28.5098H239.611Z" fill="white"/>
<path d="M246.099 28.5098V31.1512H238.715V28.5098H246.099Z" fill="white"/>
<path d="M252.588 28.5098V31.1512H245.204V28.5098H252.588Z" fill="white"/>
<path d="M259.077 28.5098V31.1512H251.692V28.5098H259.077Z" fill="white"/>
<path d="M265.568 28.5098V31.1512H258.184V28.5098H265.568Z" fill="white"/>
<path d="M297.702 28.5103V31.1518H265.032V31.1057L263.958 30.7039V28.9153L265.032 28.5563V28.5103H268.79V11.7719H271.431V17.5457C275.058 13.4286 279.712 9.48944 284.632 9.48944C291.167 9.48944 294.747 12.6218 294.747 21.2578V28.5072H297.702V28.5103ZM292.152 21.2578C292.152 14.3214 289.155 12.0849 284.501 12.0849C280.206 12.0849 275.552 15.4872 271.434 20.2761V28.5103H292.155V21.2578H292.152ZM282.709 4.25256C282.709 3.26777 283.559 2.41797 284.544 2.41797C285.571 2.41797 286.378 3.26777 286.378 4.25256C286.378 5.23735 285.571 6.08716 284.544 6.08716C283.559 6.08716 282.709 5.23735 282.709 4.25256Z" fill="white"/>
<path d="M296.763 28.5096H301.506C302.714 28.5096 303.699 27.6138 303.699 26.2271V9.9366H306.384V26.9419C306.384 29.3134 304.549 31.148 302.178 31.148H296.763V28.5096ZM302.892 4.78869C302.892 3.8039 303.742 2.9541 304.727 2.9541C305.712 2.9541 306.516 3.8039 306.516 4.78869C306.516 5.77348 305.712 6.62329 304.727 6.62329C303.742 6.62329 302.892 5.77348 302.892 4.78869Z" fill="white"/>
<path d="M312.605 31.1482V0H315.246V31.1482H312.605Z" fill="white"/>
<path d="M273.21 133.925C294.837 133.925 312.369 116.394 312.369 94.7669C312.369 73.1402 294.837 55.6084 273.21 55.6084C251.584 55.6084 234.052 73.1402 234.052 94.7669C234.052 116.394 251.584 133.925 273.21 133.925Z" fill="#FB58A7"/>
<path d="M317.83 84.9125C315.704 75.0799 307.926 62.3237 297.127 62.0108C292.661 61.8819 287.191 63.8699 284.181 68.3521C280.693 73.546 281.567 80.507 284.181 85.0598C290.476 96.0336 308.881 96.5582 308.657 97.6902C308.577 98.0983 306.015 98.7977 300.748 97.454C284.328 93.251 269.799 85.4249 269.799 85.4249C251.781 76.1138 244.851 70.0609 236.84 73.184C232.518 74.8683 230.248 78.3043 229.625 79.2768C227.131 83.1853 226.496 108.459 245.019 123.666C248.339 126.393 254.469 130.593 263.945 132.824C267.731 130.431 271.606 127.884 275.548 125.175C279.355 122.562 282.997 119.951 286.476 117.368C283.095 117.73 276.729 117.954 269.437 115.309C266.436 114.22 260.893 111.775 255.736 106.636C247.83 98.764 242.783 86.5231 245.489 84.2652C247.977 82.1852 254.739 90.4255 268.691 96.9509C284.66 104.418 309.602 109.95 316.912 100.206C320.195 95.828 318.882 89.769 317.83 84.9125ZM310.013 87.3883C307.555 90.4194 296.6 88.1798 293.523 81.771C293.286 81.2801 291.394 77.1814 293.523 73.9878C294.906 71.9108 297.508 70.9567 299.554 71.0365C306.54 71.3126 312.81 83.94 310.013 87.3883Z" fill="#DFF800"/>
<path d="M203.98 69.4016C197.075 65.9595 186.487 67.2173 180.434 73.712C177.158 77.2278 174.477 83.0752 175.649 88.5268C177.02 94.908 183.757 99.47 183.76 99.473H171.166C172.673 86.7567 168.144 73.4298 159.597 69.2298C152.471 65.7294 140.994 67.6867 135.539 74.7919C131.947 79.4766 132.082 84.9497 132.146 87.5144C132.327 94.7148 135.889 103.731 143.491 107.219C145.543 108.161 147.455 108.502 148.841 108.628C148.182 110.214 147.077 111.834 145.237 112.88C143.761 113.714 142.282 113.917 141.236 113.944L142.436 127.339C146.715 126.934 156.345 125.381 163.273 117.853C163.457 117.653 163.625 117.439 163.807 117.233C175.323 117.307 172.43 117.383 184.923 117.457C199.247 117.773 206.426 117.751 207.634 117.448C207.634 117.448 208.26 117.911 209.386 115.736C210.092 114.358 221.593 78.185 203.98 69.4016ZM157.928 98.9638C155.103 101.332 141.705 93.8895 142.604 87.7599C143.031 84.8454 146.685 82.2622 149.762 82.4463C156.539 82.8451 160.644 96.6874 157.928 98.9638ZM200.501 99.4792C197.544 101.958 183.518 94.1656 184.456 87.7476C184.904 84.695 188.727 81.9922 191.948 82.1824C199.047 82.6058 203.345 97.0954 200.501 99.4792Z" fill="#EFEFEF"/>
<path d="M128.142 90.1064C127.961 88.0203 127.572 85.9586 126.927 83.9676C126.811 83.6087 126.688 83.2497 126.565 82.8938C126.047 81.4611 125.43 80.0468 124.712 78.6509C123.36 76.0218 121.583 73.8313 119.393 72.0765C118.675 71.4383 117.748 70.7818 116.613 70.1038C115.478 69.4258 114.082 68.8276 112.429 68.3122C110.775 67.7937 108.772 67.536 106.422 67.536H86.1369V84.5075H106.422C107.551 84.4861 111.097 84.5597 113.775 87.1244C115.601 88.8701 116.187 90.9716 116.702 92.8092C117.475 95.5765 117.402 97.9694 117.239 99.4696H81.6639C83.1702 86.7532 78.6421 73.4263 70.0949 69.2264C62.9682 65.726 51.4913 67.6832 46.0366 74.7885C42.4441 79.4731 42.5791 84.9462 42.6435 87.511C42.8245 94.7113 46.3863 103.728 53.9885 107.216C56.0409 108.158 57.9522 108.498 59.3389 108.624C58.6793 110.21 57.5749 111.83 55.7342 112.876C54.2585 113.711 52.7798 113.913 51.7336 113.941L52.9332 127.335C57.2129 126.93 66.843 125.378 73.7703 117.849C73.896 117.714 74.0095 117.567 74.1323 117.429H117.54C119.77 117.429 121.583 116.742 122.979 115.367C124.372 113.993 125.458 112.229 126.237 110.078C127.013 107.928 127.563 105.618 127.882 103.148C128.201 100.678 128.36 98.2977 128.36 96.006C128.36 93.7143 128.29 91.7631 128.152 90.1494C128.145 90.1371 128.142 90.1218 128.142 90.1064ZM68.4321 98.9634C65.6066 101.332 52.2092 93.8891 53.108 87.7595C53.5345 84.845 57.1883 82.2618 60.2624 82.4459C67.0424 82.8447 71.1472 96.687 68.4321 98.9634Z" fill="#EFEFEF"/>
<path d="M39.1094 90.1066C38.9284 88.0235 38.5388 85.9588 37.8945 83.9677C37.7779 83.6057 37.6552 83.2498 37.5294 82.894C37.011 81.4613 36.3943 80.047 35.6764 78.6511C34.3235 76.0219 32.5503 73.8314 30.3567 72.0766C29.6388 71.4385 28.7123 70.782 27.5772 70.104C26.4421 69.4259 25.0462 68.8277 23.3926 68.3123C21.739 67.7938 19.7357 67.5361 17.3857 67.5361H0V84.5077H17.3888C18.5177 84.4831 22.0642 84.5598 24.7425 87.1246C26.5679 88.8702 27.1538 90.9748 27.6662 92.8094C28.4393 95.5766 28.3657 97.9695 28.2031 99.4697H0V117.432H28.5068C30.7371 117.432 32.5503 116.745 33.9431 115.371C35.3359 113.996 36.4219 112.232 37.2012 110.082C37.9773 107.931 38.5265 105.621 38.8456 103.151C39.1646 100.682 39.3241 98.3009 39.3241 96.0092C39.3241 93.7175 39.2536 91.7663 39.1155 90.1526C39.1125 90.1372 39.1094 90.1219 39.1094 90.1066Z" fill="#EFEFEF"/>
<path d="M107.793 121.402C106.149 121.402 104.747 121.976 103.581 123.126C102.415 124.276 101.833 125.672 101.833 127.314C101.833 128.955 102.415 130.36 103.581 131.526C104.747 132.692 106.152 133.275 107.793 133.275C109.435 133.275 110.831 132.692 111.981 131.526C113.132 130.36 113.705 128.955 113.705 127.314C113.705 125.669 113.132 124.276 111.981 123.126C110.834 121.976 109.438 121.402 107.793 121.402Z" fill="#EFEFEF"/>
</svg>
