<svg width="306" height="84" viewBox="0 0 306 84" fill="none" xmlns="http://www.w3.org/2000/svg">
<path d="M267.16 83.23L38.4601 82.94C17.1901 82.91 -0.0299609 65.65 3.91391e-05 44.38L0.0100489 38.46C0.0400489 17.19 17.3 -0.0299609 38.57 3.91392e-05L267.27 0.290017C288.54 0.320017 305.76 17.58 305.73 38.85L305.72 44.77C305.7 66.04 288.43 83.26 267.16 83.23Z" fill="#EF59A0"/>
<path d="M113.71 38.2098L124.36 38.2198C124.35 43.8298 121.54 50.7298 113.06 50.7198C104.77 50.7098 101.72 43.8698 101.73 38.5698C101.74 31.9498 105.94 26.2498 113.31 26.2598C117.03 26.2598 120.08 27.9998 122.44 31.0598L119.98 33.0698C117.9 30.4498 115.57 29.3798 113.15 29.3698C109.27 29.3698 105.36 32.2898 105.35 38.3698C105.34 44.1998 108.96 47.6998 112.93 47.7098C115.86 47.7098 119.33 46.7698 120.63 41.3198L113.7 41.3098L113.71 38.2098Z" fill="white"/>
<path d="M177.43 49.4502C177.42 53.7402 175.62 56.9502 169.13 56.9402C165.47 56.9402 163.14 55.8502 162.11 53.4902L165.04 52.4502C165.86 53.7002 166.99 54.3202 169.45 54.3202C171.91 54.3202 174.05 53.1802 174.06 49.7102V48.0502C172.26 49.7802 170.59 50.1802 168.61 50.1802C164.7 50.1702 161.55 47.6502 161.56 42.3702C161.57 36.5702 164.97 34.4502 168.31 34.4502C170.89 34.4502 172.56 34.7602 174.29 36.6602V34.9202H177.44L177.43 49.4502ZM174.04 42.3502C174.04 38.9802 171.84 37.4302 169.38 37.4302C166.39 37.4302 164.87 39.4202 164.87 42.2702C164.87 45.4102 166.5 47.1902 169.31 47.1902C172.46 47.2002 174.04 45.0702 174.04 42.3502Z" fill="white"/>
<path d="M179.66 50.2096L179.69 26.3496H183.09L183.06 50.2096H179.66Z" fill="white"/>
<path d="M192.11 50.2195C190.38 50.2195 188.83 49.6295 187.63 48.5195C186.43 47.4095 185.61 45.8095 185.24 43.8895C184.79 41.4995 185.06 39.3595 186.04 37.7195C187.01 36.0795 188.62 35.0095 190.69 34.6195C191.18 34.5295 191.67 34.4795 192.13 34.4795C194 34.4795 195.59 35.2395 196.86 36.7195C197.92 37.9495 198.71 39.6595 199.16 41.6595L199.2 41.8495L188.67 43.8395C189.2 46.2695 190.38 47.4495 192.3 47.4495C192.63 47.4495 192.98 47.4195 193.34 47.3495C194.8 47.0695 195.61 46.1695 196.45 44.8095L196.54 44.6595L199.19 45.9695L199.1 46.1395C197.96 48.3095 196.19 49.5995 193.7 50.0695C193.16 50.1695 192.62 50.2195 192.11 50.2195ZM191.88 37.0595C191.66 37.0595 191.44 37.0795 191.22 37.1195C190.15 37.3195 189.3 37.8595 188.77 38.6795C188.26 39.4595 188.08 40.4395 188.24 41.5195L195.41 40.1595C194.99 38.3295 193.56 37.0695 191.88 37.0595Z" fill="white"/>
<path d="M209.14 50.2795L209.17 27.0195L217.89 27.0295C222.87 27.0395 225.42 30.4696 225.41 33.6296C225.4 38.5796 222.15 40.8096 217.71 40.8096L212.87 40.7996L212.86 50.2896L209.14 50.2795ZM217.34 37.7095C220.18 37.7095 221.75 36.6395 221.76 33.9695C221.76 31.0095 219.94 30.1196 217.35 30.1196L212.88 30.1096L212.87 37.6995L217.34 37.7095Z" fill="white"/>
<path d="M227.74 50.2701L227.77 26.4102H231.17L231.14 50.2701H227.74Z" fill="white"/>
<path d="M246.85 50.2898H243.93V48.7898C243.07 49.4298 241.89 50.2898 239.16 50.2898C235.86 50.2898 233.9 48.3298 233.9 45.0698C233.9 42.5698 235.53 40.0398 239.15 40.0498C241.47 40.0498 242.69 40.5998 243.58 41.2498V40.0298C243.58 38.9298 243.19 37.4798 239.75 37.4698C238.21 37.4698 237.13 37.8298 236 38.2198L235.6 38.3598L235.04 35.5298L235.18 35.4698C236.71 34.8498 238.29 34.5498 239.99 34.5498C244.69 34.5598 246.87 36.4998 246.86 40.6598L246.85 46.4198V50.2898ZM240.32 42.5898C237.51 42.5898 237.09 44.1998 237.09 45.1698C237.09 46.7498 238.17 47.6198 240.14 47.6198C243.29 47.6198 243.63 45.9298 243.63 45.1998C243.62 43.9998 242.76 42.5998 240.32 42.5898Z" fill="white"/>
<path d="M253.5 47.05L247.79 34.54H251.48L255.43 43.7L259.6 34.55H263.35L252.31 56.8101H248.56L253.5 47.05Z" fill="white"/>
<path d="M133.83 37.4895C136.63 37.4895 138.91 39.7794 138.91 42.5794C138.91 45.3794 136.62 47.6594 133.82 47.6594C131.02 47.6594 128.74 45.3694 128.74 42.5694C128.75 39.7694 131.03 37.4895 133.83 37.4895ZM133.83 34.3994C129.32 34.3894 125.65 38.0495 125.65 42.5595C125.64 47.0695 129.3 50.7395 133.81 50.7395C138.32 50.7495 141.99 47.0894 141.99 42.5794C142 38.0694 138.35 34.4094 133.83 34.3994Z" fill="white"/>
<path d="M151.96 37.5197C154.76 37.5197 157.04 39.8097 157.04 42.6097C157.04 45.4097 154.75 47.6897 151.95 47.6897C149.15 47.6897 146.87 45.3997 146.87 42.5997C146.88 39.7897 149.16 37.5097 151.96 37.5197ZM151.97 34.4297C147.46 34.4197 143.79 38.0797 143.79 42.5897C143.78 47.0997 147.44 50.7697 151.95 50.7697C156.46 50.7797 160.13 47.1197 160.13 42.6097C160.13 38.0997 156.48 34.4297 151.97 34.4297Z" fill="white"/>
<path d="M43.2101 18.3994L43.1802 41.4794L43.1602 64.9894L66.4802 41.7294L43.2101 18.3994Z" fill="white"/>
<path d="M76.03 32.1996L67.6899 27.3696L46.6 15.1596C45.69 14.6296 44.64 14.8296 43.96 15.4396L68.33 39.8696L76.03 32.1996Z" fill="white"/>
<path d="M87.24 38.6896L78.3799 33.5596L70.1899 41.7296L78.08 49.6495L87.23 44.3796C89.42 43.1196 89.43 39.9596 87.24 38.6896Z" fill="white"/>
<path d="M44.1401 67.7091C44.8101 68.1691 45.7302 68.2691 46.5402 67.8091L67.6602 55.6491L75.7302 50.9991L68.3301 43.5791L44.1401 67.7091Z" fill="white"/>
</svg>
