<svg width="661" height="633" viewBox="0 0 661 633" fill="none" xmlns="http://www.w3.org/2000/svg">
<path fill-rule="evenodd" clip-rule="evenodd" d="M337.101 1.48659C513.251 18.0966 617.241 134.217 634.761 314.547C651.881 490.657 494.101 621.817 317.161 621.817C140.221 621.817 -39.1193 463.617 7.48074 292.937C57.8107 108.607 161.241 -15.0934 337.101 1.48659Z" fill="#00C0A1"/>
<path fill-rule="evenodd" clip-rule="evenodd" d="M361.681 12.6565C537.831 29.2665 641.821 145.386 659.341 325.716C676.461 501.826 518.681 632.987 341.741 632.987C164.801 632.987 -14.5392 474.786 32.0608 304.106C82.3908 119.776 185.821 -3.92349 361.681 12.6565Z" fill="#143465"/>
<path d="M472.621 322.087C472.621 250.297 414.421 192.097 342.631 192.097C278.841 192.097 225.781 238.047 214.751 298.657C214.711 298.657 214.661 298.647 214.621 298.647C213.521 304.617 212.831 310.737 212.591 316.957C212.641 316.967 212.701 316.967 212.751 316.967C212.681 318.667 212.641 320.367 212.641 322.077C212.641 357.497 226.811 389.607 249.791 413.047C249.751 413.127 249.711 413.197 249.671 413.277C254.451 418.147 259.611 422.637 265.091 426.717C265.121 426.647 265.161 426.567 265.191 426.497C286.821 442.567 313.611 452.067 342.621 452.067C358.431 452.067 373.571 449.247 387.591 444.077C387.591 444.117 387.601 444.157 387.601 444.187C394.381 441.677 400.881 438.617 407.071 435.067C407.071 435.037 407.061 435.017 407.061 434.987C446.231 412.607 472.621 370.427 472.621 322.087ZM420.591 261.667C422.871 259.337 425.561 256.567 428.451 253.017C443.541 271.507 452.761 294.967 453.281 320.557C434.751 315.677 411.261 312.397 384.981 315.597C382.901 315.847 380.221 316.187 377.061 316.687C374.711 310.937 372.121 304.937 369.281 298.847C368.831 297.887 368.391 296.937 367.931 295.997C377.891 291.997 387.881 287.097 397.021 281.047C409.771 272.617 419.201 263.087 420.591 261.667ZM342.801 212.317C371.061 212.317 396.841 222.927 416.381 240.377C413.141 244.177 409.501 247.997 405.411 251.707C393.731 262.307 382.881 268.057 376.091 271.607C370.191 274.687 364.751 277.047 359.351 279.037C345.791 253.797 330.741 232.197 317.501 215.227C325.631 213.327 334.091 212.317 342.801 212.317ZM295.741 222.817C297.031 224.547 298.331 226.317 299.651 228.147C301.121 230.177 309.961 242.477 319.551 257.987C325.001 266.817 330.701 276.047 336.401 285.937C335.341 286.217 334.261 286.497 333.161 286.787C314.501 291.647 300.511 293.497 276.091 296.737C261.571 298.657 254.101 299.627 243.631 299.877C240.541 299.947 237.561 299.947 234.671 299.897C241.881 265.717 264.911 237.357 295.741 222.817ZM232.281 322.837C232.281 321.307 232.321 319.787 232.381 318.277C243.281 318.677 255.291 318.597 268.231 317.687C273.881 317.287 290.991 315.937 313.261 311.407C321.461 309.737 333.131 307.307 346.051 303.507C349.081 309.307 352.081 315.347 354.991 321.677C345.981 324.367 335.841 328.257 325.301 333.917C320.901 336.277 308.391 343.277 294.411 355.387C290.951 358.377 281.581 366.727 271.371 379.467C267.831 383.887 263.831 389.297 259.711 395.707C242.641 376.247 232.281 350.757 232.281 322.837ZM342.801 433.357C316.781 433.357 292.871 424.367 273.991 409.317C279.801 399.507 287.751 388.547 298.601 377.897C307.661 369.007 326.311 352.907 354.621 342.817C356.031 342.317 358.881 341.327 362.931 340.177C364.021 342.927 365.091 345.727 366.141 348.577C372.971 367.107 380.741 392.837 385.321 424.867C372.231 430.327 357.871 433.357 342.801 433.357ZM404.371 414.617C403.891 411.547 403.371 408.387 402.791 405.117C399.431 386.227 395.541 371.517 393.371 363.757C392.521 360.717 389.491 350.047 384.341 335.657C391.791 334.587 400.311 333.857 409.601 333.907C428.091 334.017 442.171 337.207 447.821 338.617C449.261 338.977 450.651 339.357 452.031 339.737C447.241 370.897 429.451 397.767 404.371 414.617Z" fill="white"/>
</svg>
