<svg width="661" height="633" viewBox="0 0 661 633" fill="none" xmlns="http://www.w3.org/2000/svg">
<path fill-rule="evenodd" clip-rule="evenodd" d="M337.101 1.48659C513.251 18.0966 617.241 134.217 634.761 314.547C651.881 490.657 494.101 621.817 317.161 621.817C140.221 621.817 -39.1193 463.617 7.48074 292.937C57.8107 108.607 161.241 -15.0934 337.101 1.48659Z" fill="#00C0A1"/>
<path fill-rule="evenodd" clip-rule="evenodd" d="M361.681 12.6565C537.831 29.2665 641.821 145.386 659.341 325.716C676.461 501.826 518.681 632.987 341.741 632.987C164.801 632.987 -14.5392 474.786 32.0608 304.106C82.3908 119.776 185.821 -3.92349 361.681 12.6565Z" fill="#143465"/>
<path d="M434.712 229.454C422.732 217.357 408.464 207.766 392.74 201.238C377.016 194.711 360.149 191.378 343.124 191.434C271.787 191.434 213.647 249.575 213.647 320.912C213.647 343.776 219.657 365.987 230.893 385.585L212.602 452.741L281.195 434.711C300.139 445.032 321.436 450.52 343.124 450.52C414.461 450.52 472.602 392.379 472.602 321.042C472.602 286.419 459.144 253.887 434.712 229.454ZM343.124 428.57C323.787 428.57 304.843 423.344 288.25 413.545L284.33 411.193L243.566 421.907L254.411 382.188L251.798 378.138C241.052 360.984 235.347 341.153 235.335 320.912C235.335 261.595 283.677 213.253 342.994 213.253C371.737 213.253 398.782 224.49 419.034 244.871C429.063 254.852 437.011 266.724 442.416 279.799C447.821 292.875 450.576 306.894 450.521 321.042C450.782 380.359 402.441 428.57 343.124 428.57ZM402.179 348.088C398.913 346.52 382.973 338.681 380.099 337.505C377.094 336.459 375.004 335.937 372.782 339.072C370.561 342.339 364.421 349.655 362.591 351.746C360.762 353.967 358.803 354.228 355.536 352.53C352.27 350.962 341.818 347.434 329.536 336.459C319.868 327.836 313.466 317.253 311.506 313.987C309.677 310.721 311.245 309.022 312.943 307.324C314.38 305.887 316.21 303.535 317.777 301.706C319.345 299.877 319.999 298.439 321.044 296.349C322.089 294.128 321.566 292.299 320.782 290.731C319.999 289.163 313.466 273.223 310.853 266.691C308.24 260.419 305.496 261.203 303.536 261.072H297.265C295.044 261.072 291.647 261.856 288.642 265.123C285.767 268.389 277.406 276.228 277.406 292.168C277.406 308.108 289.034 323.525 290.602 325.615C292.169 327.836 313.466 360.5 345.868 374.48C353.576 377.877 359.586 379.836 364.29 381.273C371.999 383.756 379.054 383.364 384.672 382.58C390.943 381.665 403.878 374.741 406.491 367.163C409.235 359.585 409.235 353.183 408.32 351.746C407.406 350.309 405.446 349.655 402.179 348.088Z" fill="white"/>
</svg>
